<svg viewBox="0 0 1258 108" fill="none" xmlns="http://www.w3.org/2000/svg">
<g clip-path="url(#clip0_89_753)">
<path d="M84.9402 16.9662C84.9402 16.9662 6.66017 65.9493 3.33008 68.777C8.39365 73.3682 13.959 78.2027 22.7632 80.4831C27.4619 81.6993 32.7079 82.0642 37.9083 82.0338C52.7341 81.973 68.2897 78.2939 75.1324 70.2973C80.1047 74.9797 85.4876 79.9054 94.0637 82.5203C97.6675 83.6149 101.682 84.2534 105.742 84.7399C111.672 85.4392 117.876 85.8041 123.806 84.9831C134.481 83.4932 142.19 78.5068 150.447 73.4291C160.073 78.5676 170.428 83.9189 183.474 85.5304C195.974 87.0811 209.842 84.7095 218.6 79.5101C224.12 76.2264 230.415 71.4223 237.988 72.973C241.226 73.6419 243.279 75.3446 245.515 76.8041C253.041 81.7297 264.72 84.6486 276.352 84.527C287.985 84.4054 299.435 81.2432 306.642 76.1655C308.513 74.8277 310.611 73.2162 313.713 73.1554C317.727 73.0946 319.871 75.6487 321.696 77.625C327.398 83.8581 339.806 88.0236 352.443 87.9324C365.079 87.8716 377.304 83.5541 382.778 77.2601C383.326 76.6216 383.873 75.9223 384.922 75.4966C388.937 73.7939 393.134 77.3209 395.323 79.8446C399.52 84.6486 408.689 88.0541 418.314 88.3277C427.985 88.6318 437.748 85.8041 442.857 81.2736C445.138 79.2365 446.643 76.8649 449.882 75.2838C453.121 73.7027 459.097 73.4291 461.15 75.527C462.062 76.4392 461.925 77.5642 462.062 78.598C463.157 86.3209 480.172 90.9426 493.812 89.1182C507.452 87.2939 517.624 81.0608 525.516 74.6453C526.611 73.7331 527.843 72.7601 529.713 72.4257C532.769 71.8784 535.963 73.3074 537.194 74.9189C538.472 76.5608 538.472 78.3851 539.43 80.0878C541.984 84.7703 551.336 87.6892 560.186 87.5372C569.035 87.3851 577.247 84.7095 583.588 81.3041C587.647 79.1149 594.125 76.5 598.048 78.75C599.645 79.6622 599.873 81.0304 600.512 82.277C602.656 86.473 610.73 89.4831 616.843 89.5743C627.472 91.3682 639.743 89.6959 647.635 85.348C652.607 82.6115 656.804 78.6892 663.783 78.4459C675.735 77.9899 680.616 88.5101 692.523 89.2703C700.186 89.7568 706.39 85.9257 709.949 82.125C713.051 78.8108 716.654 74.6757 723.406 74.5236C726.006 74.4628 728.515 75.0709 730.659 75.8919C740.239 79.4797 744.527 86.777 755.293 89.1182C763.549 90.9122 773.084 89.0574 780.017 86.0169C786.951 82.9764 792.061 78.8716 798.036 75.2534C798.858 74.7669 799.724 74.25 800.91 74.0372C804.742 73.3682 807.297 76.1351 808.939 78.1419C812.817 82.8243 821.484 86.1993 830.79 86.625C840.096 87.0507 849.63 84.527 854.876 80.2703C856.61 78.8412 857.933 77.2297 859.985 75.9527C862.038 74.6757 865.186 73.7027 868.242 74.098C870.249 74.3716 871.846 75.1926 873.351 75.9831C880.468 79.8142 887.493 83.9797 896.753 85.9561C906.014 87.9324 918.239 86.9291 920.839 83.7669C924.899 81 926.952 77.473 930.647 74.5236C934.297 71.5743 940.774 69.1419 946.933 70.1757C955.281 71.5743 956.649 77.7162 961.85 81.5777C966.503 85.0439 975.124 86.7466 982.697 85.652C991.045 84.4358 996.93 80.4527 1002.81 76.9257C1008.7 73.4291 1016.32 69.9932 1024.89 70.4797C1038.76 71.2703 1045.01 81.3953 1058.33 83.6149C1065.08 84.7399 1072.47 83.5541 1078.49 81.5169C1084.47 79.4797 1089.4 76.5912 1094.55 73.9459C1096.97 72.6993 1099.62 71.4831 1102.81 71.0574C1108.24 70.3581 1113.76 72.1824 1117.54 74.4628C1121.33 76.7432 1124.11 79.5101 1128.26 81.5777C1135.84 85.348 1147.74 86.1385 1156.73 83.4932C1162.84 81.6993 1167.27 78.598 1172.6 76.1655C1177.94 73.7331 1185.29 71.9392 1191.67 73.3986C1197.83 74.7973 1200.89 78.7196 1206.54 80.6959C1211.29 82.3378 1217.31 82.4291 1222.87 82.0946C1235.33 81.3953 1247.46 79.0236 1256.04 75.4966C1256.59 73.7331 1257.18 71.9696 1257.73 70.2061L1171.65 16.4797L84.7121 16.9358L84.9402 16.9662Z" fill="#C90A11"/>
<mask id="mask0_89_753" style="mask-type:luminance" maskUnits="userSpaceOnUse" x="3" y="16" width="1255" height="75">
<path d="M84.9402 16.9662C84.9402 16.9662 6.66017 65.9493 3.33008 68.777C8.39365 73.3682 13.959 78.2027 22.7632 80.4831C27.4619 81.6993 32.7079 82.0642 37.9083 82.0338C52.7341 81.973 68.2897 78.2939 75.1324 70.2973C80.1047 74.9797 85.4876 79.9054 94.0637 82.5203C97.6675 83.6149 101.682 84.2534 105.742 84.7399C111.672 85.4392 117.876 85.8041 123.806 84.9831C134.481 83.4932 142.19 78.5068 150.447 73.4291C160.073 78.5676 170.428 83.9189 183.474 85.5304C195.974 87.0811 209.842 84.7095 218.6 79.5101C224.12 76.2264 230.415 71.4223 237.988 72.973C241.226 73.6419 243.279 75.3446 245.515 76.8041C253.041 81.7297 264.72 84.6486 276.352 84.527C287.985 84.4054 299.435 81.2432 306.642 76.1655C308.513 74.8277 310.611 73.2162 313.713 73.1554C317.727 73.0946 319.871 75.6487 321.696 77.625C327.398 83.8581 339.806 88.0236 352.443 87.9324C365.079 87.8716 377.304 83.5541 382.778 77.2601C383.326 76.6216 383.873 75.9223 384.922 75.4966C388.937 73.7939 393.134 77.3209 395.323 79.8446C399.52 84.6486 408.689 88.0541 418.314 88.3277C427.985 88.6318 437.748 85.8041 442.857 81.2736C445.138 79.2365 446.643 76.8649 449.882 75.2838C453.121 73.7027 459.097 73.4291 461.15 75.527C462.062 76.4392 461.925 77.5642 462.062 78.598C463.157 86.3209 480.172 90.9426 493.812 89.1182C507.452 87.2939 517.624 81.0608 525.516 74.6453C526.611 73.7331 527.843 72.7601 529.713 72.4257C532.769 71.8784 535.963 73.3074 537.194 74.9189C538.472 76.5608 538.472 78.3851 539.43 80.0878C541.984 84.7703 551.336 87.6892 560.186 87.5372C569.035 87.3851 577.247 84.7095 583.588 81.3041C587.647 79.1149 594.125 76.5 598.048 78.75C599.645 79.6622 599.873 81.0304 600.512 82.277C602.656 86.473 610.73 89.4831 616.843 89.5743C627.472 91.3682 639.743 89.6959 647.635 85.348C652.607 82.6115 656.804 78.6892 663.783 78.4459C675.735 77.9899 680.616 88.5101 692.523 89.2703C700.186 89.7568 706.39 85.9257 709.949 82.125C713.051 78.8108 716.654 74.6757 723.406 74.5236C726.006 74.4628 728.515 75.0709 730.659 75.8919C740.239 79.4797 744.527 86.777 755.293 89.1182C763.549 90.9122 773.084 89.0574 780.017 86.0169C786.951 82.9764 792.061 78.8716 798.036 75.2534C798.858 74.7669 799.724 74.25 800.91 74.0372C804.742 73.3682 807.297 76.1351 808.939 78.1419C812.817 82.8243 821.484 86.1993 830.79 86.625C840.096 87.0507 849.63 84.527 854.876 80.2703C856.61 78.8412 857.933 77.2297 859.985 75.9527C862.038 74.6757 865.186 73.7027 868.242 74.098C870.249 74.3716 871.846 75.1926 873.351 75.9831C880.468 79.8142 887.493 83.9797 896.753 85.9561C906.014 87.9324 918.239 86.9291 920.839 83.7669C924.899 81 926.952 77.473 930.647 74.5236C934.297 71.5743 940.774 69.1419 946.933 70.1757C955.281 71.5743 956.649 77.7162 961.85 81.5777C966.503 85.0439 975.124 86.7466 982.697 85.652C991.045 84.4358 996.93 80.4527 1002.81 76.9257C1008.7 73.4291 1016.32 69.9932 1024.89 70.4797C1038.76 71.2703 1045.01 81.3953 1058.33 83.6149C1065.08 84.7399 1072.47 83.5541 1078.49 81.5169C1084.47 79.4797 1089.4 76.5912 1094.55 73.9459C1096.97 72.6993 1099.62 71.4831 1102.81 71.0574C1108.24 70.3581 1113.76 72.1824 1117.54 74.4628C1121.33 76.7432 1124.11 79.5101 1128.26 81.5777C1135.84 85.348 1147.74 86.1385 1156.73 83.4932C1162.84 81.6993 1167.27 78.598 1172.6 76.1655C1177.94 73.7331 1185.29 71.9392 1191.67 73.3986C1197.83 74.7973 1200.89 78.7196 1206.54 80.6959C1211.29 82.3378 1217.31 82.4291 1222.87 82.0946C1235.33 81.3953 1247.46 79.0236 1256.04 75.4966C1256.59 73.7331 1257.18 71.9696 1257.73 70.2061L1171.65 16.4797L84.7121 16.9358L84.9402 16.9662Z" fill="white"/>
</mask>
<g mask="url(#mask0_89_753)">
<g style="mix-blend-mode:multiply">
<path d="M604.298 78.75V16.5406" stroke="#A70006" stroke-width="0.91" stroke-miterlimit="10"/>
</g>
<g style="mix-blend-mode:multiply">
<path d="M666.794 78.446V16.5406" stroke="#A70006" stroke-width="0.91" stroke-miterlimit="10"/>
</g>
<g style="mix-blend-mode:multiply">
<path d="M529.713 72.4257L536.738 16.5406" stroke="#A70006" stroke-width="0.91" stroke-miterlimit="10"/>
</g>
<g style="mix-blend-mode:multiply">
<path d="M461.104 75.527L474.47 16.5406" stroke="#A70006" stroke-width="0.91" stroke-miterlimit="10"/>
</g>
<g style="mix-blend-mode:multiply">
<path d="M384.877 75.4966L414.209 16.5406" stroke="#A70006" stroke-width="0.91" stroke-miterlimit="10"/>
</g>
<g style="mix-blend-mode:multiply">
<path d="M313.713 73.125L353.948 16.5406" stroke="#A70006" stroke-width="0.91" stroke-miterlimit="10"/>
</g>
<g style="mix-blend-mode:multiply">
<path d="M237.942 72.973L289.672 16.5406" stroke="#A70006" stroke-width="0.91" stroke-miterlimit="10"/>
</g>
<g style="mix-blend-mode:multiply">
<path d="M150.447 73.3987L213.308 16.5406" stroke="#A70006" stroke-width="0.91" stroke-miterlimit="10"/>
</g>
<g style="mix-blend-mode:multiply">
<path d="M75.1323 70.2973L143.012 16.5406" stroke="#A70006" stroke-width="0.91" stroke-miterlimit="10"/>
</g>
<g style="mix-blend-mode:multiply">
<path d="M734.08 74.5237L730.157 16.5406" stroke="#A70006" stroke-width="0.91" stroke-miterlimit="10"/>
</g>
<g style="mix-blend-mode:multiply">
<path d="M800.956 74.0676L790.418 16.6926" stroke="#A70006" stroke-width="0.91" stroke-miterlimit="10"/>
</g>
<g style="mix-blend-mode:multiply">
<path d="M878.096 74.1284L862.449 16.5406" stroke="#A70006" stroke-width="0.91" stroke-miterlimit="10"/>
</g>
<g style="mix-blend-mode:multiply">
<path d="M1191.85 73.4291L1123.88 16.571" stroke="#A70006" stroke-width="0.91" stroke-miterlimit="10"/>
</g>
<g style="mix-blend-mode:multiply">
<path d="M1107.51 71.0878L1067.09 16.571" stroke="#A70006" stroke-width="0.91" stroke-miterlimit="10"/>
</g>
<g style="mix-blend-mode:multiply">
<path d="M1025.03 70.5102L1000.81 16.5406" stroke="#A70006" stroke-width="0.91" stroke-miterlimit="10"/>
</g>
<g style="mix-blend-mode:multiply">
<path d="M955.372 70.2061L934.798 16.6318" stroke="#A70006" stroke-width="0.91" stroke-miterlimit="10"/>
</g>
</g>
<path d="M77.687 10.0946V6.93243C77.687 3.10135 83.298 0 90.2319 0H1166.81C1173.74 0 1179.36 3.10135 1179.36 6.93243V10.0946C1179.36 13.9257 1173.74 17.027 1166.81 17.027H90.2319C83.298 17.027 77.687 13.9257 77.687 10.0946Z" fill="#6B0106"/>
<path d="M0 76.8649C0.729884 87.9629 9.67096 98.9392 25.1354 107.848C25.1354 107.848 1230.95 107.848 1231.82 108.03C1241.67 103.865 1248.24 98.4223 1252.25 92.7061C1256.27 87.0203 1257.86 81.0608 1256.18 74.2196C1239.3 77.777 1218.36 77.5338 1202.03 73.5507C1196.23 72.1216 1189.85 70.2061 1183.51 71.0879C1179.86 71.6047 1177.26 72.9426 1174.66 74.1588C1165.17 78.6588 1150.57 82.5203 1137.52 80.1791C1126.21 78.1419 1119 71.8784 1106.78 72.1216C1097.7 72.3041 1091.68 76.0743 1084.2 78.2939C1073.8 81.3953 1058.97 81.3649 1048.61 78.2939C1039.95 75.7095 1033.42 71.0879 1022.89 70.875C1007.42 70.5406 998.162 79.9966 982.697 79.7838C974.03 79.6622 967.506 76.5 961.166 73.946C954.779 71.3919 945.199 69.2027 937.855 71.1791C934.844 72 932.928 73.3683 931.103 74.6757C926.04 78.2635 919.562 82.1554 909.891 82.7027C896.297 83.4629 886.672 77.473 875.724 73.8851C873.169 73.0338 869.976 72.2737 866.874 72.6385C864.775 72.8818 863.179 73.5507 861.628 74.1892C858.206 75.6791 854.785 77.1385 851.318 78.6284C846.483 80.7264 840.415 82.9764 833.664 82.4291C821.53 81.4561 818.063 72.3345 805.837 73.0034C795.208 78.3852 780.428 82.2466 764.371 83.8277C761.177 84.1318 757.847 84.375 754.745 83.9493C750.548 83.3716 747.629 81.7601 745.029 80.2095C739.372 76.8649 733.67 73.5203 725.915 70.3277C722.174 73.9156 717.476 77.321 711.956 80.4527C710.314 81.3953 708.535 82.3379 706.254 82.9764C701.601 84.3446 695.442 84.375 690.014 83.7669C682.213 82.8547 675.234 80.6656 670.946 77.7162C669.714 76.8953 668.573 75.9527 664.787 75.3142C660.18 79.3581 647.68 76.4696 638.283 78.446C628.886 80.4223 623.731 79.0541 614.197 77.1993C604.663 75.3142 596.269 79.2973 595.904 74.7669C590.522 80.2399 576.061 83.7365 562.421 82.9156C548.781 82.0946 537.149 76.9561 534.184 70.6318C529.667 73.9156 525.014 77.2602 518.582 79.9054C512.15 82.5507 503.437 84.4054 494.587 84.1014C488.018 83.8885 481.951 82.4899 476.523 80.8784C469.315 78.7196 462.837 76.1047 457.455 73.125C453.988 76.6824 447.875 79.7838 440.302 81.821C437.246 82.6419 433.779 83.3108 430.175 83.3108C426.389 83.3108 422.831 82.5507 419.501 81.7601C410.924 79.6926 402.348 76.8953 399.338 72.8818C394.274 72.1824 388.663 73.1858 384.512 74.6149C380.315 76.0439 376.985 77.8987 372.742 79.2669C367.679 80.9088 361.384 81.8514 355.043 81.973C343.273 82.1554 331.595 79.3277 325.574 74.9797C323.43 73.4291 321.149 71.4831 316.952 71.3615C313.257 71.2703 310.474 72.6689 307.965 73.8243C298.431 78.1723 283.697 80.3311 269.966 79.3581C256.235 78.3852 243.872 74.3716 237.349 69.1419C227.45 71.696 220.562 76.1047 210.298 78.4156C194.651 81.9122 174.214 79.4189 162.217 73.8243C160.438 73.0034 158.704 72.0608 156.241 71.6656C153.002 71.1487 149.307 71.696 146.57 72.6081C143.833 73.5203 141.734 74.7365 139.271 75.7703C132.565 78.6588 122.985 80.2703 113.497 80.0879C104.008 79.9358 94.7936 77.9899 88.6352 74.8885C86.6281 73.8851 84.9402 72.7601 82.6137 71.8784C80.2872 70.9966 77.094 70.3885 74.1288 70.723C72.1216 70.9358 70.4794 71.5743 68.7459 72.0912C61.5839 74.25 52.4604 74.7669 43.7474 75.1014C30.1077 75.6487 16.3768 75.9223 0.273706 76.8649" fill="#6B0106"/>
<path d="M1245.23 65.3716H12.773C5.71865 65.3716 0 69.1832 0 73.8851V76.3176C0 81.0194 5.71865 84.8311 12.773 84.8311H1245.23C1252.28 84.8311 1258 81.0194 1258 76.3176V73.8851C1258 69.1832 1252.28 65.3716 1245.23 65.3716Z" fill="#D73C24"/>
</g>
<defs>
<clipPath id="clip0_89_753">
<rect width="1258" height="108" fill="white"/>
</clipPath>
</defs>
</svg>
