<svg  viewBox="0 0 403 571" fill="none" xmlns="http://www.w3.org/2000/svg">
<mask id="mask0_389_6619" style="mask-type:alpha" maskUnits="userSpaceOnUse" x="0" y="0" width="403" height="571">
<rect width="403" height="571" fill="#D9D9D9"/>
</mask>
<g mask="url(#mask0_389_6619)">
<path d="M202.055 417.549L181.757 747.702H135.906L143.828 417.549H202.055Z" fill="#525252"/>
<path d="M104.978 417.549L60.0864 747.702H110.207L175.45 417.549H104.978Z" fill="#525252"/>
<path d="M139.464 599.665L165.083 470.021L183.791 457.829" stroke="#171717" stroke-width="0.97" stroke-linecap="round" stroke-linejoin="round"/>
<path d="M98.396 465.949L126.393 443.903" stroke="#171717" stroke-width="0.97" stroke-linecap="round" stroke-linejoin="round"/>
<path d="M138.794 259.567C138.794 259.567 119.928 263.968 106.488 270.76C98.0274 275.03 97.0815 284.253 98.1456 293.672L104.977 417.549H202.066L208.858 297.863C209.791 284.739 202.079 271.864 189.624 267.633C175.659 262.89 166.843 258.371 159.42 257.938L138.807 259.567H138.794Z" fill="#537EEF"/>
<path d="M206.795 334.281L208.858 297.863" stroke="#171717" stroke-width="0.97" stroke-linecap="round" stroke-linejoin="round"/>
<path d="M138.794 259.566L127.601 262.641C127.601 262.641 135.917 278.656 166.108 275.949C187.286 274.044 178.746 263.692 178.746 263.692L168.21 259.882L138.781 259.566H138.794Z" fill="#FFC7A1"/>
<path d="M47.0403 330.682L97.1742 404.49L83.6686 419.257L28.332 365.037L47.0403 330.682Z" fill="#FFC7A1"/>
<path d="M143.235 407.853L121.794 396.949L123.897 392.245C124.659 390.537 124.186 388.514 122.74 387.332C121.243 386.097 119.101 386.071 117.564 387.253L96.4516 403.833L83.6816 419.27C95.2692 429.189 102.837 429.071 107.198 427.139C107.711 427.31 108.21 427.494 108.722 427.639L126.55 432.749C128.193 433.459 130.111 432.762 130.925 431.16C131.516 429.99 131.714 428.138 128.285 426.391L131.714 428.138C133.461 428.887 135.484 428.138 136.299 426.417C137.061 424.906 136.128 422.896 134.105 421.582L136.732 422.607C138.637 423.435 140.871 422.489 141.58 420.479C142.198 418.731 141.278 416.813 139.623 415.972L135.839 414.054L140.345 415.145C142.421 415.88 144.733 414.764 145.403 412.596C145.981 410.73 144.983 408.733 143.249 407.853H143.235Z" fill="#FFC7A1"/>
<path d="M136.969 414.593L124.304 408.615" stroke="#171717" stroke-width="0.63" stroke-linecap="round" stroke-linejoin="round"/>
<path d="M133.566 421.359L121.348 416.261" stroke="#171717" stroke-width="0.63" stroke-linecap="round" stroke-linejoin="round"/>
<path d="M129.413 426.837L119.061 422.751" stroke="#171717" stroke-width="0.63" stroke-linecap="round" stroke-linejoin="round"/>
<path d="M117.352 310.344L53.6075 365.326C47.6561 371.343 38.2625 372.263 31.2601 367.52C22.4314 361.542 20.9075 349.14 28.0413 341.205L87.9892 282.636C95.1493 274.675 107.289 273.69 115.644 280.39C124.985 287.892 125.774 301.818 117.352 310.331V310.344Z" fill="#FFC7A1"/>
<path d="M120.228 265.045C120.228 265.045 86.9635 271.548 59.6631 306.153L88.5926 343.859L130.069 314.154L120.242 265.045H120.228Z" fill="#537EEF"/>
<path d="M102.677 333.769L126.732 316.545" stroke="#171717" stroke-width="0.97" stroke-linecap="round" stroke-linejoin="round"/>
<path d="M190.361 155.567C190.361 155.567 201.594 165.605 192.279 188.136L176.855 157.709L190.361 155.567Z" fill="#161616"/>
<path d="M127.43 158.287C127.43 158.287 114.319 156.855 111.336 177.087C108.354 197.32 123.226 209.406 139.727 219.194L127.43 158.287Z" fill="#161616"/>
<path d="M154.783 222.649C175.571 222.649 192.423 205.409 192.423 184.142C192.423 162.875 175.571 145.635 154.783 145.635C133.995 145.635 117.143 162.875 117.143 184.142C117.143 205.409 133.995 222.649 154.783 222.649Z" fill="#161616"/>
<path d="M179.102 200.735C180.783 205.728 186.196 208.421 191.189 206.739C196.181 205.058 198.874 199.645 197.192 194.653C195.511 189.66 190.098 186.967 185.106 188.649C180.113 190.33 177.42 195.743 179.102 200.735Z" fill="#DD8161"/>
<path d="M168.394 222.886L168.958 264.427L137.966 259.304L140.213 199.724L168.394 222.886Z" fill="#FFC7A1"/>
<path d="M168.696 243.933L146.926 222.649L169.379 226.591L168.696 243.933Z" fill="#171717"/>
<path d="M187.93 165.644C187.93 165.644 196.312 199.106 192.528 211.955C188.745 224.804 178.773 233.133 162.101 230.4C162.101 230.4 142.881 230.033 137.205 201.707C128.652 159.049 167.251 143.441 187.917 165.657L187.93 165.644Z" fill="#FFC7A1"/>
<path d="M142.592 201.668C142.592 201.668 154.889 173.422 141.541 167.917C137.534 166.262 135.182 165.421 133.291 179.583C131.399 193.733 136.339 196.058 136.339 196.058L142.592 201.668Z" fill="#161616"/>
<path d="M125.579 204.913C127.314 210.076 132.91 212.862 138.073 211.127C143.237 209.393 146.022 203.797 144.288 198.633C142.553 193.47 136.957 190.685 131.794 192.419C126.63 194.153 123.845 199.75 125.579 204.913Z" fill="#FFC7A1"/>
<path d="M130.401 199.028C130.401 199.028 137.574 196.728 139.729 204.637" stroke="#171717" stroke-width="0.6" stroke-linecap="round" stroke-linejoin="round"/>
<path d="M181.046 197.924L183.187 205.15C183.292 205.688 182.951 206.214 182.425 206.345L179.995 206.739" stroke="#1E0B07" stroke-width="0.57" stroke-linecap="round" stroke-linejoin="round"/>
<path d="M165.976 195.664C165.897 196.978 166.895 198.108 168.209 198.187C169.523 198.265 170.653 197.267 170.731 195.953C170.81 194.639 169.812 193.509 168.498 193.431C167.184 193.352 166.054 194.35 165.976 195.664Z" fill="#171717"/>
<path d="M185.933 195.125C185.854 196.347 186.787 197.398 188.009 197.464C189.23 197.543 190.281 196.61 190.347 195.388C190.426 194.166 189.493 193.115 188.271 193.05C187.05 192.971 185.999 193.904 185.933 195.125Z" fill="#171717"/>
<path d="M172.86 179.504L154.875 185.245C154.875 185.245 158.868 179.754 164.058 178.125C169.247 176.496 172.86 179.504 172.86 179.504Z" fill="#171717"/>
<path d="M182.95 179.084L192.409 182.132C192.409 182.132 190.78 178.086 188.048 177.232C185.315 176.378 182.937 179.084 182.937 179.084H182.95Z" fill="#171717"/>
<path d="M168.367 208.526C168.367 208.526 174.988 211.902 181.61 211.902C181.61 211.902 172.61 218.445 168.367 208.526Z" fill="white"/>
<path d="M137.532 168.245C137.532 168.245 147.53 176.864 172.295 171.872C197.047 166.879 198.032 150.102 195.05 144.203C195.05 144.203 185.945 151.271 170.929 147.409C162.56 145.254 143.852 137.385 132.632 145.806C128.756 148.71 126.51 153.531 127.442 158.274C128.165 161.952 130.622 166.143 137.532 168.232V168.245Z" fill="#161616"/>
</g>
</svg>
