<svg viewBox="0 0 216 170" fill="none" xmlns="http://www.w3.org/2000/svg">
<path d="M56.2447 73.2697L107.246 140.246C112.882 146.552 113.237 155.985 108.073 162.686C101.57 171.133 89.1024 171.895 81.6138 164.302L26.8028 100.912C19.288 93.2786 19.0383 81.0998 26.251 73.1645C34.3045 64.2965 48.2569 64.3491 56.2447 73.2828V73.2697Z" fill="#FFC7A1"/>
<path d="M31.2686 47.8613C31.2686 47.8613 56.2041 50.975 75.2934 87.9842L45.9698 123.141L31.2686 47.8613Z" fill="#537EEF"/>
<path d="M72.2871 142.992L142.207 99.1384L156.12 113.511L105.434 165.458L72.2871 142.992Z" fill="#FFC7A1"/>
<path d="M153.414 71.7329L188.085 81.849C188.085 81.849 188.085 108.716 156.107 113.577C154.36 113.84 146.49 110.831 145.137 109.622L139.816 94.4482C137.924 91.9651 138.095 88.4836 140.197 86.1713L153.427 71.7197L153.414 71.7329Z" fill="#FFC7A1"/>
<path d="M150.537 76.1997L162.795 60.0928C164.621 57.8462 167.735 57.3732 169.797 59.0286C171.781 60.6183 172.096 63.6268 170.533 65.9128L159.208 83.57L150.537 76.1866V76.1997Z" fill="#E9B0A0"/>
<path d="M165.369 89.0484L180.11 74.5049C182.146 72.4554 185.168 72.2583 186.902 74.0319C188.571 75.7398 188.465 78.6958 186.666 80.811L172.608 96.9574L165.369 89.0484Z" fill="#E9B0A0"/>
<path d="M159.694 79.1165L173.62 65.3612C175.669 63.338 178.783 63.2461 180.622 65.1642C182.383 67.0035 182.343 70.0515 180.544 72.1666L167.353 87.6036L159.681 79.1165H159.694Z" fill="#E9B0A0"/>
<path d="M172.727 2.19453L180.123 0.14502L196.637 47.5989L185.089 96.1431L177.154 98.2058L173.397 43.5655L172.727 2.19453Z" fill="#36438D"/>
<path d="M153.126 82.8607L181.28 95.473C184.052 97.2072 187.731 95.8934 188.769 92.7929L214.887 19.1028C215.504 17.2504 214.781 15.214 213.126 14.1893L183.474 0.644157C181.162 -0.801005 178.114 0.289431 177.247 2.87758L150.997 76.9487C150.249 79.169 151.129 81.6126 153.113 82.8607H153.126Z" fill="#050907"/>
<path d="M145.913 84.8446L174.067 97.4569C176.839 99.1911 180.518 97.8773 181.556 94.7768L207.674 21.0867C208.291 19.2343 207.569 17.1979 205.913 16.1732L176.261 2.62804C173.949 1.18288 170.901 2.27333 170.034 4.86148L143.784 78.9326C143.036 81.1529 143.916 83.5965 145.9 84.8446H145.913Z" fill="#364EC1"/>
<path d="M143.547 99.3879C141.655 98.4551 136.912 93.5153 137.753 86.0267C138.857 76.1734 143.941 68.6979 143.941 68.6979C145.636 65.5186 147.593 63.9814 150.339 64.3756C153.322 64.796 155.227 67.9622 154.701 70.1694L151.6 77.0536C151.6 77.0536 155.016 85.7771 147.869 99.0069L143.56 99.3879H143.547Z" fill="#FFC7A1"/>
<path d="M182.856 37.2593L183.079 36.6813C183.158 36.4842 183.369 36.3922 183.552 36.4711C183.566 36.4711 183.579 36.4711 183.592 36.4974H183.605C187.77 39.0198 190.174 43.6312 189.99 48.4002C189.99 48.4002 189.99 48.4791 189.964 48.5185C189.885 48.7155 189.675 48.8075 189.491 48.7287L181.95 45.8252H181.91L181.884 45.7989C181.779 45.7332 181.713 45.615 181.713 45.4968L181.674 43.8151C181.687 41.3584 182.107 39.1512 182.843 37.2856L182.856 37.2593ZM171.255 46.3113C171.255 46.3113 171.308 46.2325 171.334 46.1799C171.413 45.9829 171.308 45.7727 171.124 45.707L164.7 43.2239C164.516 43.1451 164.292 43.2371 164.227 43.4341C163.11 46.6003 163.255 49.9111 164.411 52.8014C164.45 52.8934 164.516 52.959 164.621 52.9985C164.765 53.051 164.923 53.0116 165.015 52.9065L171.269 46.285L171.255 46.3113ZM178.232 60.7235C178.232 60.7235 178.232 60.7235 178.232 60.7104L178.008 49.7403C178.008 49.7403 178.008 49.7403 178.008 49.7272C178.008 48.9257 177.509 48.1769 176.721 47.8616C175.972 47.5725 175.171 47.7565 174.619 48.2689L166.973 56.3618C166.973 56.3618 166.92 56.4406 166.894 56.48C166.841 56.6114 166.867 56.7428 166.946 56.8479C166.946 56.8479 166.946 56.8478 166.946 56.861C168.286 58.3193 169.968 59.4886 171.925 60.2505C173.883 61.0125 175.933 61.2622 177.89 61.0914C178.021 61.0782 178.14 60.9863 178.192 60.8549C178.205 60.8155 178.218 60.7629 178.218 60.7235H178.232ZM188.952 52.9985C189.031 52.7883 188.926 52.5781 188.742 52.4992L182.304 50.0162C182.107 49.9374 181.897 50.0425 181.831 50.2264C181.818 50.2789 181.805 50.3183 181.805 50.3709L181.989 59.4754C181.989 59.6199 182.081 59.7513 182.226 59.8039C182.317 59.8433 182.423 59.8301 182.501 59.8039C182.501 59.8039 182.501 59.8039 182.515 59.8039C185.313 58.4375 187.651 56.0858 188.939 52.9985H188.952ZM166.697 39.9263L174.238 42.8298H174.264C174.395 42.8823 174.54 42.8298 174.632 42.7378L175.788 41.516C177.43 39.6767 178.599 37.7849 179.309 35.893L179.532 35.315C179.611 35.1179 179.506 34.9077 179.322 34.842C179.309 34.842 179.296 34.842 179.27 34.8288H179.256C174.474 33.8961 169.6 35.6828 166.539 39.3483C166.539 39.3483 166.5 39.414 166.486 39.4534C166.408 39.6504 166.513 39.8606 166.697 39.9263Z" fill="white"/>
<path d="M41.5 128.5L75 88L31.5 48C8.5 48 -1.99997 69.5 1.50003 88C4.30003 102.8 29.3334 121.167 41.5 128.5Z" fill="#537EEF"/>
</svg>
