
<?xml version="1.0" encoding="UTF-8"?>
<svg id="uuid-b31e011d-b47c-4f3e-a523-ff876ab5d468" data-name="圖層 1" xmlns="http://www.w3.org/2000/svg" viewBox="0 0 445.75 252.67">
  <g>
    <path d="m295.56,20.41h-50.57l2-15.93c.26-2.04,1.99-3.57,4.05-3.57h38.47c2.06,0,3.79,1.53,4.05,3.57l2,15.93Z" style="fill: #fff; stroke: #dee2eb; stroke-miterlimit: 10; stroke-width: 1.81px;"/>
    <rect x="151.67" y="138.44" width="278.27" height="75.24" style="fill: #031022; stroke-width: 0px;"/>
    <ellipse cx="209.85" cy="201.77" rx="43.31" ry="50.9" style="fill: #031022; stroke-width: 0px;"/>
    <ellipse cx="382.41" cy="201.77" rx="43.31" ry="50.9" style="fill: #031022; stroke-width: 0px;"/>
    <ellipse cx="391.74" cy="201.77" rx="17.09" ry="20.09" style="fill: #fff; stroke-width: 0px;"/>
    <ellipse cx="216.02" cy="201.77" rx="17.09" ry="20.09" style="fill: #fff; stroke-width: 0px;"/>
    <ellipse cx="57.25" cy="201.77" rx="43.31" ry="50.9" style="fill: #031022; stroke-width: 0px;"/>
    <path d="m440.77,111.3l-25.06-28.99-31.8-56.1c-2.03-3.58-5.83-5.8-9.95-5.8h-194.16c-2.11,0-4.14.74-5.76,2.09l-71.63,59.83-75.75,29.91c-5.96,2.35-10.43,7.42-12.03,13.62L1.44,169.84c-.96,3.2-1.44,6.51-1.44,9.85v33.99h179.23l2.35-23.89c2.4-24.4,18.92-38.92,37.15-38.92s34.75,14.52,37.15,38.92l2.35,23.89h103.61l2.03-23.89c2.07-24.4,16.3-38.92,32.02-38.92s29.95,14.52,32.02,38.92l2.03,23.89h15.8v-89.04c0-4.9-1.76-9.64-4.97-13.35Z" style="fill: #ffd900; stroke-width: 0px;"/>
    <path d="m427.07,95.45h-9.42c-2.29,0-4.27,1.59-4.78,3.82l-4.49,19.86c-.57,2.53,1.32,4.94,3.92,4.98l33.45.55c0-4.9-1.76-9.64-4.97-13.35l-13.7-15.85Z" style="fill: #fff; stroke-width: 0px;"/>
    <path d="m397.6,113.59l-6.87-31.1h-86.87l-47.12,115.85h106.42l.73-8.55c1.67-19.71,11.28-32.97,23.2-37.34h0s10.53-38.87,10.53-38.87Z" style="fill: #e72312; stroke-width: 0px;"/>
    <polygon points="258.45 98.8 251.27 117.77 279.52 117.77 286.69 98.8 258.45 98.8" style="fill: #e72312; stroke-width: 0px;"/>
    <polygon points="275.75 139.37 279.92 128.36 263.62 128.36 259.45 139.37 275.75 139.37" style="fill: #e72312; stroke-width: 0px;"/>
    <polygon points="256.83 146.3 259.45 139.37 249.21 139.37 246.59 146.3 256.83 146.3" style="fill: #e72312; stroke-width: 0px;"/>
    <polygon points="258.85 127.81 260.85 122.53 244.55 122.53 242.55 127.81 258.85 127.81" style="fill: #e72312; stroke-width: 0px;"/>
    <polygon points="275.12 155.61 277.47 149.4 266.72 149.4 264.37 155.61 275.12 155.61" style="fill: #e72312; stroke-width: 0px;"/>
    <g>
      <path d="m283.1,124.7l-.91-13.82h-10.74s2.4,25.42,2.21,25.52c-.19.09-.41.15-.65.15h-.02c-1.35,0-2.79-.43-4.38-1.54l-4.24,8.04c1.97,1.25,4.38,1.97,7.8,1.97,5.78,0,9.73-2.21,13.92-8.76l16.23-25.38h-11.36l-7.85,13.82Z" style="fill: #fff; stroke-width: 0px;"/>
      <path d="m318.34,110.25c-9.15,0-15.75,7.27-15.75,15.31,0,6.84,4.86,12.23,13.15,12.23,9.15,0,15.75-7.27,15.75-15.31,0-6.84-4.86-12.23-13.15-12.23m-1.93,18.63c-2.12,0-3.51-1.59-3.51-3.8,0-3.13,2.02-5.92,4.77-5.92,2.12,0,3.52,1.59,3.52,3.8,0,3.13-2.02,5.92-4.77,5.92" style="fill: #fff; stroke-width: 0px;"/>
      <polygon points="365.24 137.17 376.17 137.17 383.2 110.88 372.27 110.88 365.24 137.17" style="fill: #fff; stroke-width: 0px;"/>
      <polygon points="367.03 110.88 355.13 110.88 350.7 116.27 349.02 110.88 337.89 110.88 343.05 123.64 330.72 137.17 342.61 137.17 347.19 131.58 348.97 137.17 360.09 137.17 354.84 124.22 367.03 110.88" style="fill: #fff; stroke-width: 0px;"/>
      <path d="m381.54,95.4c-3.26,0-6.37,2.64-6.94,5.9-.57,3.26,1.6,5.9,4.86,5.9s6.37-2.64,6.94-5.9c.57-3.26-1.6-5.9-4.86-5.9" style="fill: #fff; stroke-width: 0px;"/>
    </g>
    <g>
      <polygon points="256.73 198.35 258.24 213.69 361.85 213.69 363.15 198.35 256.73 198.35" style="fill: #031022; stroke-width: 0px;"/>
      <polygon points="428.64 198.35 429.94 213.69 445.75 213.69 445.75 198.35 428.64 198.35" style="fill: #031022; stroke-width: 0px;"/>
    </g>
    <path d="m402.87,78.85l-26.79-47.61c-1.01-1.8-2.92-2.91-4.98-2.91h-83.86c-1.86,0-3.63.79-4.87,2.18l-42.77,47.91c-1.41,1.58-.29,4.08,1.83,4.08h159.31c1.87,0,3.05-2.02,2.14-3.65Z" style="fill: #fff; stroke-width: 0px;"/>
    <path d="m144.94,198.21c-1.34,0-2.54-.82-3.04-2.06l-7.28-18.31c-.74-1.87-2.55-3.09-4.55-3.09H11.58c-2.12,0-4,1.36-4.66,3.37l-6.92,21.1v14.47h179.23l1.52-15.48h-35.81Z" style="fill: #031022; stroke-width: 0px;"/>
    <path d="m117.96,163.91H22.83c-2.74,0-4.7-2.65-3.91-5.27l8.78-28.92c.52-1.72,2.11-2.9,3.91-2.9h78.21c1.83,0,3.43,1.22,3.93,2.98l8.14,28.92c.73,2.6-1.22,5.19-3.93,5.19Z" style="fill: #031022; stroke-width: 0px;"/>
    <path d="m125.47,193c0,2.95-2.39,5.35-5.35,5.35s-5.35-2.39-5.35-5.35,2.39-5.35,5.35-5.35,5.35,2.39,5.35,5.35Z" style="fill: #fff; stroke-width: 0px;"/>
    <path d="m24.79,193c0,2.95-2.39,5.35-5.35,5.35s-5.35-2.39-5.35-5.35,2.39-5.35,5.35-5.35,5.35,2.39,5.35,5.35Z" style="fill: #fff; stroke-width: 0px;"/>
    <path d="m192.61,137.06h-20.97c-1.15,0-2.27-.39-3.17-1.09l-4.71-3.69c-.91-.71-2.02-1.09-3.17-1.09h-29.74c-.92,0-1.73-.61-1.98-1.5l-1.22-4.35c-.31-1.09.33-2.23,1.42-2.54l79.09-22.23c1.28-.36,2.65-.08,3.68.75l6.31,5.05c.9.72,1.03,2.05.29,2.93l-21.9,25.93c-.98,1.16-2.42,1.83-3.93,1.83Z" style="fill: #fff; stroke-width: 0px;"/>
    <path d="m73.73,141.24c0,3.83-3.87,6.94-8.65,6.94s-8.65-3.11-8.65-6.94,3.87-6.94,8.65-6.94,8.65,3.11,8.65,6.94Z" style="fill: #fff; stroke-width: 0px;"/>
    <g>
      <path d="m267.07,12.63l-.2-2.95h-2.3s.51,5.43.47,5.45c-.04.02-.09.03-.14.03h0c-.29,0-.6-.09-.94-.33l-.91,1.72c.42.27.94.42,1.67.42,1.24,0,2.08-.47,2.98-1.87l3.48-5.42h-2.43l-1.68,2.95Z" style="fill: #e72312; stroke-width: 0px;"/>
      <path d="m274.62,9.54c-1.96,0-3.37,1.55-3.37,3.27,0,1.46,1.04,2.61,2.82,2.61,1.96,0,3.37-1.55,3.37-3.27,0-1.46-1.04-2.61-2.82-2.61m-.41,3.98c-.45,0-.75-.34-.75-.81,0-.67.43-1.27,1.02-1.27.45,0,.75.34.75.81,0,.67-.43,1.27-1.02,1.27" style="fill: #e72312; stroke-width: 0px;"/>
      <polygon points="284.67 15.29 287.01 15.29 288.51 9.67 286.17 9.67 284.67 15.29" style="fill: #e72312; stroke-width: 0px;"/>
      <polygon points="285.05 9.67 282.5 9.67 281.55 10.83 281.19 9.67 278.81 9.67 279.91 12.4 277.27 15.29 279.82 15.29 280.8 14.1 281.18 15.29 283.56 15.29 282.44 12.52 285.05 9.67" style="fill: #e72312; stroke-width: 0px;"/>
      <path d="m288.16,6.37c-.7,0-1.36.56-1.49,1.26-.12.7.34,1.26,1.04,1.26s1.36-.56,1.49-1.26c.12-.7-.34-1.26-1.04-1.26" style="fill: #e72312; stroke-width: 0px;"/>
      <path d="m251.94,12.47h3.55c-.36,1.32-1.43,2.08-3.35,2.34l.19,2.19c4.57-.27,6.69-2.04,7.55-5.27l1.43-5.33h-9.99l.61,6.07Z" style="fill: #e72312; stroke-width: 0px;"/>
    </g>
    <g>
      <path d="m256.09,78.76h-16.75l-4.53,5.07c-1.41,1.58-.29,4.08,1.83,4.08h19.44v-9.15Z" style="fill: #3a4b5f; stroke-width: 0px;"/>
      <path d="m282.29,87.91h-39.66l15.37-16.54c2.16-2.33,5.2-3.65,8.37-3.65h22.87c3.47,0,5.84,3.52,4.54,6.74l-3.17,7.84c-1.37,3.39-4.67,5.61-8.33,5.61Z" style="fill: #3a4b5f; stroke-width: 0px;"/>
    </g>
  </g>
  <path d="m105.22,80.96h118.1c2.34,0,4.58-1,6.14-2.75l42.4-47.5c1.42-1.59.29-4.11-1.84-4.11h-99.72l-65.08,54.36Z" style="fill: #fff; stroke-width: 0px;"/>
  <polygon points="171.83 25.25 100.75 84.28 107.46 85.27 180 24.07 171.83 25.25" style="fill: #ffd900; stroke-width: 0px;"/>
</svg>