<svg viewBox="0 0 775 249" fill="none" xmlns="http://www.w3.org/2000/svg">
<g clip-path="url(#clip0_311_2170)">
<path d="M445.599 138.692H469.575C493.114 138.692 512.194 163.384 512.194 193.846C512.194 224.308 493.114 249 469.575 249H445.599C422.06 249 402.98 224.308 402.98 193.846C402.98 163.384 422.06 138.692 445.599 138.692Z" fill="black"/>
<path d="M146.605 138.679H170.581C194.12 138.679 213.2 163.371 213.2 193.833C213.2 224.294 194.12 248.987 170.581 248.987H146.605C123.066 248.987 103.986 224.294 103.986 193.833C103.986 163.371 123.066 138.679 146.605 138.679Z" fill="black"/>
<path d="M260.49 204.379L437.225 204.379V125.327L260.49 125.327V204.379Z" fill="black"/>
<path d="M340.593 248.868C363.583 248.868 382.22 224.743 382.22 194.984C382.22 165.225 363.583 141.1 340.593 141.1C317.604 141.1 298.967 165.225 298.967 194.984C298.967 224.743 317.604 248.868 340.593 248.868Z" fill="black"/>
<path d="M364.014 248.854H340.594L316.658 224.916L340.594 141.1H364.014V248.854Z" fill="black"/>
<path d="M364.013 248.868C387.003 248.868 405.64 224.743 405.64 194.984C405.64 165.225 387.003 141.1 364.013 141.1C341.024 141.1 322.387 165.225 322.387 194.984C322.387 224.743 341.024 248.868 364.013 248.868Z" fill="#253A6A"/>
<path d="M366.898 221.105C377.998 221.105 386.996 208.901 386.996 193.846C386.996 178.791 377.998 166.587 366.898 166.587C355.797 166.587 346.799 178.791 346.799 193.846C346.799 208.901 355.797 221.105 366.898 221.105Z" fill="#B8B8C2"/>
<mask id="mask0_311_2170" style="mask-type:luminance" maskUnits="userSpaceOnUse" x="346" y="166" width="41" height="56">
<path d="M366.898 221.105C377.998 221.105 386.996 208.901 386.996 193.846C386.996 178.791 377.998 166.587 366.898 166.587C355.797 166.587 346.799 178.791 346.799 193.846C346.799 208.901 355.797 221.105 366.898 221.105Z" fill="white"/>
</mask>
<g mask="url(#mask0_311_2170)">
<path d="M357.542 221.105C368.642 221.105 377.641 208.901 377.641 193.846C377.641 178.791 368.642 166.587 357.542 166.587C346.442 166.587 337.443 178.791 337.443 193.846C337.443 208.901 346.442 221.105 357.542 221.105Z" fill="white"/>
</g>
<path d="M559.484 204.379L736.219 204.379V125.327L559.484 125.327V204.379Z" fill="black"/>
<path d="M639.587 248.868C662.577 248.868 681.214 224.743 681.214 194.984C681.214 165.225 662.577 141.1 639.587 141.1C616.598 141.1 597.961 165.225 597.961 194.984C597.961 224.743 616.598 248.868 639.587 248.868Z" fill="black"/>
<path d="M663.008 248.854H639.588L615.652 224.916L639.588 141.1H663.008V248.854Z" fill="black"/>
<path d="M663.007 248.868C685.997 248.868 704.634 224.743 704.634 194.984C704.634 165.225 685.997 141.1 663.007 141.1C640.018 141.1 621.381 165.225 621.381 194.984C621.381 224.743 640.018 248.868 663.007 248.868Z" fill="#253A6A"/>
<path d="M665.892 221.105C676.992 221.105 685.991 208.901 685.991 193.846C685.991 178.791 676.992 166.587 665.892 166.587C654.791 166.587 645.793 178.791 645.793 193.846C645.793 208.901 654.791 221.105 665.892 221.105Z" fill="#B8B8C2"/>
<mask id="mask1_311_2170" style="mask-type:luminance" maskUnits="userSpaceOnUse" x="645" y="166" width="41" height="56">
<path d="M665.892 221.105C676.992 221.105 685.991 208.901 685.991 193.846C685.991 178.791 676.992 166.587 665.892 166.587C654.791 166.587 645.793 178.791 645.793 193.846C645.793 208.901 654.791 221.105 665.892 221.105Z" fill="white"/>
</mask>
<g mask="url(#mask1_311_2170)">
<path d="M656.536 221.105C667.637 221.105 676.635 208.901 676.635 193.846C676.635 178.791 667.637 166.587 656.536 166.587C645.436 166.587 636.438 178.791 636.438 193.846C636.438 208.901 645.436 221.105 656.536 221.105Z" fill="white"/>
</g>
<path d="M764.295 204.379V110.771C764.295 97.4193 754.504 86.0391 741.286 84.213C729.681 82.5986 714.822 81.196 699.447 81.4739C699.447 81.4739 610.584 26.8492 578.008 26.8492L373.871 25.8038C346.548 25.4333 319.529 31.5865 295.064 43.7606L204.15 89.0033L83.2791 115.469C83.2791 115.469 58.245 122.257 52.873 138.533C47.5142 154.81 49.3005 172.7 49.3005 172.7H314.779C314.779 172.7 326.74 135.08 365.019 135.08C403.298 135.08 413.672 181.249 411.277 204.379H611.854C611.854 204.379 611.06 135.781 662.902 138.176C714.743 140.571 710.76 204.379 710.76 204.379H764.309" fill="#FFDA44"/>
<mask id="mask2_311_2170" style="mask-type:luminance" maskUnits="userSpaceOnUse" x="49" y="25" width="716" height="180">
<path d="M764.295 204.379V110.771C764.295 97.4193 754.504 86.0391 741.286 84.213C729.681 82.5986 714.822 81.196 699.447 81.4739C699.447 81.4739 610.584 26.8492 578.008 26.8492L373.871 25.8038C346.548 25.4333 319.529 31.5865 295.064 43.7606L204.15 89.0033L83.2791 115.469C83.2791 115.469 58.245 122.257 52.873 138.533C47.5142 154.81 49.3005 172.7 49.3005 172.7H314.779C314.779 172.7 326.74 135.08 365.019 135.08C403.298 135.08 413.672 181.249 411.277 204.379H611.854C611.854 204.379 611.06 135.781 662.902 138.176C714.743 140.571 710.76 204.379 710.76 204.379H764.309" fill="white"/>
</mask>
<g mask="url(#mask2_311_2170)">
<path d="M415.63 67.8177L274.145 142.768L0 142.45L240.788 25.7773L284.241 79.3434L415.63 67.8177Z" fill="#FFED9C"/>
</g>
<path d="M762.324 172.7C769.323 172.7 774.986 178.364 775 185.364V191.716C775 198.716 769.337 204.379 762.337 204.379H710.747C710.747 204.379 711.012 187.111 706.434 172.7H762.324Z" fill="#FFBE32"/>
<path d="M543.131 26.8492L440.017 26.8492V11.9491C440.017 5.35925 445.376 1.90735e-06 451.965 1.90735e-06L531.183 1.90735e-06C537.772 1.90735e-06 543.131 5.35925 543.131 11.9491V26.8492Z" fill="black"/>
<path d="M527.729 26.8492L424.615 26.8492V11.9491C424.615 5.35925 429.974 1.90735e-06 436.563 1.90735e-06L515.78 1.90735e-06C522.37 1.90735e-06 527.729 5.35925 527.729 11.9491V26.8492Z" fill="#F7F7F7"/>
<path d="M412.058 85.2452L492.731 39.8702C499.585 36.0195 507.312 33.9949 515.172 33.9949H563.202C575.627 33.9949 587.813 37.5015 598.332 44.1311L674.969 87.6271C677.153 88.8709 676.279 92.2056 673.765 92.2056H413.884C410.06 92.2056 408.737 87.1242 412.058 85.2584V85.2452Z" fill="black"/>
<mask id="mask3_311_2170" style="mask-type:luminance" maskUnits="userSpaceOnUse" x="410" y="33" width="267" height="60">
<path d="M412.058 85.2452L492.731 39.8702C499.585 36.0195 507.312 33.9949 515.172 33.9949H563.202C575.627 33.9949 587.813 37.5015 598.332 44.1311L674.969 87.6271C677.153 88.8709 676.279 92.2056 673.765 92.2056H413.884C410.06 92.2056 408.737 87.1242 412.058 85.2584V85.2452Z" fill="white"/>
</mask>
<g mask="url(#mask3_311_2170)">
<path d="M673.62 31.2822L508.054 125.327H441.406L606.933 31.2822H673.62Z" fill="#5E5E5E"/>
</g>
<path d="M544.295 92.1923C544.295 92.1923 561.059 99.6291 552.935 188.54H597.962C601.654 141.233 628.898 129.945 628.898 129.945V92.1923H544.295Z" fill="#D51A06"/>
<path d="M518.452 107.953H534.595C536.363 107.953 537.797 106.519 537.797 104.75V103.268C537.797 101.5 536.363 100.066 534.595 100.066H518.452C516.684 100.066 515.25 101.5 515.25 103.268V104.75C515.25 106.519 516.684 107.953 518.452 107.953Z" fill="black"/>
<path d="M639.773 107.953H655.915C657.684 107.953 659.117 106.519 659.117 104.75V103.268C659.117 101.5 657.684 100.066 655.915 100.066H639.773C638.004 100.066 636.571 101.5 636.571 103.268V104.75C636.571 106.519 638.004 107.953 639.773 107.953Z" fill="black"/>
<path d="M462.06 43.1651L369.73 92.1923H212.764L318.365 40.5451C327.204 36.218 336.916 33.9816 346.747 33.9816H459.784C464.865 33.9816 466.559 40.7832 462.073 43.1651H462.06Z" fill="black"/>
<path d="M346.799 100.066H201.49" stroke="black" stroke-width="0.79" stroke-linecap="round" stroke-linejoin="round"/>
<path d="M432.156 33.9816L329.665 92.1923H295.461L397.926 33.9816H432.156Z" fill="#5E5E5E"/>
<path d="M368.313 33.9816L265.822 92.1923H254.707L357.159 33.9816H368.313Z" fill="#5E5E5E"/>
<path d="M64.8617 204.379H302.13C309.13 204.379 314.793 198.702 314.793 191.716L314.767 172.713H49.2881L49.4998 189.029C49.4998 197.511 56.3802 204.393 64.8617 204.393V204.379Z" fill="#FFBE32"/>
<path d="M126.455 181.804H169.523V168.77H126.455V181.804Z" fill="white"/>
<path d="M220.596 142.781H93.6523" stroke="black" stroke-width="0.79" stroke-linecap="round" stroke-linejoin="round"/>
<path d="M197.429 152.481H113.99" stroke="black" stroke-width="0.79" stroke-linecap="round" stroke-linejoin="round"/>
<path d="M197.429 162.14H113.99" stroke="black" stroke-width="0.79" stroke-linecap="round" stroke-linejoin="round"/>
<path d="M215.317 163.596H270.718C275.402 163.596 279.199 159.798 279.199 155.114V147.174C279.199 142.49 275.402 138.692 270.718 138.692H215.317C210.633 138.692 206.836 142.49 206.836 147.174V155.114C206.836 159.798 210.633 163.596 215.317 163.596Z" fill="white"/>
<path d="M52.7807 138.679H94.8042C99.4882 138.679 103.286 142.477 103.286 147.161V155.114C103.286 159.798 99.4882 163.596 94.8042 163.596H48.9965C48.626 146.87 52.2118 139.711 52.7807 138.692V138.679Z" fill="white"/>
<path d="M279.186 155.114H206.822" stroke="black" stroke-width="0.79" stroke-linecap="round" stroke-linejoin="round"/>
<path d="M103.286 155.114H49.2881" stroke="black" stroke-width="0.79" stroke-linecap="round" stroke-linejoin="round"/>
<path d="M463.793 6.12677L461.16 15.8925C460.763 16.9776 460.287 18.0097 459.612 18.9493C457.217 22.2442 452.997 23.3028 449.106 23.4616L448.815 19.8888C451.197 19.6241 453.605 18.5788 454.293 16.091H448.551L447.492 6.15324H463.793V6.12677Z" fill="#D51A06"/>
<path d="M472.924 11.4595L473.215 16.2101L475.914 11.4595H479.937L474.088 20.6298C472.633 22.9323 470.344 23.9644 467.658 23.1837C467.459 23.1308 466.705 22.8794 466.705 22.6809L468.094 19.9417C468.346 20.1137 469.801 20.7489 469.92 20.3387L469.126 11.4728H472.924V11.4595Z" fill="#D51A06"/>
<path d="M484.963 11.2611C492.492 10.5333 491.42 21.4238 484.143 20.8813C478.096 20.4313 479.128 11.8301 484.963 11.2611ZM486.207 14.7016C486.128 14.6222 485.784 14.4237 485.664 14.3972C483.428 13.9208 482.754 18.2479 485.281 17.7054C486.379 17.4672 486.988 15.4691 486.207 14.6883V14.7016Z" fill="#D51A06"/>
<path d="M496.318 11.4595L496.939 13.2856L498.474 11.4595H502.603L498.368 16.1175L500.181 20.6695H496.238L495.696 18.764L494.081 20.6695H489.953L494.187 15.9454L492.441 11.4595H496.318Z" fill="#D51A06"/>
<path d="M508.291 11.4595L505.817 20.6695H502.006L504.427 11.4595H508.291Z" fill="#D51A06"/>
<path d="M507.325 6.07382C510.263 5.67684 509.866 9.75251 507.431 10.1363C504.322 10.6259 504.732 6.4311 507.325 6.07382Z" fill="#D51A06"/>
<path d="M524.911 122.442L525.586 133.293L531.765 122.442H540.947L527.597 143.403C524.276 148.67 519.049 151.012 512.897 149.239C512.447 149.106 510.74 148.537 510.727 148.074L513.902 141.802C514.471 142.199 517.792 143.654 518.057 142.702L516.231 122.442H524.911Z" fill="white"/>
<path d="M552.42 121.992C569.621 120.312 567.186 145.203 550.541 143.985C536.727 142.966 539.069 123.302 552.42 121.992ZM555.238 129.839C555.053 129.654 554.259 129.204 554.008 129.151C548.913 128.079 547.365 137.951 553.134 136.72C555.648 136.178 557.024 131.626 555.238 129.839Z" fill="white"/>
<path d="M578.341 122.442L579.757 126.611L583.263 122.442H592.697L583.038 133.081L587.179 143.469H578.169L576.912 139.129L573.247 143.469H563.812L573.472 132.671L569.489 122.442H578.341Z" fill="white"/>
<path d="M605.716 122.442L600.039 143.469H591.359L596.864 122.442H605.716Z" fill="white"/>
<path d="M603.507 110.123C610.202 109.21 609.329 118.512 603.758 119.386C596.666 120.497 597.593 110.93 603.507 110.123Z" fill="white"/>
<path d="M628.91 92.1923C628.91 92.1923 633.144 104.128 634.203 127.153L628.91 129.932V92.1791V92.1923Z" fill="#D51A06"/>
<path d="M675.471 89.4929V122.045C675.471 122.045 605.092 107.873 597.961 188.54H437.21C437.21 188.54 441.51 109.686 411.832 90.4589" stroke="black" stroke-width="0.79" stroke-linecap="round" stroke-linejoin="round"/>
</g>
<defs>
<clipPath id="clip0_311_2170">
<rect width="775" height="249" fill="white"/>
</clipPath>
</defs>
</svg>
