<svg viewBox="0 0 554 126" fill="none" xmlns="http://www.w3.org/2000/svg">
<path d="M501 24H53C25.9381 24 4 45.938 4 73C4 100.062 25.9381 122 53 122H501C528.062 122 550 100.062 550 73C550 45.938 528.062 24 501 24Z" fill="url(#paint0_radial_286_3287)" stroke="#FFCC00" stroke-width="8" stroke-miterlimit="10"/>
<mask id="path-2-outside-1_286_3287" maskUnits="userSpaceOnUse" x="177" y="-2" width="201" height="46" fill="black">
<rect fill="white" x="177" y="-2" width="201" height="46"/>
<path d="M225.45 2.4V32.35C225.45 34.75 225.25 36.4167 224.85 37.35C224.483 38.25 223.6 38.8667 222.2 39.2C220.8 39.5333 218.333 39.6833 214.8 39.65C214.733 37.2833 214.55 35.1333 214.25 33.2H211.65V39.45H203.35V33.2H200.65C200.417 34.6 200.05 35.8167 199.55 36.85L198.95 38.15C198.683 38.9167 198.35 39.5167 197.95 39.95C196.417 39.2167 195 38.6167 193.7 38.15C192.433 37.65 191.15 37.3 189.85 37.1V39.7H179.55V2.4H202.05V19.65H189.85V36.4C190.917 35.6333 191.7 34.8 192.2 33.9L192.55 33.2H190.6V27.15H193.25V26.05H190.6V20.45H214.3V26.05H211.65V27.15H214.3V29.7C214.633 29.6667 214.85 29.5333 214.95 29.3C215.083 29.0667 215.15 28.6167 215.15 27.95V19.65H203V2.4H225.45ZM193.75 7.9H189.85V8.9H193.75V7.9ZM211.25 7.9V8.9H215.15V7.9H211.25ZM193.75 13.8V12.75H189.85V13.8H193.75ZM211.25 13.8H215.15V12.75H211.25V13.8ZM203.35 27.15V26.05H201.1L201.05 27.15H203.35ZM239.85 20.55V22.2H264.6V20.55H239.85ZM239.95 12.6H275.05V30.1H239.45C239.417 30.5 239.383 30.8833 239.35 31.25C239.083 33.4833 238.817 35.4167 238.55 37.05L238.15 40.05C236.583 39.3167 234.933 38.75 233.2 38.35C231.467 37.9167 229.5 37.5667 227.3 37.3C228.233 34.5667 228.833 31.8833 229.1 29.25C229.367 26.6167 229.5 23.8667 229.5 21V3.25C245 2.91666 260.567 2.41666 276.2 1.75C275.833 3.18333 275.6 4.45 275.5 5.55C275.433 6.65 275.4 8.56667 275.4 11.3H261.75C252.05 11.3 244.783 11.3333 239.95 11.4V12.6ZM326.25 23.7C326.417 26.5333 326.5 28.3833 326.5 29.25C326.5 30.6167 326.383 32.1667 326.15 33.9C325.617 38.0667 323.817 40.15 320.75 40.15C319.317 40.15 317.7 39.65 315.9 38.65C314.133 37.65 312.433 36.0333 310.8 33.8C307.733 36.5 304.6 38.6833 301.4 40.35C299.567 39.1833 297.883 38.1833 296.35 37.35C294.85 36.5167 293 35.6667 290.8 34.8C293.367 33.7667 295.9 32.6333 298.4 31.4C296.833 32 294.733 32.4333 292.1 32.7C291.833 30.6667 291.483 28.9667 291.05 27.6C290.883 32.4667 290.45 36.7167 289.75 40.35C285.15 38.8167 281.1 37.7667 277.6 37.2C278.333 35.3 278.85 33.3333 279.15 31.3C279.45 29.2333 279.633 26.8167 279.7 24.05C279.8 21.25 279.85 16.9333 279.85 11.1V3.05H302.7V1.5H312.95L312.85 3.1H315.3L317 0.549998C318.667 1.11667 320.433 1.96667 322.3 3.1H325.75L325.6 12.4H319.1C321 12.9 323.15 13.3667 325.55 13.8C324.483 16.3 323 19 321.1 21.9C322.7 22.7 324.417 23.3 326.25 23.7ZM300.2 30.4C302.7 29.0333 304.833 27.5667 306.6 26C305.033 22.0333 303.933 17.5 303.3 12.4H291.15V13.8H303.15V22.9C303.15 24.7667 302.917 26.3 302.45 27.5C301.983 28.7 301.233 29.6667 300.2 30.4ZM313.85 16.5C314.283 15.6667 314.933 14.3 315.8 12.4H313.2C313.333 13.5667 313.55 14.9333 313.85 16.5ZM293.3 23.3C293.367 23.2 293.45 23.0833 293.55 22.95C293.65 22.7833 293.717 22.5667 293.75 22.3C293.783 22 293.8 21.6167 293.8 21.15H291.15C291.15 22.4167 291.133 23.35 291.1 23.95C292.367 23.85 293.1 23.6333 293.3 23.3ZM320.1 28.2C320.167 28.2 320.2 28.05 320.2 27.75C320.2 26.85 320.05 25.5333 319.75 23.8C319.383 24.3333 318.8 25.1 318 26.1C318.867 27.3 319.567 28 320.1 28.2ZM375.75 3.15V29.7C375.75 33 375.45 35.35 374.85 36.75C374.25 38.1167 373.083 39.0333 371.35 39.5C369.617 39.9333 366.683 40.15 362.55 40.15C362.283 37.65 361.983 35.5833 361.65 33.95C361.35 32.2833 360.817 30.65 360.05 29.05L359.45 30.2C356.517 35.5333 351.95 38.9333 345.75 40.4C344.217 38.0667 342.35 36.1167 340.15 34.55C336.45 35.6167 332.6 36.4833 328.6 37.15C328.333 32.2167 327.95 28.3167 327.45 25.45C328.517 25.35 330.083 25.1667 332.15 24.9V14.95H328.5V3.95H345.85V14.95H342.6V23L346.45 22.1C346.25 23.7667 346.15 25.85 346.15 28.35C347.583 27.3833 348.7 26.3 349.5 25.1C350.167 24.0667 350.617 22.6 350.85 20.7C351.117 18.8 351.233 16.3667 351.2 13.4H346.65V3.15H351C350.967 2.78333 350.95 2.25 350.95 1.55H362.8V3.15H375.75ZM364.3 13.4H362.6C362.467 16.8333 362.217 19.8 361.85 22.3C361.483 24.7667 360.933 26.8833 360.2 28.65C361.4 28.7167 362.117 28.75 362.35 28.75C363.217 28.75 363.75 28.6833 363.95 28.55C364.183 28.3833 364.3 28.0833 364.3 27.65V13.4Z"/>
</mask>
<path d="M225.45 2.4V32.35C225.45 34.75 225.25 36.4167 224.85 37.35C224.483 38.25 223.6 38.8667 222.2 39.2C220.8 39.5333 218.333 39.6833 214.8 39.65C214.733 37.2833 214.55 35.1333 214.25 33.2H211.65V39.45H203.35V33.2H200.65C200.417 34.6 200.05 35.8167 199.55 36.85L198.95 38.15C198.683 38.9167 198.35 39.5167 197.95 39.95C196.417 39.2167 195 38.6167 193.7 38.15C192.433 37.65 191.15 37.3 189.85 37.1V39.7H179.55V2.4H202.05V19.65H189.85V36.4C190.917 35.6333 191.7 34.8 192.2 33.9L192.55 33.2H190.6V27.15H193.25V26.05H190.6V20.45H214.3V26.05H211.65V27.15H214.3V29.7C214.633 29.6667 214.85 29.5333 214.95 29.3C215.083 29.0667 215.15 28.6167 215.15 27.95V19.65H203V2.4H225.45ZM193.75 7.9H189.85V8.9H193.75V7.9ZM211.25 7.9V8.9H215.15V7.9H211.25ZM193.75 13.8V12.75H189.85V13.8H193.75ZM211.25 13.8H215.15V12.75H211.25V13.8ZM203.35 27.15V26.05H201.1L201.05 27.15H203.35ZM239.85 20.55V22.2H264.6V20.55H239.85ZM239.95 12.6H275.05V30.1H239.45C239.417 30.5 239.383 30.8833 239.35 31.25C239.083 33.4833 238.817 35.4167 238.55 37.05L238.15 40.05C236.583 39.3167 234.933 38.75 233.2 38.35C231.467 37.9167 229.5 37.5667 227.3 37.3C228.233 34.5667 228.833 31.8833 229.1 29.25C229.367 26.6167 229.5 23.8667 229.5 21V3.25C245 2.91666 260.567 2.41666 276.2 1.75C275.833 3.18333 275.6 4.45 275.5 5.55C275.433 6.65 275.4 8.56667 275.4 11.3H261.75C252.05 11.3 244.783 11.3333 239.95 11.4V12.6ZM326.25 23.7C326.417 26.5333 326.5 28.3833 326.5 29.25C326.5 30.6167 326.383 32.1667 326.15 33.9C325.617 38.0667 323.817 40.15 320.75 40.15C319.317 40.15 317.7 39.65 315.9 38.65C314.133 37.65 312.433 36.0333 310.8 33.8C307.733 36.5 304.6 38.6833 301.4 40.35C299.567 39.1833 297.883 38.1833 296.35 37.35C294.85 36.5167 293 35.6667 290.8 34.8C293.367 33.7667 295.9 32.6333 298.4 31.4C296.833 32 294.733 32.4333 292.1 32.7C291.833 30.6667 291.483 28.9667 291.05 27.6C290.883 32.4667 290.45 36.7167 289.75 40.35C285.15 38.8167 281.1 37.7667 277.6 37.2C278.333 35.3 278.85 33.3333 279.15 31.3C279.45 29.2333 279.633 26.8167 279.7 24.05C279.8 21.25 279.85 16.9333 279.85 11.1V3.05H302.7V1.5H312.95L312.85 3.1H315.3L317 0.549998C318.667 1.11667 320.433 1.96667 322.3 3.1H325.75L325.6 12.4H319.1C321 12.9 323.15 13.3667 325.55 13.8C324.483 16.3 323 19 321.1 21.9C322.7 22.7 324.417 23.3 326.25 23.7ZM300.2 30.4C302.7 29.0333 304.833 27.5667 306.6 26C305.033 22.0333 303.933 17.5 303.3 12.4H291.15V13.8H303.15V22.9C303.15 24.7667 302.917 26.3 302.45 27.5C301.983 28.7 301.233 29.6667 300.2 30.4ZM313.85 16.5C314.283 15.6667 314.933 14.3 315.8 12.4H313.2C313.333 13.5667 313.55 14.9333 313.85 16.5ZM293.3 23.3C293.367 23.2 293.45 23.0833 293.55 22.95C293.65 22.7833 293.717 22.5667 293.75 22.3C293.783 22 293.8 21.6167 293.8 21.15H291.15C291.15 22.4167 291.133 23.35 291.1 23.95C292.367 23.85 293.1 23.6333 293.3 23.3ZM320.1 28.2C320.167 28.2 320.2 28.05 320.2 27.75C320.2 26.85 320.05 25.5333 319.75 23.8C319.383 24.3333 318.8 25.1 318 26.1C318.867 27.3 319.567 28 320.1 28.2ZM375.75 3.15V29.7C375.75 33 375.45 35.35 374.85 36.75C374.25 38.1167 373.083 39.0333 371.35 39.5C369.617 39.9333 366.683 40.15 362.55 40.15C362.283 37.65 361.983 35.5833 361.65 33.95C361.35 32.2833 360.817 30.65 360.05 29.05L359.45 30.2C356.517 35.5333 351.95 38.9333 345.75 40.4C344.217 38.0667 342.35 36.1167 340.15 34.55C336.45 35.6167 332.6 36.4833 328.6 37.15C328.333 32.2167 327.95 28.3167 327.45 25.45C328.517 25.35 330.083 25.1667 332.15 24.9V14.95H328.5V3.95H345.85V14.95H342.6V23L346.45 22.1C346.25 23.7667 346.15 25.85 346.15 28.35C347.583 27.3833 348.7 26.3 349.5 25.1C350.167 24.0667 350.617 22.6 350.85 20.7C351.117 18.8 351.233 16.3667 351.2 13.4H346.65V3.15H351C350.967 2.78333 350.95 2.25 350.95 1.55H362.8V3.15H375.75ZM364.3 13.4H362.6C362.467 16.8333 362.217 19.8 361.85 22.3C361.483 24.7667 360.933 26.8833 360.2 28.65C361.4 28.7167 362.117 28.75 362.35 28.75C363.217 28.75 363.75 28.6833 363.95 28.55C364.183 28.3833 364.3 28.0833 364.3 27.65V13.4Z" fill="#4D4B4B"/>
<path d="M225.45 2.4H227.45V0.399998H225.45V2.4ZM224.85 37.35L223.012 36.5622L223.005 36.5787L222.998 36.5954L224.85 37.35ZM222.2 39.2L221.737 37.2544L222.2 39.2ZM214.8 39.65L212.801 39.7063L212.855 41.6317L214.781 41.6499L214.8 39.65ZM214.25 33.2L216.226 32.8933L215.964 31.2H214.25V33.2ZM211.65 33.2V31.2H209.65V33.2H211.65ZM211.65 39.45V41.45H213.65V39.45H211.65ZM203.35 39.45H201.35V41.45H203.35V39.45ZM203.35 33.2H205.35V31.2H203.35V33.2ZM200.65 33.2V31.2H198.956L198.677 32.8712L200.65 33.2ZM199.55 36.85L197.75 35.9789L197.742 35.9953L197.734 36.0119L199.55 36.85ZM198.95 38.15L197.134 37.3119L197.093 37.4006L197.061 37.493L198.95 38.15ZM197.95 39.95L197.087 41.7543L198.419 42.391L199.42 41.3066L197.95 39.95ZM193.7 38.15L192.966 40.0103L192.995 40.0218L193.024 40.0324L193.7 38.15ZM189.85 37.1L190.154 35.1233L187.85 34.7688V37.1H189.85ZM189.85 39.7V41.7H191.85V39.7H189.85ZM179.55 39.7H177.55V41.7H179.55V39.7ZM179.55 2.4V0.399998H177.55V2.4H179.55ZM202.05 2.4H204.05V0.399998H202.05V2.4ZM202.05 19.65V21.65H204.05V19.65H202.05ZM189.85 19.65V17.65H187.85V19.65H189.85ZM189.85 36.4H187.85V40.3005L191.017 38.024L189.85 36.4ZM192.2 33.9L193.948 34.8713L193.969 34.8333L193.989 34.7944L192.2 33.9ZM192.55 33.2L194.339 34.0944L195.786 31.2H192.55V33.2ZM190.6 33.2H188.6V35.2H190.6V33.2ZM190.6 27.15V25.15H188.6V27.15H190.6ZM193.25 27.15V29.15H195.25V27.15H193.25ZM193.25 26.05H195.25V24.05H193.25V26.05ZM190.6 26.05H188.6V28.05H190.6V26.05ZM190.6 20.45V18.45H188.6V20.45H190.6ZM214.3 20.45H216.3V18.45H214.3V20.45ZM214.3 26.05V28.05H216.3V26.05H214.3ZM211.65 26.05V24.05H209.65V26.05H211.65ZM211.65 27.15H209.65V29.15H211.65V27.15ZM214.3 27.15H216.3V25.15H214.3V27.15ZM214.3 29.7H212.3V31.91L214.499 31.6901L214.3 29.7ZM214.95 29.3L213.214 28.3077L213.157 28.407L213.112 28.5122L214.95 29.3ZM215.15 19.65H217.15V17.65H215.15V19.65ZM203 19.65H201V21.65H203V19.65ZM203 2.4V0.399998H201V2.4H203ZM193.75 7.9H195.75V5.9H193.75V7.9ZM189.85 7.9V5.9H187.85V7.9H189.85ZM189.85 8.9H187.85V10.9H189.85V8.9ZM193.75 8.9V10.9H195.75V8.9H193.75ZM211.25 7.9V5.9H209.25V7.9H211.25ZM211.25 8.9H209.25V10.9H211.25V8.9ZM215.15 8.9V10.9H217.15V8.9H215.15ZM215.15 7.9H217.15V5.9H215.15V7.9ZM193.75 13.8V15.8H195.75V13.8H193.75ZM193.75 12.75H195.75V10.75H193.75V12.75ZM189.85 12.75V10.75H187.85V12.75H189.85ZM189.85 13.8H187.85V15.8H189.85V13.8ZM211.25 13.8H209.25V15.8H211.25V13.8ZM215.15 13.8V15.8H217.15V13.8H215.15ZM215.15 12.75H217.15V10.75H215.15V12.75ZM211.25 12.75V10.75H209.25V12.75H211.25ZM203.35 27.15V29.15H205.35V27.15H203.35ZM203.35 26.05H205.35V24.05H203.35V26.05ZM201.1 26.05V24.05H199.189L199.102 25.9592L201.1 26.05ZM201.05 27.15L199.052 27.0592L198.957 29.15H201.05V27.15ZM223.45 2.4V32.35H227.45V2.4H223.45ZM223.45 32.35C223.45 34.7506 223.234 36.0433 223.012 36.5622L226.688 38.1378C227.266 36.7901 227.45 34.7494 227.45 32.35H223.45ZM222.998 36.5954C222.976 36.6486 222.826 36.995 221.737 37.2544L222.663 41.1456C224.374 40.7383 225.991 39.8514 226.702 38.1046L222.998 36.5954ZM221.737 37.2544C220.601 37.5249 218.357 37.6835 214.819 37.6501L214.781 41.6499C218.31 41.6832 220.999 41.5418 222.663 41.1456L221.737 37.2544ZM216.799 39.5937C216.731 37.1599 216.542 34.9246 216.226 32.8933L212.274 33.5067C212.558 35.3421 212.736 37.4067 212.801 39.7063L216.799 39.5937ZM214.25 31.2H211.65V35.2H214.25V31.2ZM209.65 33.2V39.45H213.65V33.2H209.65ZM211.65 37.45H203.35V41.45H211.65V37.45ZM205.35 39.45V33.2H201.35V39.45H205.35ZM203.35 31.2H200.65V35.2H203.35V31.2ZM198.677 32.8712C198.468 34.1256 198.15 35.1521 197.75 35.9789L201.35 37.7211C201.95 36.4813 202.365 35.0744 202.623 33.5288L198.677 32.8712ZM197.734 36.0119L197.134 37.3119L200.766 38.9881L201.366 37.6881L197.734 36.0119ZM197.061 37.493C196.853 38.0917 196.638 38.4228 196.48 38.5934L199.42 41.3066C200.062 40.6106 200.514 39.7417 200.839 38.807L197.061 37.493ZM198.813 38.1457C197.232 37.3896 195.752 36.7616 194.376 36.2676L193.024 40.0324C194.248 40.4717 195.601 41.0438 197.087 41.7543L198.813 38.1457ZM194.434 36.2897C193.034 35.7369 191.607 35.3467 190.154 35.1233L189.546 39.0767C190.693 39.2533 191.833 39.5631 192.966 40.0103L194.434 36.2897ZM187.85 37.1V39.7H191.85V37.1H187.85ZM189.85 37.7H179.55V41.7H189.85V37.7ZM181.55 39.7V2.4H177.55V39.7H181.55ZM179.55 4.4H202.05V0.399998H179.55V4.4ZM200.05 2.4V19.65H204.05V2.4H200.05ZM202.05 17.65H189.85V21.65H202.05V17.65ZM187.85 19.65V36.4H191.85V19.65H187.85ZM191.017 38.024C192.26 37.1312 193.271 36.0899 193.948 34.8713L190.452 32.9287C190.129 33.5101 189.574 34.1355 188.683 34.776L191.017 38.024ZM193.989 34.7944L194.339 34.0944L190.761 32.3056L190.411 33.0056L193.989 34.7944ZM192.55 31.2H190.6V35.2H192.55V31.2ZM192.6 33.2V27.15H188.6V33.2H192.6ZM190.6 29.15H193.25V25.15H190.6V29.15ZM195.25 27.15V26.05H191.25V27.15H195.25ZM193.25 24.05H190.6V28.05H193.25V24.05ZM192.6 26.05V20.45H188.6V26.05H192.6ZM190.6 22.45H214.3V18.45H190.6V22.45ZM212.3 20.45V26.05H216.3V20.45H212.3ZM214.3 24.05H211.65V28.05H214.3V24.05ZM209.65 26.05V27.15H213.65V26.05H209.65ZM211.65 29.15H214.3V25.15H211.65V29.15ZM212.3 27.15V29.7H216.3V27.15H212.3ZM214.499 31.6901C215.29 31.611 216.309 31.2052 216.788 30.0878L213.112 28.5122C213.225 28.2486 213.422 28.0208 213.664 27.8717C213.882 27.7378 214.058 27.7142 214.101 27.7099L214.499 31.6901ZM216.686 30.2923C216.933 29.8603 217.03 29.4052 217.078 29.0806C217.131 28.7252 217.15 28.3407 217.15 27.95H213.15C213.15 28.2259 213.136 28.3998 213.122 28.4944C213.115 28.5397 213.111 28.5455 213.118 28.5226C213.124 28.5032 213.149 28.4209 213.214 28.3077L216.686 30.2923ZM217.15 27.95V19.65H213.15V27.95H217.15ZM215.15 17.65H203V21.65H215.15V17.65ZM205 19.65V2.4H201V19.65H205ZM203 4.4H225.45V0.399998H203V4.4ZM193.75 5.9H189.85V9.9H193.75V5.9ZM187.85 7.9V8.9H191.85V7.9H187.85ZM189.85 10.9H193.75V6.9H189.85V10.9ZM195.75 8.9V7.9H191.75V8.9H195.75ZM209.25 7.9V8.9H213.25V7.9H209.25ZM211.25 10.9H215.15V6.9H211.25V10.9ZM217.15 8.9V7.9H213.15V8.9H217.15ZM215.15 5.9H211.25V9.9H215.15V5.9ZM195.75 13.8V12.75H191.75V13.8H195.75ZM193.75 10.75H189.85V14.75H193.75V10.75ZM187.85 12.75V13.8H191.85V12.75H187.85ZM189.85 15.8H193.75V11.8H189.85V15.8ZM211.25 15.8H215.15V11.8H211.25V15.8ZM217.15 13.8V12.75H213.15V13.8H217.15ZM215.15 10.75H211.25V14.75H215.15V10.75ZM209.25 12.75V13.8H213.25V12.75H209.25ZM205.35 27.15V26.05H201.35V27.15H205.35ZM203.35 24.05H201.1V28.05H203.35V24.05ZM199.102 25.9592L199.052 27.0592L203.048 27.2408L203.098 26.1408L199.102 25.9592ZM201.05 29.15H203.35V25.15H201.05V29.15ZM239.85 20.55V18.55H237.85V20.55H239.85ZM239.85 22.2H237.85V24.2H239.85V22.2ZM264.6 22.2V24.2H266.6V22.2H264.6ZM264.6 20.55H266.6V18.55H264.6V20.55ZM239.95 12.6H237.95V14.6H239.95V12.6ZM275.05 12.6H277.05V10.6H275.05V12.6ZM275.05 30.1V32.1H277.05V30.1H275.05ZM239.45 30.1V28.1H237.61L237.457 29.9339L239.45 30.1ZM239.35 31.25L241.336 31.4871L241.339 31.4591L241.342 31.4311L239.35 31.25ZM238.55 37.05L236.576 36.7277L236.571 36.7566L236.568 36.7857L238.55 37.05ZM238.15 40.05L237.302 41.8614L239.772 43.0175L240.132 40.3143L238.15 40.05ZM233.2 38.35L232.715 40.2903L232.733 40.2947L232.75 40.2988L233.2 38.35ZM227.3 37.3L225.407 36.6537L224.61 38.9886L227.059 39.2855L227.3 37.3ZM229.5 3.25L229.457 1.25046L227.5 1.29255V3.25H229.5ZM276.2 1.75L278.138 2.24566L278.805 -0.362904L276.115 -0.248186L276.2 1.75ZM275.5 5.55L273.508 5.36893L273.505 5.39893L273.504 5.42901L275.5 5.55ZM275.4 11.3V13.3H277.4V11.3H275.4ZM239.95 11.4L239.922 9.40019L237.95 9.42739V11.4H239.95ZM237.85 20.55V22.2H241.85V20.55H237.85ZM239.85 24.2H264.6V20.2H239.85V24.2ZM266.6 22.2V20.55H262.6V22.2H266.6ZM264.6 18.55H239.85V22.55H264.6V18.55ZM239.95 14.6H275.05V10.6H239.95V14.6ZM273.05 12.6V30.1H277.05V12.6H273.05ZM275.05 28.1H239.45V32.1H275.05V28.1ZM237.457 29.9339C237.424 30.3294 237.391 30.7077 237.358 31.0689L241.342 31.4311C241.376 31.059 241.409 30.6706 241.443 30.2661L237.457 29.9339ZM237.364 31.0129C237.1 33.2271 236.837 35.1307 236.576 36.7277L240.524 37.3723C240.796 35.7027 241.067 33.7396 241.336 31.4871L237.364 31.0129ZM236.568 36.7857L236.168 39.7857L240.132 40.3143L240.532 37.3143L236.568 36.7857ZM238.998 38.2386C237.3 37.4439 235.516 36.832 233.65 36.4012L232.75 40.2988C234.35 40.668 235.867 41.1894 237.302 41.8614L238.998 38.2386ZM233.685 36.4097C231.855 35.9522 229.804 35.5889 227.541 35.3145L227.059 39.2855C229.196 39.5444 231.078 39.8812 232.715 40.2903L233.685 36.4097ZM229.193 37.9463C230.171 35.0818 230.806 32.2494 231.09 29.4515L227.11 29.0485C226.86 31.5173 226.296 34.0515 225.407 36.6537L229.193 37.9463ZM231.09 29.4515C231.364 26.746 231.5 23.9285 231.5 21H227.5C227.5 23.8049 227.37 26.4874 227.11 29.0485L231.09 29.4515ZM231.5 21V3.25H227.5V21H231.5ZM229.543 5.24954C245.057 4.9159 260.638 4.41544 276.285 3.74818L276.115 -0.248186C260.495 0.417886 244.943 0.917432 229.457 1.25046L229.543 5.24954ZM274.262 1.25433C273.878 2.75863 273.62 4.13408 273.508 5.36893L277.492 5.73107C277.58 4.76591 277.789 3.60803 278.138 2.24566L274.262 1.25433ZM273.504 5.42901C273.433 6.59629 273.4 8.56797 273.4 11.3H277.4C277.4 8.56537 277.434 6.70371 277.496 5.67099L273.504 5.42901ZM275.4 9.3H261.75V13.3H275.4V9.3ZM261.75 9.3C252.048 9.3 244.77 9.33333 239.922 9.40019L239.978 13.3998C244.797 13.3333 252.052 13.3 261.75 13.3V9.3ZM237.95 11.4V12.6H241.95V11.4H237.95ZM326.25 23.7L328.247 23.5826L328.158 22.0691L326.676 21.746L326.25 23.7ZM326.15 33.9L324.168 33.6332L324.166 33.6461L326.15 33.9ZM315.9 38.65L314.915 40.3905L314.922 40.3944L314.929 40.3983L315.9 38.65ZM310.8 33.8L312.414 32.6194L311.122 30.852L309.478 32.2989L310.8 33.8ZM301.4 40.35L300.326 42.0373L301.3 42.657L302.324 42.1238L301.4 40.35ZM296.35 37.35L295.379 39.0983L295.387 39.1028L295.395 39.1073L296.35 37.35ZM290.8 34.8L290.053 32.9447L285.395 34.8202L290.067 36.6608L290.8 34.8ZM298.4 31.4L299.285 33.1936L297.685 29.5323L298.4 31.4ZM292.1 32.7L290.117 32.9601L290.369 34.8855L292.302 34.6898L292.1 32.7ZM291.05 27.6L292.956 26.9955L289.051 27.5315L291.05 27.6ZM289.75 40.35L289.118 42.2474L291.282 42.9689L291.714 40.7284L289.75 40.35ZM277.6 37.2L275.734 36.4798L274.846 38.7802L277.28 39.1743L277.6 37.2ZM279.15 31.3L281.129 31.5919L281.129 31.5873L279.15 31.3ZM279.7 24.05L277.701 23.9786L277.701 23.9902L277.701 24.0018L279.7 24.05ZM279.85 3.05V1.05H277.85V3.05H279.85ZM302.7 3.05V5.05H304.7V3.05H302.7ZM302.7 1.5V-0.500002H300.7V1.5H302.7ZM312.95 1.5L314.946 1.62476L315.079 -0.500002H312.95V1.5ZM312.85 3.1L310.854 2.97524L310.721 5.1H312.85V3.1ZM315.3 3.1V5.1H316.37L316.964 4.2094L315.3 3.1ZM317 0.549998L317.644 -1.34355L316.189 -1.83834L315.336 -0.559402L317 0.549998ZM322.3 3.1L321.262 4.80957L321.74 5.1H322.3V3.1ZM325.75 3.1L327.75 3.13225L327.783 1.1H325.75V3.1ZM325.6 12.4V14.4H327.568L327.6 12.4323L325.6 12.4ZM319.1 12.4V10.4L318.591 14.3341L319.1 12.4ZM325.55 13.8L327.39 14.5849L328.374 12.2775L325.905 11.8318L325.55 13.8ZM321.1 21.9L319.427 20.8039L318.195 22.6838L320.206 23.6889L321.1 21.9ZM300.2 30.4L299.043 28.769L301.159 32.1549L300.2 30.4ZM306.6 26L307.927 27.4964L308.974 26.5675L308.46 25.2653L306.6 26ZM303.3 12.4L305.285 12.1535L305.067 10.4H303.3V12.4ZM291.15 12.4V10.4H289.15V12.4H291.15ZM291.15 13.8H289.15V15.8H291.15V13.8ZM303.15 13.8H305.15V11.8H303.15V13.8ZM302.45 27.5L304.314 28.2249V28.2249L302.45 27.5ZM313.85 16.5L311.886 16.8761L312.968 22.5304L315.624 17.4227L313.85 16.5ZM315.8 12.4L317.62 13.23L318.911 10.4H315.8V12.4ZM313.2 12.4V10.4H310.958L311.213 12.6271L313.2 12.4ZM293.3 23.3L291.636 22.1906L291.61 22.2302L291.585 22.271L293.3 23.3ZM293.55 22.95L295.15 24.15L295.212 24.0675L295.265 23.979L293.55 22.95ZM293.75 22.3L295.735 22.5481L295.736 22.5345L295.738 22.5209L293.75 22.3ZM293.8 21.15H295.8V19.15H293.8V21.15ZM291.15 21.15V19.15H289.15V21.15H291.15ZM291.1 23.95L289.103 23.8391L288.976 26.1239L291.257 25.9438L291.1 23.95ZM320.1 28.2L319.398 30.0727L319.737 30.2H320.1V28.2ZM319.75 23.8L321.721 23.4589L320.883 18.6212L318.102 22.6669L319.75 23.8ZM318 26.1L316.438 24.8506L315.488 26.0381L316.379 27.271L318 26.1ZM324.253 23.8174C324.421 26.6644 324.5 28.4531 324.5 29.25H328.5C328.5 28.3135 328.412 26.4023 328.247 23.5826L324.253 23.8174ZM324.5 29.25C324.5 30.5068 324.392 31.9652 324.168 33.6332L328.132 34.1668C328.374 32.3682 328.5 30.7265 328.5 29.25H324.5ZM324.166 33.6461C323.925 35.5305 323.428 36.6538 322.887 37.2799C322.412 37.8287 321.776 38.15 320.75 38.15V42.15C322.79 42.15 324.588 41.4296 325.913 39.8951C327.172 38.4378 327.842 36.4362 328.134 34.1539L324.166 33.6461ZM320.75 38.15C319.773 38.15 318.496 37.8042 316.871 36.9017L314.929 40.3983C316.904 41.4958 318.86 42.15 320.75 42.15V38.15ZM316.885 36.9095C315.438 36.0904 313.937 34.7019 312.414 32.6194L309.186 34.9806C310.929 37.3647 312.829 39.2096 314.915 40.3905L316.885 36.9095ZM309.478 32.2989C306.517 34.9061 303.516 36.9931 300.476 38.5762L302.324 42.1238C305.684 40.3736 308.95 38.0939 312.122 35.3011L309.478 32.2989ZM302.474 38.6627C300.611 37.477 298.887 36.4526 297.305 35.5928L295.395 39.1073C296.88 39.9141 298.523 40.8896 300.326 42.0373L302.474 38.6627ZM297.321 35.6017C295.722 34.7131 293.787 33.827 291.533 32.9392L290.067 36.6608C292.213 37.5064 293.978 38.3202 295.379 39.0983L297.321 35.6017ZM291.547 36.6553C294.161 35.603 296.74 34.4491 299.285 33.1936L297.515 29.6064C295.06 30.8176 292.573 31.9303 290.053 32.9447L291.547 36.6553ZM297.685 29.5323C296.35 30.0436 294.445 30.4523 291.898 30.7102L292.302 34.6898C295.022 34.4143 297.317 33.9564 299.115 33.2677L297.685 29.5323ZM294.083 32.4399C293.807 30.3351 293.437 28.511 292.956 26.9955L289.144 28.2045C289.53 29.4224 289.86 30.9983 290.117 32.9601L294.083 32.4399ZM289.051 27.5315C288.887 32.3246 288.461 36.4667 287.786 39.9716L291.714 40.7284C292.439 36.9667 292.88 32.6087 293.049 27.6685L289.051 27.5315ZM290.382 38.4526C285.715 36.8967 281.556 35.8145 277.92 35.2257L277.28 39.1743C280.644 39.7188 284.585 40.7366 289.118 42.2474L290.382 38.4526ZM279.466 37.9202C280.253 35.8807 280.807 33.7704 281.129 31.5919L277.171 31.0081C276.893 32.8963 276.414 34.7193 275.734 36.4798L279.466 37.9202ZM281.129 31.5873C281.444 29.4207 281.631 26.9209 281.699 24.0982L277.701 24.0018C277.635 26.7125 277.456 29.0459 277.171 31.0127L281.129 31.5873ZM281.699 24.1214C281.8 21.2838 281.85 16.9375 281.85 11.1H277.85C277.85 16.9292 277.8 21.2162 277.701 23.9786L281.699 24.1214ZM281.85 11.1V3.05H277.85V11.1H281.85ZM279.85 5.05H302.7V1.05H279.85V5.05ZM304.7 3.05V1.5H300.7V3.05H304.7ZM302.7 3.5H312.95V-0.500002H302.7V3.5ZM310.954 1.37524L310.854 2.97524L314.846 3.22476L314.946 1.62476L310.954 1.37524ZM312.85 5.1H315.3V1.1H312.85V5.1ZM316.964 4.2094L318.664 1.6594L315.336 -0.559402L313.636 1.9906L316.964 4.2094ZM316.356 2.44354C317.857 2.9538 319.491 3.73449 321.262 4.80957L323.338 1.39042C321.375 0.198845 319.476 -0.720472 317.644 -1.34355L316.356 2.44354ZM322.3 5.1H325.75V1.1H322.3V5.1ZM323.75 3.06774L323.6 12.3677L327.6 12.4323L327.75 3.13225L323.75 3.06774ZM325.6 10.4H319.1V14.4H325.6V10.4ZM318.591 14.3341C320.552 14.8502 322.755 15.3276 325.195 15.7682L325.905 11.8318C323.545 11.4057 321.448 10.9498 319.609 10.4658L318.591 14.3341ZM323.71 13.0151C322.701 15.3819 321.279 17.9771 319.427 20.8039L322.773 22.9961C324.721 20.0229 326.266 17.2181 327.39 14.5849L323.71 13.0151ZM320.206 23.6889C321.961 24.5667 323.836 25.2204 325.824 25.654L326.676 21.746C324.997 21.3796 323.439 20.8333 321.994 20.1111L320.206 23.6889ZM301.159 32.1549C303.765 30.7304 306.028 29.1807 307.927 27.4964L305.273 24.5036C303.639 25.9526 301.635 27.3363 299.241 28.6451L301.159 32.1549ZM308.46 25.2653C306.967 21.4836 305.901 17.1191 305.285 12.1535L301.315 12.6465C301.965 17.8809 303.1 22.583 304.74 26.7347L308.46 25.2653ZM303.3 10.4H291.15V14.4H303.3V10.4ZM289.15 12.4V13.8H293.15V12.4H289.15ZM291.15 15.8H303.15V11.8H291.15V15.8ZM301.15 13.8V22.9H305.15V13.8H301.15ZM301.15 22.9C301.15 24.6207 300.932 25.8853 300.586 26.7751L304.314 28.2249C304.901 26.7147 305.15 24.9127 305.15 22.9H301.15ZM300.586 26.7751C300.259 27.6167 299.751 28.2659 299.043 28.769L301.357 32.031C302.715 31.0674 303.708 29.7833 304.314 28.2249L300.586 26.7751ZM315.624 17.4227C316.083 16.5401 316.752 15.133 317.62 13.23L313.98 11.57C313.115 13.467 312.483 14.7932 312.076 15.5773L315.624 17.4227ZM315.8 10.4H313.2V14.4H315.8V10.4ZM311.213 12.6271C311.354 13.8578 311.579 15.2763 311.886 16.8761L315.814 16.1239C315.521 14.5904 315.313 13.2756 315.187 12.1729L311.213 12.6271ZM294.964 24.4094C295.004 24.3494 295.064 24.2641 295.15 24.15L291.95 21.75C291.836 21.9026 291.729 22.0506 291.636 22.1906L294.964 24.4094ZM295.265 23.979C295.552 23.5008 295.679 22.992 295.735 22.5481L291.765 22.0519C291.761 22.0905 291.757 22.0952 291.763 22.0743C291.77 22.0532 291.79 21.9968 291.835 21.921L295.265 23.979ZM295.738 22.5209C295.782 22.1194 295.8 21.6553 295.8 21.15H291.8C291.8 21.578 291.784 21.8806 291.762 22.0791L295.738 22.5209ZM293.8 19.15H291.15V23.15H293.8V19.15ZM289.15 21.15C289.15 22.4108 289.133 23.2977 289.103 23.8391L293.097 24.0609C293.134 23.4023 293.15 22.4226 293.15 21.15H289.15ZM291.257 25.9438C291.951 25.889 292.608 25.7956 293.167 25.6305C293.612 25.4989 294.502 25.1844 295.015 24.329L291.585 22.271C291.761 21.9778 291.971 21.8426 292.035 21.805C292.104 21.7645 292.118 21.7693 292.033 21.7945C291.859 21.8461 291.515 21.911 290.943 21.9562L291.257 25.9438ZM320.1 30.2C321.009 30.2 321.568 29.6404 321.808 29.2813C322.021 28.9616 322.098 28.6544 322.127 28.5214C322.193 28.2262 322.2 27.9357 322.2 27.75H318.2C318.2 27.8643 318.19 27.7988 318.223 27.6536C318.236 27.5956 318.292 27.3446 318.48 27.0625C318.694 26.7408 319.224 26.2 320.1 26.2V30.2ZM322.2 27.75C322.2 26.6734 322.025 25.2199 321.721 23.4589L317.779 24.1411C318.075 25.8467 318.2 27.0266 318.2 27.75H322.2ZM318.102 22.6669C317.778 23.1386 317.231 23.8594 316.438 24.8506L319.562 27.3494C320.369 26.3406 320.989 25.5281 321.398 24.9331L318.102 22.6669ZM316.379 27.271C316.847 27.9195 317.308 28.4867 317.761 28.9392C318.185 29.3635 318.735 29.8241 319.398 30.0727L320.802 26.3273C320.932 26.3759 320.865 26.3865 320.589 26.1108C320.342 25.8633 320.02 25.4805 319.621 24.929L316.379 27.271ZM375.75 3.15H377.75V1.15H375.75V3.15ZM374.85 36.75L376.681 37.554L376.685 37.5459L376.688 37.5378L374.85 36.75ZM371.35 39.5L371.835 41.4403L371.853 41.4359L371.87 41.4312L371.35 39.5ZM362.55 40.15L360.561 40.3621L360.752 42.15H362.55V40.15ZM361.65 33.95L359.682 34.3043L359.686 34.3272L359.69 34.3499L361.65 33.95ZM360.05 29.05L361.854 28.1858L360.126 24.5804L358.277 28.1249L360.05 29.05ZM359.45 30.2L361.202 31.1638L361.213 31.1446L361.223 31.1251L359.45 30.2ZM345.75 40.4L344.079 41.4984L344.848 42.6687L346.21 42.3463L345.75 40.4ZM340.15 34.55L341.31 32.9209L340.524 32.3608L339.596 32.6283L340.15 34.55ZM328.6 37.15L326.603 37.2579L326.724 39.4903L328.929 39.1228L328.6 37.15ZM327.45 25.45L327.263 23.4587L325.108 23.6608L325.48 25.7936L327.45 25.45ZM332.15 24.9L332.406 26.8836L334.15 26.6585V24.9H332.15ZM332.15 14.95H334.15V12.95H332.15V14.95ZM328.5 14.95H326.5V16.95H328.5V14.95ZM328.5 3.95V1.95H326.5V3.95H328.5ZM345.85 3.95H347.85V1.95H345.85V3.95ZM345.85 14.95V16.95H347.85V14.95H345.85ZM342.6 14.95V12.95H340.6V14.95H342.6ZM342.6 23H340.6V25.5215L343.055 24.9475L342.6 23ZM346.45 22.1L348.436 22.3383L348.776 19.5023L345.995 20.1525L346.45 22.1ZM346.15 28.35H344.15V32.1112L347.268 30.0081L346.15 28.35ZM349.5 25.1L351.164 26.2094L351.172 26.1969L351.181 26.1843L349.5 25.1ZM350.85 20.7L348.869 20.422L348.867 20.4391L348.865 20.4562L350.85 20.7ZM351.2 13.4L353.2 13.3775L353.178 11.4H351.2V13.4ZM346.65 13.4H344.65V15.4H346.65V13.4ZM346.65 3.15V1.15H344.65V3.15H346.65ZM351 3.15V5.15H353.19L352.992 2.96892L351 3.15ZM350.95 1.55V-0.450003H348.95V1.55H350.95ZM362.8 1.55H364.8V-0.450003H362.8V1.55ZM362.8 3.15H360.8V5.15H362.8V3.15ZM364.3 13.4H366.3V11.4H364.3V13.4ZM362.6 13.4V11.4H360.676L360.602 13.3224L362.6 13.4ZM361.85 22.3L363.828 22.5941L363.829 22.5902L361.85 22.3ZM360.2 28.65L358.353 27.8832L357.271 30.4903L360.089 30.6469L360.2 28.65ZM363.95 28.55L365.059 30.2141L365.086 30.1962L365.112 30.1775L363.95 28.55ZM373.75 3.15V29.7H377.75V3.15H373.75ZM373.75 29.7C373.75 32.9722 373.439 34.9651 373.012 35.9622L376.688 37.5378C377.461 35.7349 377.75 33.0278 377.75 29.7H373.75ZM373.019 35.946C372.712 36.6438 372.11 37.2243 370.83 37.5688L371.87 41.4312C374.057 40.8424 375.788 39.5896 376.681 37.554L373.019 35.946ZM370.865 37.5597C369.392 37.9279 366.677 38.15 362.55 38.15V42.15C366.69 42.15 369.841 41.9387 371.835 41.4403L370.865 37.5597ZM364.539 39.9379C364.268 37.403 363.96 35.2682 363.61 33.5501L359.69 34.3499C360.006 35.8985 360.298 37.897 360.561 40.3621L364.539 39.9379ZM363.618 33.5957C363.285 31.7442 362.694 29.9398 361.854 28.1858L358.246 29.9142C358.939 31.3601 359.415 32.8225 359.682 34.3043L363.618 33.5957ZM358.277 28.1249L357.677 29.2749L361.223 31.1251L361.823 29.9751L358.277 28.1249ZM357.698 29.2362C355.051 34.0485 350.969 37.1103 345.29 38.4537L346.21 42.3463C352.931 40.7564 357.983 37.0182 361.202 31.1638L357.698 29.2362ZM347.421 39.3016C345.757 36.7684 343.719 34.6361 341.31 32.9209L338.99 36.1791C340.981 37.5972 342.677 39.365 344.079 41.4984L347.421 39.3016ZM339.596 32.6283C335.974 33.6725 332.199 34.5225 328.271 35.1772L328.929 39.1228C333.001 38.4441 336.926 37.5608 340.704 36.4717L339.596 32.6283ZM330.597 37.042C330.329 32.076 329.94 28.0862 329.42 25.1063L325.48 25.7936C325.96 28.5471 326.338 32.3574 326.603 37.2579L330.597 37.042ZM327.637 27.4413C328.739 27.3379 330.333 27.151 332.406 26.8836L331.894 22.9164C329.833 23.1824 328.294 23.3621 327.263 23.4587L327.637 27.4413ZM334.15 24.9V14.95H330.15V24.9H334.15ZM332.15 12.95H328.5V16.95H332.15V12.95ZM330.5 14.95V3.95H326.5V14.95H330.5ZM328.5 5.95H345.85V1.95H328.5V5.95ZM343.85 3.95V14.95H347.85V3.95H343.85ZM345.85 12.95H342.6V16.95H345.85V12.95ZM340.6 14.95V23H344.6V14.95H340.6ZM343.055 24.9475L346.905 24.0475L345.995 20.1525L342.145 21.0525L343.055 24.9475ZM344.464 21.8617C344.251 23.6356 344.15 25.8048 344.15 28.35H348.15C348.15 25.8952 348.249 23.8978 348.436 22.3383L344.464 21.8617ZM347.268 30.0081C348.876 28.9242 350.194 27.6646 351.164 26.2094L347.836 23.9906C347.206 24.9354 346.291 25.8425 345.032 26.6919L347.268 30.0081ZM351.181 26.1843C352.077 24.7952 352.583 22.9932 352.835 20.9438L348.865 20.4562C348.65 22.2068 348.257 23.3382 347.819 24.0157L351.181 26.1843ZM352.831 20.978C353.117 18.9402 353.234 16.3967 353.2 13.3775L349.2 13.4225C349.233 16.3366 349.117 18.6598 348.869 20.422L352.831 20.978ZM351.2 11.4H346.65V15.4H351.2V11.4ZM348.65 13.4V3.15H344.65V13.4H348.65ZM346.65 5.15H351V1.15H346.65V5.15ZM352.992 2.96892C352.967 2.6941 352.95 2.233 352.95 1.55H348.95C348.95 2.267 348.967 2.87256 349.008 3.33107L352.992 2.96892ZM350.95 3.55H362.8V-0.450003H350.95V3.55ZM360.8 1.55V3.15H364.8V1.55H360.8ZM362.8 5.15H375.75V1.15H362.8V5.15ZM364.3 11.4H362.6V15.4H364.3V11.4ZM360.602 13.3224C360.47 16.708 360.225 19.6001 359.871 22.0098L363.829 22.5902C364.209 19.9999 364.463 16.9587 364.598 13.4776L360.602 13.3224ZM359.872 22.0059C359.522 24.3564 359.008 26.3059 358.353 27.8832L362.047 29.4168C362.859 27.4607 363.444 25.1769 363.828 22.5941L359.872 22.0059ZM360.089 30.6469C361.259 30.7119 362.047 30.75 362.35 30.75V26.75C362.187 26.75 361.541 26.7214 360.311 26.6531L360.089 30.6469ZM362.35 30.75C362.823 30.75 363.265 30.7324 363.648 30.6846C363.932 30.649 364.535 30.5635 365.059 30.2141L362.841 26.8859C362.95 26.8128 363.043 26.7701 363.098 26.7475C363.155 26.7241 363.195 26.7123 363.211 26.708C363.24 26.7002 363.226 26.7061 363.152 26.7154C363.002 26.7342 362.744 26.75 362.35 26.75V30.75ZM365.112 30.1775C366.1 29.4722 366.3 28.385 366.3 27.65H362.3C362.3 27.6993 362.292 27.621 362.348 27.4751C362.413 27.3083 362.55 27.0924 362.788 26.9225L365.112 30.1775ZM366.3 27.65V13.4H362.3V27.65H366.3Z" fill="white" mask="url(#path-2-outside-1_286_3287)"/>
<g filter="url(#filter0_d_286_3287)">
<mask id="path-4-outside-2_286_3287" maskUnits="userSpaceOnUse" x="73" y="50" width="409" height="47" fill="black">
<rect fill="white" x="73" y="50" width="409" height="47"/>
<path d="M126.355 77.4C125.388 78.9667 124.421 80.7833 123.455 82.85L126.305 82.45C125.538 83.75 125.021 85.1333 124.755 86.6C124.521 88.0667 124.305 90.0167 124.105 92.45C118.105 92.6833 113.071 92.8 109.005 92.8C103.438 92.8 98.988 92.5333 95.6547 92C92.3214 91.4667 89.4047 90.6 86.9047 89.4C85.3047 90.4667 82.9047 91.7667 79.7047 93.3L79.4547 92.3C78.888 89.8667 78.388 87.9 77.9547 86.4C77.5214 84.8667 77.0047 83.4167 76.4047 82.05C77.238 81.85 78.0214 81.5833 78.7547 81.25C79.488 80.9167 80.0714 80.5833 80.5047 80.25V76.6H77.5047L77.5547 68.35H91.1547V77.1C97.088 76.1667 100.638 75.4833 101.805 75.05H92.2047V67.7H102.955V66.7H92.2047V60.05L89.8547 67.35C85.4547 66.1167 81.288 65.1667 77.3547 64.5L80.3047 55.85C84.9714 56.9833 89.0214 58.1333 92.4547 59.3L92.4047 59.5H99.3047C97.6714 58.9333 95.638 58.35 93.2047 57.75L98.9047 53.25C102.538 54.2167 105.938 55.5 109.105 57.1L106.155 59.5H107.055C108.421 58.7667 109.771 57.8833 111.105 56.85C112.438 55.8167 113.605 54.7167 114.605 53.55L124.455 56.35C123.221 57.6167 121.971 58.6667 120.705 59.5H124.855V66.7H113.855V67.7H124.855V75.05H114.255C116.188 75.5167 118.971 76.0667 122.605 76.7L126.355 77.4ZM91.1547 82.45L93.3547 82.9C92.7214 81.1 91.988 79.55 91.1547 78.25V82.45ZM108.355 83.8C110.455 83.8 112.471 83.75 114.405 83.65C112.705 82.95 110.771 82.0167 108.605 80.85C107.138 81.85 105.238 82.8 102.905 83.7C105.105 83.7667 106.921 83.8 108.355 83.8ZM172.755 77.25V86.65H165.955V93H154.005C154.138 91.6 154.238 89.4833 154.305 86.65H130.555V76.55C138.321 70.5833 145.255 63.9667 151.355 56.7H165.955V77.25H172.755ZM154.555 66.6C152.255 68.9667 150.271 70.95 148.605 72.55C146.938 74.1167 145.055 75.6833 142.955 77.25H154.405L154.555 66.6ZM199.696 93.5C192.529 93.5 187.246 91.85 183.846 88.55C180.446 85.25 178.746 80.6667 178.746 74.8C178.746 68.9667 180.446 64.4167 183.846 61.15C187.279 57.85 192.563 56.2 199.696 56.2C206.829 56.2 212.096 57.85 215.496 61.15C218.896 64.4167 220.596 68.9667 220.596 74.8C220.596 80.6667 218.896 85.25 215.496 88.55C212.096 91.85 206.829 93.5 199.696 93.5ZM199.746 84.75C202.813 84.75 205.046 83.8167 206.446 81.95C207.846 80.05 208.546 77.6667 208.546 74.8C208.546 71.9667 207.846 69.6167 206.446 67.75C205.046 65.85 202.813 64.9 199.746 64.9C196.579 64.9 194.279 65.85 192.846 67.75C191.446 69.6167 190.746 71.9667 190.746 74.8C190.746 77.6333 191.446 80 192.846 81.9C194.279 83.8 196.579 84.75 199.746 84.75ZM247.546 93.5C240.379 93.5 235.096 91.85 231.696 88.55C228.296 85.25 226.596 80.6667 226.596 74.8C226.596 68.9667 228.296 64.4167 231.696 61.15C235.129 57.85 240.412 56.2 247.546 56.2C254.679 56.2 259.946 57.85 263.346 61.15C266.746 64.4167 268.446 68.9667 268.446 74.8C268.446 80.6667 266.746 85.25 263.346 88.55C259.946 91.85 254.679 93.5 247.546 93.5ZM247.596 84.75C250.662 84.75 252.896 83.8167 254.296 81.95C255.696 80.05 256.396 77.6667 256.396 74.8C256.396 71.9667 255.696 69.6167 254.296 67.75C252.896 65.85 250.662 64.9 247.596 64.9C244.429 64.9 242.129 65.85 240.696 67.75C239.296 69.6167 238.596 71.9667 238.596 74.8C238.596 77.6333 239.296 80 240.696 81.9C242.129 83.8 244.429 84.75 247.596 84.75ZM277.095 55.4H318.495V63.7H277.095V55.4ZM320.395 78.7C320.395 82.2667 320.345 84.7833 320.245 86.25C320.145 87.6833 319.912 88.8167 319.545 89.65C318.979 90.9167 318.162 91.7333 317.095 92.1C316.062 92.4667 314.829 92.65 313.395 92.65H303.595C301.562 92.65 300.095 92.25 299.195 91.45C298.295 90.65 297.845 89.3667 297.845 87.6V74.5H290.395L297.345 76.3C295.979 79.9 293.962 83.1333 291.295 86C288.662 88.8667 285.495 91.25 281.795 93.15C280.229 91.4833 278.745 90.0333 277.345 88.8C275.979 87.5333 274.279 86.1833 272.245 84.75C275.212 83.6833 277.562 82.6667 279.295 81.7C281.029 80.7333 282.412 79.7 283.445 78.6C284.479 77.5 285.412 76.1333 286.245 74.5H274.495V65.55H320.345V74.5H308.545V82.85C308.545 83.0167 308.629 83.1333 308.795 83.2C308.962 83.2333 309.245 83.25 309.645 83.25C310.279 83.25 310.595 82.9167 310.595 82.25C310.595 79.95 310.495 77.5333 310.295 75C312.762 75.6333 316.129 76.1 320.395 76.4V78.7ZM338.745 67.9V71.05L340.145 70.95C340.079 72.9167 340.045 75.8667 340.045 79.8L338.745 79.95V84.65C338.745 87.3833 338.495 89.2833 337.995 90.35C337.529 91.4167 336.645 92.1 335.345 92.4C334.079 92.6667 331.662 92.8667 328.095 93L327.045 93.05C326.879 90.9167 326.662 89.1833 326.395 87.85C326.162 86.5167 325.695 85.1167 324.995 83.65C326.162 83.65 326.979 83.6 327.445 83.5C327.945 83.3667 328.245 83.1833 328.345 82.95C328.445 82.7167 328.495 82.3 328.495 81.7V80.95C327.295 81.0833 326.379 81.1667 325.745 81.2C325.612 77.2667 325.345 74.15 324.945 71.85L328.495 71.7V67.9H325.745V59.05H328.495V54.95H338.745V59.05H340.045V67C342.912 66.9 345.795 66.45 348.695 65.65L349.195 65.5H342.395V62.05H340.795V56.2H342.395V54.75H352.195V56.2H360.895V54.75H370.745V56.2H373.645V62.05H370.745V65.5H364.145C366.979 66.0667 370.345 66.5167 374.245 66.85C373.712 67.7833 373.212 69.0333 372.745 70.6C372.312 72.1333 372.095 73.4667 372.095 74.6L370.245 74.2V77.85H343.045V74.6C342.745 74.6667 342.162 74.7833 341.295 74.95C341.295 73.75 341.162 72.5 340.895 71.2C340.629 69.9 340.279 68.8 339.845 67.9H338.745ZM360.895 63.25V62.05H352.195V63.25H360.895ZM361.595 71.95C359.729 71.3167 357.945 70.55 356.245 69.65C354.745 70.6167 353.362 71.3167 352.095 71.75L351.545 71.95H361.595ZM341.095 78.75H372.245V93.05H360.995V92.55H352.195V93.05H341.095V78.75ZM352.195 86.25H360.995V84.25H352.195V86.25ZM424.595 56.05V63.05H406.645V64.1H423.095V81.9H406.645V83.05H424.595V90.75H406.645V93.4H396.245V90.75H378.295V83.05H396.245V81.9H379.795V64.1H396.245V63.05H378.295V56.05H396.245V54.5H406.645V56.05H424.595ZM396.245 69.15H390.795V70.5H396.245V69.15ZM412.095 70.5V69.15H406.645V70.5H412.095ZM390.795 75.05V76.35H396.245V75.05H390.795ZM406.645 76.35H412.095V75.05H406.645V76.35ZM470.845 81.65C470.712 82.1833 470.579 82.6667 470.445 83.1C470.345 83.5 470.262 83.85 470.195 84.15H476.795V92.3H430.095V84.15H436.495C436.429 83.85 436.329 83.5 436.195 83.1C436.095 82.6667 435.979 82.1833 435.845 81.65L445.545 80.4C445.712 81.5667 445.929 82.8167 446.195 84.15H447.495V79.9H431.745V72.8H447.495V71.85H432.645V70.2C432.345 70.2333 431.995 70.2667 431.595 70.3C431.195 70.3333 430.712 70.35 430.145 70.35C430.112 68.85 429.979 67.0833 429.745 65.05C429.545 62.9833 429.312 61.25 429.045 59.85L430.595 59.9C432.562 59.9 434.662 59.7667 436.895 59.5C439.162 59.2333 441.145 58.8167 442.845 58.25C444.379 57.75 445.479 57.2333 446.145 56.7C446.812 56.1667 447.212 55.4333 447.345 54.5H459.695C459.429 55.4 459.112 56.2167 458.745 56.95C464.679 59.0167 471.129 59.9833 478.095 59.85C477.795 61.2833 477.495 63 477.195 65C476.929 67 476.729 68.7833 476.595 70.35L474.245 70.05V71.85H459.395V72.8H475.145V79.9H459.395V84.15H460.495C460.762 82.8167 460.979 81.5667 461.145 80.4L470.845 81.65ZM452.695 62.7C451.162 63.7667 449.529 64.75 447.795 65.65H458.645C456.745 64.85 454.762 63.8667 452.695 62.7Z"/>
</mask>
<path d="M126.355 77.4C125.388 78.9667 124.421 80.7833 123.455 82.85L126.305 82.45C125.538 83.75 125.021 85.1333 124.755 86.6C124.521 88.0667 124.305 90.0167 124.105 92.45C118.105 92.6833 113.071 92.8 109.005 92.8C103.438 92.8 98.988 92.5333 95.6547 92C92.3214 91.4667 89.4047 90.6 86.9047 89.4C85.3047 90.4667 82.9047 91.7667 79.7047 93.3L79.4547 92.3C78.888 89.8667 78.388 87.9 77.9547 86.4C77.5214 84.8667 77.0047 83.4167 76.4047 82.05C77.238 81.85 78.0214 81.5833 78.7547 81.25C79.488 80.9167 80.0714 80.5833 80.5047 80.25V76.6H77.5047L77.5547 68.35H91.1547V77.1C97.088 76.1667 100.638 75.4833 101.805 75.05H92.2047V67.7H102.955V66.7H92.2047V60.05L89.8547 67.35C85.4547 66.1167 81.288 65.1667 77.3547 64.5L80.3047 55.85C84.9714 56.9833 89.0214 58.1333 92.4547 59.3L92.4047 59.5H99.3047C97.6714 58.9333 95.638 58.35 93.2047 57.75L98.9047 53.25C102.538 54.2167 105.938 55.5 109.105 57.1L106.155 59.5H107.055C108.421 58.7667 109.771 57.8833 111.105 56.85C112.438 55.8167 113.605 54.7167 114.605 53.55L124.455 56.35C123.221 57.6167 121.971 58.6667 120.705 59.5H124.855V66.7H113.855V67.7H124.855V75.05H114.255C116.188 75.5167 118.971 76.0667 122.605 76.7L126.355 77.4ZM91.1547 82.45L93.3547 82.9C92.7214 81.1 91.988 79.55 91.1547 78.25V82.45ZM108.355 83.8C110.455 83.8 112.471 83.75 114.405 83.65C112.705 82.95 110.771 82.0167 108.605 80.85C107.138 81.85 105.238 82.8 102.905 83.7C105.105 83.7667 106.921 83.8 108.355 83.8ZM172.755 77.25V86.65H165.955V93H154.005C154.138 91.6 154.238 89.4833 154.305 86.65H130.555V76.55C138.321 70.5833 145.255 63.9667 151.355 56.7H165.955V77.25H172.755ZM154.555 66.6C152.255 68.9667 150.271 70.95 148.605 72.55C146.938 74.1167 145.055 75.6833 142.955 77.25H154.405L154.555 66.6ZM199.696 93.5C192.529 93.5 187.246 91.85 183.846 88.55C180.446 85.25 178.746 80.6667 178.746 74.8C178.746 68.9667 180.446 64.4167 183.846 61.15C187.279 57.85 192.563 56.2 199.696 56.2C206.829 56.2 212.096 57.85 215.496 61.15C218.896 64.4167 220.596 68.9667 220.596 74.8C220.596 80.6667 218.896 85.25 215.496 88.55C212.096 91.85 206.829 93.5 199.696 93.5ZM199.746 84.75C202.813 84.75 205.046 83.8167 206.446 81.95C207.846 80.05 208.546 77.6667 208.546 74.8C208.546 71.9667 207.846 69.6167 206.446 67.75C205.046 65.85 202.813 64.9 199.746 64.9C196.579 64.9 194.279 65.85 192.846 67.75C191.446 69.6167 190.746 71.9667 190.746 74.8C190.746 77.6333 191.446 80 192.846 81.9C194.279 83.8 196.579 84.75 199.746 84.75ZM247.546 93.5C240.379 93.5 235.096 91.85 231.696 88.55C228.296 85.25 226.596 80.6667 226.596 74.8C226.596 68.9667 228.296 64.4167 231.696 61.15C235.129 57.85 240.412 56.2 247.546 56.2C254.679 56.2 259.946 57.85 263.346 61.15C266.746 64.4167 268.446 68.9667 268.446 74.8C268.446 80.6667 266.746 85.25 263.346 88.55C259.946 91.85 254.679 93.5 247.546 93.5ZM247.596 84.75C250.662 84.75 252.896 83.8167 254.296 81.95C255.696 80.05 256.396 77.6667 256.396 74.8C256.396 71.9667 255.696 69.6167 254.296 67.75C252.896 65.85 250.662 64.9 247.596 64.9C244.429 64.9 242.129 65.85 240.696 67.75C239.296 69.6167 238.596 71.9667 238.596 74.8C238.596 77.6333 239.296 80 240.696 81.9C242.129 83.8 244.429 84.75 247.596 84.75ZM277.095 55.4H318.495V63.7H277.095V55.4ZM320.395 78.7C320.395 82.2667 320.345 84.7833 320.245 86.25C320.145 87.6833 319.912 88.8167 319.545 89.65C318.979 90.9167 318.162 91.7333 317.095 92.1C316.062 92.4667 314.829 92.65 313.395 92.65H303.595C301.562 92.65 300.095 92.25 299.195 91.45C298.295 90.65 297.845 89.3667 297.845 87.6V74.5H290.395L297.345 76.3C295.979 79.9 293.962 83.1333 291.295 86C288.662 88.8667 285.495 91.25 281.795 93.15C280.229 91.4833 278.745 90.0333 277.345 88.8C275.979 87.5333 274.279 86.1833 272.245 84.75C275.212 83.6833 277.562 82.6667 279.295 81.7C281.029 80.7333 282.412 79.7 283.445 78.6C284.479 77.5 285.412 76.1333 286.245 74.5H274.495V65.55H320.345V74.5H308.545V82.85C308.545 83.0167 308.629 83.1333 308.795 83.2C308.962 83.2333 309.245 83.25 309.645 83.25C310.279 83.25 310.595 82.9167 310.595 82.25C310.595 79.95 310.495 77.5333 310.295 75C312.762 75.6333 316.129 76.1 320.395 76.4V78.7ZM338.745 67.9V71.05L340.145 70.95C340.079 72.9167 340.045 75.8667 340.045 79.8L338.745 79.95V84.65C338.745 87.3833 338.495 89.2833 337.995 90.35C337.529 91.4167 336.645 92.1 335.345 92.4C334.079 92.6667 331.662 92.8667 328.095 93L327.045 93.05C326.879 90.9167 326.662 89.1833 326.395 87.85C326.162 86.5167 325.695 85.1167 324.995 83.65C326.162 83.65 326.979 83.6 327.445 83.5C327.945 83.3667 328.245 83.1833 328.345 82.95C328.445 82.7167 328.495 82.3 328.495 81.7V80.95C327.295 81.0833 326.379 81.1667 325.745 81.2C325.612 77.2667 325.345 74.15 324.945 71.85L328.495 71.7V67.9H325.745V59.05H328.495V54.95H338.745V59.05H340.045V67C342.912 66.9 345.795 66.45 348.695 65.65L349.195 65.5H342.395V62.05H340.795V56.2H342.395V54.75H352.195V56.2H360.895V54.75H370.745V56.2H373.645V62.05H370.745V65.5H364.145C366.979 66.0667 370.345 66.5167 374.245 66.85C373.712 67.7833 373.212 69.0333 372.745 70.6C372.312 72.1333 372.095 73.4667 372.095 74.6L370.245 74.2V77.85H343.045V74.6C342.745 74.6667 342.162 74.7833 341.295 74.95C341.295 73.75 341.162 72.5 340.895 71.2C340.629 69.9 340.279 68.8 339.845 67.9H338.745ZM360.895 63.25V62.05H352.195V63.25H360.895ZM361.595 71.95C359.729 71.3167 357.945 70.55 356.245 69.65C354.745 70.6167 353.362 71.3167 352.095 71.75L351.545 71.95H361.595ZM341.095 78.75H372.245V93.05H360.995V92.55H352.195V93.05H341.095V78.75ZM352.195 86.25H360.995V84.25H352.195V86.25ZM424.595 56.05V63.05H406.645V64.1H423.095V81.9H406.645V83.05H424.595V90.75H406.645V93.4H396.245V90.75H378.295V83.05H396.245V81.9H379.795V64.1H396.245V63.05H378.295V56.05H396.245V54.5H406.645V56.05H424.595ZM396.245 69.15H390.795V70.5H396.245V69.15ZM412.095 70.5V69.15H406.645V70.5H412.095ZM390.795 75.05V76.35H396.245V75.05H390.795ZM406.645 76.35H412.095V75.05H406.645V76.35ZM470.845 81.65C470.712 82.1833 470.579 82.6667 470.445 83.1C470.345 83.5 470.262 83.85 470.195 84.15H476.795V92.3H430.095V84.15H436.495C436.429 83.85 436.329 83.5 436.195 83.1C436.095 82.6667 435.979 82.1833 435.845 81.65L445.545 80.4C445.712 81.5667 445.929 82.8167 446.195 84.15H447.495V79.9H431.745V72.8H447.495V71.85H432.645V70.2C432.345 70.2333 431.995 70.2667 431.595 70.3C431.195 70.3333 430.712 70.35 430.145 70.35C430.112 68.85 429.979 67.0833 429.745 65.05C429.545 62.9833 429.312 61.25 429.045 59.85L430.595 59.9C432.562 59.9 434.662 59.7667 436.895 59.5C439.162 59.2333 441.145 58.8167 442.845 58.25C444.379 57.75 445.479 57.2333 446.145 56.7C446.812 56.1667 447.212 55.4333 447.345 54.5H459.695C459.429 55.4 459.112 56.2167 458.745 56.95C464.679 59.0167 471.129 59.9833 478.095 59.85C477.795 61.2833 477.495 63 477.195 65C476.929 67 476.729 68.7833 476.595 70.35L474.245 70.05V71.85H459.395V72.8H475.145V79.9H459.395V84.15H460.495C460.762 82.8167 460.979 81.5667 461.145 80.4L470.845 81.65ZM452.695 62.7C451.162 63.7667 449.529 64.75 447.795 65.65H458.645C456.745 64.85 454.762 63.8667 452.695 62.7Z" fill="#E6001D"/>
<path d="M126.355 77.4L128.908 78.9753C129.427 78.1337 129.498 77.0901 129.098 76.1857C128.698 75.2814 127.877 74.6324 126.905 74.4509L126.355 77.4ZM123.455 82.85L120.737 81.5789C120.271 82.5757 120.388 83.7478 121.042 84.6328C121.696 85.5179 122.782 85.9738 123.872 85.8209L123.455 82.85ZM126.305 82.45L128.889 83.974C129.474 82.9818 129.439 81.7421 128.8 80.7842C128.16 79.8262 127.028 79.319 125.888 79.4791L126.305 82.45ZM124.755 86.6L121.803 86.0633C121.799 86.0851 121.795 86.1068 121.792 86.1287L124.755 86.6ZM124.105 92.45L124.221 95.4477C125.737 95.3888 126.97 94.2076 127.095 92.6957L124.105 92.45ZM95.6547 92L96.1287 89.0377L95.6547 92ZM86.9047 89.4L88.2029 86.6954C87.2479 86.237 86.122 86.3163 85.2406 86.9039L86.9047 89.4ZM79.7047 93.3L76.7943 94.0276C77.0128 94.9018 77.6128 95.6315 78.4283 96.0149C79.2438 96.3983 80.1884 96.3948 81.001 96.0054L79.7047 93.3ZM79.4547 92.3L76.5329 92.9804C76.5365 92.9962 76.5403 93.0119 76.5443 93.0276L79.4547 92.3ZM77.9547 86.4L75.0678 87.2159C75.0693 87.2215 75.0709 87.227 75.0725 87.2326L77.9547 86.4ZM76.4047 82.05L75.7046 79.1328C74.8404 79.3402 74.1127 79.9201 73.7176 80.7161C73.3224 81.512 73.3005 82.4423 73.6578 83.256L76.4047 82.05ZM78.7547 81.25L77.5133 78.5189H77.5133L78.7547 81.25ZM80.5047 80.25L82.3338 82.6279C83.0721 82.06 83.5047 81.1814 83.5047 80.25H80.5047ZM80.5047 76.6H83.5047C83.5047 74.9431 82.1615 73.6 80.5047 73.6V76.6ZM77.5047 76.6L74.5047 76.5818C74.4999 77.3806 74.8138 78.1483 75.3769 78.7149C75.9401 79.2814 76.7059 79.6 77.5047 79.6V76.6ZM77.5547 68.35V65.35C75.9049 65.35 74.5647 66.6821 74.5547 68.3318L77.5547 68.35ZM91.1547 68.35H94.1547C94.1547 66.6931 92.8115 65.35 91.1547 65.35V68.35ZM91.1547 77.1H88.1547C88.1547 77.9771 88.5385 78.8102 89.2051 79.3802C89.8718 79.9502 90.7544 80.1998 91.6209 80.0636L91.1547 77.1ZM101.805 75.05L102.849 77.8623C104.211 77.3566 105.014 75.9486 104.757 74.5194C104.501 73.0901 103.257 72.05 101.805 72.05V75.05ZM92.2047 75.05H89.2047C89.2047 76.7069 90.5478 78.05 92.2047 78.05V75.05ZM92.2047 67.7V64.7C90.5478 64.7 89.2047 66.0431 89.2047 67.7H92.2047ZM102.955 67.7V70.7C104.612 70.7 105.955 69.3569 105.955 67.7H102.955ZM102.955 66.7H105.955C105.955 65.0431 104.612 63.7 102.955 63.7V66.7ZM92.2047 66.7H89.2047C89.2047 68.3569 90.5478 69.7 92.2047 69.7V66.7ZM92.2047 60.05H95.2047C95.2047 58.5728 94.1293 57.3154 92.67 57.0863C91.2106 56.8572 89.8017 57.7245 89.349 59.1307L92.2047 60.05ZM89.8547 67.35L89.045 70.2387C90.5975 70.6738 92.2163 69.8041 92.7104 68.2693L89.8547 67.35ZM77.3547 64.5L74.5153 63.5316C74.2314 64.3641 74.3271 65.2793 74.7771 66.035C75.2272 66.7907 75.9862 67.3108 76.8534 67.4578L77.3547 64.5ZM80.3047 55.85L81.0127 52.9347C79.5046 52.5685 77.9662 53.4128 77.4653 54.8816L80.3047 55.85ZM92.4547 59.3L95.3651 60.0276C95.7437 58.5133 94.8978 56.9617 93.4199 56.4595L92.4547 59.3ZM92.4047 59.5L89.4943 58.7724C89.2702 59.6686 89.4715 60.6181 90.0401 61.3462C90.6086 62.0744 91.4809 62.5 92.4047 62.5V59.5ZM99.3047 59.5V62.5C100.769 62.5 102.02 61.4427 102.263 59.9986C102.506 58.5545 101.672 57.1457 100.288 56.6657L99.3047 59.5ZM93.2047 57.75L91.3458 55.3953C90.4466 56.1052 90.0302 57.2653 90.2727 58.385C90.5151 59.5047 91.3741 60.3885 92.4865 60.6628L93.2047 57.75ZM98.9047 53.25L99.676 50.3509C98.7624 50.1078 97.7877 50.3096 97.0458 50.8954L98.9047 53.25ZM109.105 57.1L110.998 59.4271C111.786 58.7857 112.196 57.7886 112.087 56.778C111.978 55.7674 111.365 54.8808 110.458 54.4224L109.105 57.1ZM106.155 59.5L104.261 57.1729C103.277 57.9741 102.903 59.3084 103.328 60.5046C103.753 61.7009 104.885 62.5 106.155 62.5V59.5ZM107.055 59.5V62.5C107.55 62.5 108.037 62.3775 108.473 62.1435L107.055 59.5ZM111.105 56.85L109.267 54.4788V54.4788L111.105 56.85ZM114.605 53.55L115.425 50.6643C114.299 50.3441 113.089 50.7086 112.327 51.5976L114.605 53.55ZM124.455 56.35L126.604 58.4428C127.341 57.6859 127.626 56.597 127.353 55.5762C127.081 54.5554 126.291 53.7532 125.275 53.4643L124.455 56.35ZM120.705 59.5L119.056 56.9937C117.949 57.7222 117.451 59.0909 117.831 60.3606C118.211 61.6303 119.379 62.5 120.705 62.5V59.5ZM124.855 59.5H127.855C127.855 57.8431 126.512 56.5 124.855 56.5V59.5ZM124.855 66.7V69.7C126.512 69.7 127.855 68.3569 127.855 66.7H124.855ZM113.855 66.7V63.7C112.198 63.7 110.855 65.0431 110.855 66.7H113.855ZM113.855 67.7H110.855C110.855 69.3569 112.198 70.7 113.855 70.7V67.7ZM124.855 67.7H127.855C127.855 66.0431 126.512 64.7 124.855 64.7V67.7ZM124.855 75.05V78.05C126.512 78.05 127.855 76.7069 127.855 75.05H124.855ZM114.255 75.05V72.05C112.735 72.05 111.455 73.1864 111.276 74.6956C111.096 76.2047 112.073 77.6096 113.551 77.9662L114.255 75.05ZM122.605 76.7L123.155 73.7509C123.143 73.7487 123.132 73.7466 123.12 73.7446L122.605 76.7ZM91.1547 82.45H88.1547C88.1547 83.8751 89.1573 85.1036 90.5535 85.3891L91.1547 82.45ZM93.3547 82.9L92.7535 85.8391C93.8122 86.0557 94.9056 85.6861 95.6158 84.8716C96.326 84.0572 96.5433 82.9237 96.1846 81.9043L93.3547 82.9ZM91.1547 78.25L93.6803 76.631C92.9615 75.5096 91.5894 74.9965 90.3112 75.371C89.0329 75.7456 88.1547 76.918 88.1547 78.25H91.1547ZM114.405 83.65L114.56 86.646C115.961 86.5735 117.125 85.5392 117.362 84.156C117.598 82.7727 116.845 81.4103 115.547 80.876L114.405 83.65ZM108.605 80.85L110.027 78.2086C109.041 77.6774 107.84 77.7402 106.915 78.3713L108.605 80.85ZM102.905 83.7L101.825 80.901C100.493 81.4149 99.7073 82.7967 99.9474 84.2043C100.187 85.612 101.386 86.6554 102.814 86.6986L102.905 83.7ZM123.802 75.8247C122.762 77.5094 121.742 79.4314 120.737 81.5789L126.172 84.1211C127.101 82.1353 128.014 80.4239 128.908 78.9753L123.802 75.8247ZM123.872 85.8209L126.722 85.4209L125.888 79.4791L123.038 79.8791L123.872 85.8209ZM123.721 80.926C122.776 82.527 122.134 84.2441 121.803 86.0633L127.706 87.1367C127.909 86.0226 128.3 84.973 128.889 83.974L123.721 80.926ZM121.792 86.1287C121.542 87.7022 121.318 89.7367 121.115 92.2043L127.095 92.6957C127.292 90.2966 127.501 88.4311 127.717 87.0713L121.792 86.1287ZM123.988 89.4523C118.011 89.6847 113.019 89.8 109.005 89.8V95.8C113.124 95.8 118.199 95.6819 124.221 95.4477L123.988 89.4523ZM109.005 89.8C103.509 89.8 99.2375 89.5351 96.1287 89.0377L95.1807 94.9623C98.7385 95.5316 103.367 95.8 109.005 95.8V89.8ZM96.1287 89.0377C93.0214 88.5405 90.3926 87.7465 88.2029 86.6954L85.6065 92.1046C88.4168 93.4535 91.6213 94.3928 95.1807 94.9623L96.1287 89.0377ZM85.2406 86.9039C83.8177 87.8524 81.5682 89.0805 78.4083 90.5946L81.001 96.0054C84.2412 94.4529 86.7916 93.0809 88.5688 91.8962L85.2406 86.9039ZM82.6151 92.5724L82.3651 91.5724L76.5443 93.0276L76.7943 94.0276L82.6151 92.5724ZM82.3765 91.6196C81.8041 89.1615 81.2907 87.1383 80.8368 85.5674L75.0725 87.2326C75.4854 88.6617 75.972 90.5718 76.5329 92.9804L82.3765 91.6196ZM80.8416 85.5841C80.3732 83.9266 79.8108 82.3455 79.1516 80.844L73.6578 83.256C74.1986 84.4878 74.6695 85.8068 75.0678 87.2159L80.8416 85.5841ZM77.1048 84.9672C78.1123 84.7254 79.078 84.3984 79.9961 83.9811L77.5133 78.5189C76.9647 78.7682 76.3637 78.9746 75.7046 79.1328L77.1048 84.9672ZM79.9961 83.9811C80.8498 83.5931 81.6552 83.1499 82.3338 82.6279L78.6756 77.8721C78.4875 78.0168 78.1263 78.2403 77.5133 78.5189L79.9961 83.9811ZM83.5047 80.25V76.6H77.5047V80.25H83.5047ZM80.5047 73.6H77.5047V79.6H80.5047V73.6ZM80.5046 76.6182L80.5546 68.3682L74.5547 68.3318L74.5047 76.5818L80.5046 76.6182ZM77.5547 71.35H91.1547V65.35H77.5547V71.35ZM88.1547 68.35V77.1H94.1547V68.35H88.1547ZM91.6209 80.0636C94.6024 79.5946 97.0111 79.1843 98.8342 78.8334C100.574 78.4986 101.996 78.1793 102.849 77.8623L100.76 72.2377C100.447 72.354 99.5107 72.5931 97.7001 72.9416C95.9733 73.274 93.6403 73.6721 90.6885 74.1364L91.6209 80.0636ZM101.805 72.05H92.2047V78.05H101.805V72.05ZM95.2047 75.05V67.7H89.2047V75.05H95.2047ZM92.2047 70.7H102.955V64.7H92.2047V70.7ZM105.955 67.7V66.7H99.9547V67.7H105.955ZM102.955 63.7H92.2047V69.7H102.955V63.7ZM95.2047 66.7V60.05H89.2047V66.7H95.2047ZM89.349 59.1307L86.999 66.4307L92.7104 68.2693L95.0604 60.9693L89.349 59.1307ZM90.6644 64.4613C86.1771 63.2035 81.9069 62.2288 77.856 61.5422L76.8534 67.4578C80.6691 68.1046 84.7322 69.0298 89.045 70.2387L90.6644 64.4613ZM80.1941 65.4684L83.1441 56.8184L77.4653 54.8816L74.5153 63.5316L80.1941 65.4684ZM79.5967 58.7653C84.2025 59.8838 88.1627 61.01 91.4895 62.1405L93.4199 56.4595C89.88 55.2566 85.7402 54.0828 81.0127 52.9347L79.5967 58.7653ZM89.5443 58.5724L89.4943 58.7724L95.3151 60.2276L95.3651 60.0276L89.5443 58.5724ZM92.4047 62.5H99.3047V56.5H92.4047V62.5ZM100.288 56.6657C98.5385 56.0587 96.4098 55.4505 93.9229 54.8372L92.4865 60.6628C94.8662 61.2495 96.8042 61.8079 98.3214 62.3343L100.288 56.6657ZM95.0636 60.1046L100.764 55.6046L97.0458 50.8954L91.3458 55.3953L95.0636 60.1046ZM98.1334 56.1491C101.578 57.0655 104.781 58.2768 107.752 59.7776L110.458 54.4224C107.095 52.7232 103.498 51.3678 99.676 50.3509L98.1334 56.1491ZM107.211 54.7729L104.261 57.1729L108.048 61.8271L110.998 59.4271L107.211 54.7729ZM106.155 62.5H107.055V56.5H106.155V62.5ZM108.473 62.1435C109.999 61.3247 111.488 60.348 112.942 59.2212L109.267 54.4788C108.054 55.4186 106.844 56.2086 105.636 56.8565L108.473 62.1435ZM112.942 59.2212C114.421 58.0755 115.738 56.8373 116.882 55.5024L112.327 51.5976C111.471 52.596 110.455 53.5578 109.267 54.4788L112.942 59.2212ZM113.784 56.4357L123.634 59.2357L125.275 53.4643L115.425 50.6643L113.784 56.4357ZM122.305 54.2571C121.199 55.3933 120.114 56.2974 119.056 56.9937L122.354 62.0063C123.828 61.0359 125.244 59.84 126.604 58.4428L122.305 54.2571ZM120.705 62.5H124.855V56.5H120.705V62.5ZM121.855 59.5V66.7H127.855V59.5H121.855ZM124.855 63.7H113.855V69.7H124.855V63.7ZM110.855 66.7V67.7H116.855V66.7H110.855ZM113.855 70.7H124.855V64.7H113.855V70.7ZM121.855 67.7V75.05H127.855V67.7H121.855ZM124.855 72.05H114.255V78.05H124.855V72.05ZM113.551 77.9662C115.578 78.4557 118.436 79.0187 122.09 79.6554L123.12 73.7446C119.506 73.1147 116.798 72.5777 114.959 72.1338L113.551 77.9662ZM122.054 79.6491L125.804 80.3491L126.905 74.4509L123.155 73.7509L122.054 79.6491ZM90.5535 85.3891L92.7535 85.8391L93.9559 79.9609L91.7559 79.5109L90.5535 85.3891ZM96.1846 81.9043C95.4916 79.9345 94.6641 78.1657 93.6803 76.631L88.6291 79.869C89.3119 80.9343 89.9511 82.2655 90.5248 83.8957L96.1846 81.9043ZM88.1547 78.25V82.45H94.1547V78.25H88.1547ZM108.355 86.8C110.502 86.8 112.571 86.7489 114.56 86.646L114.25 80.654C112.372 80.7511 110.407 80.8 108.355 80.8V86.8ZM115.547 80.876C113.968 80.2259 112.131 79.3415 110.027 78.2086L107.182 83.4914C109.412 84.6918 111.441 85.6741 113.262 86.424L115.547 80.876ZM106.915 78.3713C105.698 79.2007 104.023 80.0531 101.825 80.901L103.984 86.499C106.453 85.5469 108.578 84.4993 110.295 83.3287L106.915 78.3713ZM102.814 86.6986C105.03 86.7658 106.88 86.8 108.355 86.8V80.8C106.963 80.8 105.179 80.7676 102.996 80.7014L102.814 86.6986ZM172.755 77.25H175.755C175.755 75.5931 174.412 74.25 172.755 74.25V77.25ZM172.755 86.65V89.65C174.412 89.65 175.755 88.3069 175.755 86.65H172.755ZM165.955 86.65V83.65C164.298 83.65 162.955 84.9931 162.955 86.65H165.955ZM165.955 93V96C167.612 96 168.955 94.6569 168.955 93H165.955ZM154.005 93L151.018 92.7156C150.938 93.5569 151.217 94.393 151.785 95.0183C152.354 95.6435 153.16 96 154.005 96V93ZM154.305 86.65L157.304 86.7206C157.323 85.9129 157.015 85.1317 156.451 84.5538C155.886 83.9758 155.113 83.65 154.305 83.65V86.65ZM130.555 86.65H127.555C127.555 88.3069 128.898 89.65 130.555 89.65V86.65ZM130.555 76.55L128.727 74.171C127.988 74.7388 127.555 75.6179 127.555 76.55H130.555ZM151.355 56.7V53.7C150.468 53.7 149.627 54.0921 149.057 54.7712L151.355 56.7ZM165.955 56.7H168.955C168.955 55.0431 167.612 53.7 165.955 53.7V56.7ZM165.955 77.25H162.955C162.955 78.9069 164.298 80.25 165.955 80.25V77.25ZM154.555 66.6L157.554 66.6423C157.572 65.4135 156.838 64.2984 155.702 63.8282C154.567 63.3581 153.26 63.6279 152.403 64.5092L154.555 66.6ZM148.605 72.55L150.659 74.7359C150.667 74.7287 150.675 74.7214 150.682 74.7142L148.605 72.55ZM142.955 77.25L141.161 74.8454C140.125 75.6184 139.7 76.9682 140.107 78.1951C140.515 79.4219 141.662 80.25 142.955 80.25V77.25ZM154.405 77.25V80.25C156.045 80.25 157.381 78.9325 157.404 77.2922L154.405 77.25ZM169.755 77.25V86.65H175.755V77.25H169.755ZM172.755 83.65H165.955V89.65H172.755V83.65ZM162.955 86.65V93H168.955V86.65H162.955ZM165.955 90H154.005V96H165.955V90ZM156.991 93.2844C157.135 91.7735 157.237 89.5691 157.304 86.7206L151.306 86.5794C151.239 89.3976 151.141 91.4265 151.018 92.7156L156.991 93.2844ZM154.305 83.65H130.555V89.65H154.305V83.65ZM133.555 86.65V76.55H127.555V86.65H133.555ZM132.382 78.929C140.316 72.8341 147.408 66.0675 153.652 58.6288L149.057 54.7712C143.101 61.8659 136.327 68.3326 128.727 74.171L132.382 78.929ZM151.355 59.7H165.955V53.7H151.355V59.7ZM162.955 56.7V77.25H168.955V56.7H162.955ZM165.955 80.25H172.755V74.25H165.955V80.25ZM152.403 64.5092C150.118 66.8605 148.161 68.8176 146.527 70.3858L150.682 74.7142C152.382 73.0824 154.391 71.0728 156.706 68.6908L152.403 64.5092ZM146.55 70.3641C144.977 71.8428 143.183 73.3371 141.161 74.8454L144.749 79.6546C146.927 78.0295 148.899 76.3905 150.659 74.7359L146.55 70.3641ZM142.955 80.25H154.405V74.25H142.955V80.25ZM157.404 77.2922L157.554 66.6423L151.555 66.5578L151.405 77.2077L157.404 77.2922ZM183.846 88.55L181.757 90.7027L183.846 88.55ZM183.846 61.15L185.925 63.3133L185.925 63.3129L183.846 61.15ZM215.496 61.15L213.407 63.3027C213.41 63.3063 213.414 63.3098 213.418 63.3133L215.496 61.15ZM215.496 88.55L217.586 90.7027L215.496 88.55ZM206.446 81.95L208.846 83.75C208.851 83.7432 208.856 83.7364 208.861 83.7296L206.446 81.95ZM206.446 67.75L204.031 69.5296C204.036 69.5364 204.041 69.5432 204.046 69.55L206.446 67.75ZM192.846 67.75L190.451 65.9433L190.446 65.95L192.846 67.75ZM192.846 81.9L190.431 83.6796C190.438 83.6887 190.444 83.6977 190.451 83.7067L192.846 81.9ZM199.696 90.5C192.918 90.5 188.546 88.9313 185.936 86.3973L181.757 90.7027C185.946 94.7687 192.141 96.5 199.696 96.5V90.5ZM185.936 86.3973C183.25 83.791 181.746 80.0612 181.746 74.8H175.746C175.746 81.2722 177.642 86.709 181.757 90.7027L185.936 86.3973ZM181.746 74.8C181.746 69.5766 183.247 65.8856 185.925 63.3133L181.768 58.9867C177.645 62.9477 175.746 68.3568 175.746 74.8H181.746ZM185.925 63.3129C188.576 60.7653 192.959 59.2 199.696 59.2V53.2C192.167 53.2 185.983 54.9347 181.767 58.9871L185.925 63.3129ZM199.696 59.2C206.437 59.2 210.794 60.7665 213.407 63.3027L217.586 58.9973C213.399 54.9335 207.222 53.2 199.696 53.2V59.2ZM213.418 63.3133C216.095 65.8856 217.596 69.5766 217.596 74.8H223.596C223.596 68.3568 221.697 62.9477 217.575 58.9867L213.418 63.3133ZM217.596 74.8C217.596 80.0612 216.092 83.791 213.407 86.3973L217.586 90.7027C221.7 86.709 223.596 81.2722 223.596 74.8H217.596ZM213.407 86.3973C210.794 88.9335 206.437 90.5 199.696 90.5V96.5C207.222 96.5 213.399 94.7665 217.586 90.7027L213.407 86.3973ZM199.746 87.75C203.434 87.75 206.71 86.598 208.846 83.75L204.046 80.15C203.382 81.0353 202.192 81.75 199.746 81.75V87.75ZM208.861 83.7296C210.717 81.2113 211.546 78.1665 211.546 74.8H205.546C205.546 77.1668 204.975 78.8887 204.031 80.1704L208.861 83.7296ZM211.546 74.8C211.546 71.4601 210.713 68.4394 208.846 65.95L204.046 69.55C204.979 70.7939 205.546 72.4733 205.546 74.8H211.546ZM208.861 65.9704C206.733 63.0815 203.453 61.9 199.746 61.9V67.9C202.173 67.9 203.36 68.6185 204.031 69.5296L208.861 65.9704ZM199.746 61.9C195.975 61.9 192.628 63.0581 190.451 65.9433L195.241 69.5567C195.931 68.6419 197.183 67.9 199.746 67.9V61.9ZM190.446 65.95C188.579 68.4394 187.746 71.4601 187.746 74.8H193.746C193.746 72.4733 194.313 70.7939 195.246 69.55L190.446 65.95ZM187.746 74.8C187.746 78.142 188.58 81.1672 190.431 83.6796L195.261 80.1204C194.313 78.8328 193.746 77.1247 193.746 74.8H187.746ZM190.451 83.7067C192.628 86.5919 195.975 87.75 199.746 87.75V81.75C197.183 81.75 195.931 81.0081 195.241 80.0933L190.451 83.7067ZM231.696 88.55L229.606 90.7027L231.696 88.55ZM231.696 61.15L233.774 63.3133L233.775 63.3129L231.696 61.15ZM263.346 61.15L261.256 63.3027C261.26 63.3063 261.264 63.3098 261.267 63.3133L263.346 61.15ZM263.346 88.55L265.435 90.7027L263.346 88.55ZM254.296 81.95L256.696 83.75C256.701 83.7432 256.706 83.7364 256.711 83.7296L254.296 81.95ZM254.296 67.75L251.881 69.5296C251.886 69.5364 251.891 69.5432 251.896 69.55L254.296 67.75ZM240.696 67.75L238.301 65.9433L238.296 65.95L240.696 67.75ZM240.696 81.9L238.281 83.6796C238.287 83.6887 238.294 83.6977 238.301 83.7067L240.696 81.9ZM247.546 90.5C240.767 90.5 236.396 88.9313 233.785 86.3973L229.606 90.7027C233.795 94.7687 239.991 96.5 247.546 96.5V90.5ZM233.785 86.3973C231.1 83.791 229.596 80.0612 229.596 74.8H223.596C223.596 81.2722 225.492 86.709 229.606 90.7027L233.785 86.3973ZM229.596 74.8C229.596 69.5766 231.097 65.8856 233.774 63.3133L229.617 58.9867C225.495 62.9477 223.596 68.3568 223.596 74.8H229.596ZM233.775 63.3129C236.425 60.7653 240.808 59.2 247.546 59.2V53.2C240.017 53.2 233.833 54.9347 229.617 58.9871L233.775 63.3129ZM247.546 59.2C254.286 59.2 258.643 60.7665 261.256 63.3027L265.435 58.9973C261.248 54.9335 255.072 53.2 247.546 53.2V59.2ZM261.267 63.3133C263.945 65.8856 265.446 69.5766 265.446 74.8H271.446C271.446 68.3568 269.547 62.9477 265.424 58.9867L261.267 63.3133ZM265.446 74.8C265.446 80.0612 263.942 83.791 261.256 86.3973L265.435 90.7027C269.55 86.709 271.446 81.2722 271.446 74.8H265.446ZM261.256 86.3973C258.643 88.9335 254.286 90.5 247.546 90.5V96.5C255.072 96.5 261.248 94.7665 265.435 90.7027L261.256 86.3973ZM247.596 87.75C251.283 87.75 254.56 86.598 256.696 83.75L251.896 80.15C251.232 81.0353 250.042 81.75 247.596 81.75V87.75ZM256.711 83.7296C258.566 81.2113 259.396 78.1665 259.396 74.8H253.396C253.396 77.1668 252.825 78.8887 251.881 80.1704L256.711 83.7296ZM259.396 74.8C259.396 71.4601 258.563 68.4394 256.696 65.95L251.896 69.55C252.829 70.7939 253.396 72.4733 253.396 74.8H259.396ZM256.711 65.9704C254.582 63.0815 251.302 61.9 247.596 61.9V67.9C250.023 67.9 251.209 68.6185 251.881 69.5296L256.711 65.9704ZM247.596 61.9C243.825 61.9 240.477 63.0581 238.301 65.9433L243.091 69.5567C243.781 68.6419 245.033 67.9 247.596 67.9V61.9ZM238.296 65.95C236.429 68.4394 235.596 71.4601 235.596 74.8H241.596C241.596 72.4733 242.163 70.7939 243.096 69.55L238.296 65.95ZM235.596 74.8C235.596 78.142 236.429 81.1672 238.281 83.6796L243.111 80.1204C242.162 78.8328 241.596 77.1247 241.596 74.8H235.596ZM238.301 83.7067C240.477 86.5919 243.825 87.75 247.596 87.75V81.75C245.033 81.75 243.781 81.0081 243.091 80.0933L238.301 83.7067ZM277.095 55.4V52.4C275.438 52.4 274.095 53.7431 274.095 55.4H277.095ZM318.495 55.4H321.495C321.495 53.7431 320.152 52.4 318.495 52.4V55.4ZM318.495 63.7V66.7C320.152 66.7 321.495 65.3569 321.495 63.7H318.495ZM277.095 63.7H274.095C274.095 65.3569 275.438 66.7 277.095 66.7V63.7ZM320.245 86.25L323.238 86.4588L323.238 86.4541L320.245 86.25ZM319.545 89.65L322.284 90.8751C322.286 90.8695 322.289 90.8639 322.291 90.8582L319.545 89.65ZM317.095 92.1L316.12 89.2629C316.111 89.2662 316.101 89.2694 316.092 89.2727L317.095 92.1ZM299.195 91.45L297.202 93.6922L299.195 91.45ZM297.845 74.5H300.845C300.845 72.8431 299.502 71.5 297.845 71.5V74.5ZM290.395 74.5V71.5C288.885 71.5 287.61 72.6227 287.419 74.1209C287.229 75.619 288.181 77.0255 289.643 77.4042L290.395 74.5ZM297.345 76.3L300.15 77.3647C300.453 76.5676 300.402 75.6793 300.01 74.9219C299.618 74.1645 298.923 73.6096 298.097 73.3958L297.345 76.3ZM291.295 86L289.099 83.9567C289.094 83.9613 289.09 83.9659 289.086 83.9705L291.295 86ZM281.795 93.15L279.609 95.2047C280.525 96.1792 281.976 96.4297 283.166 95.8187L281.795 93.15ZM277.345 88.8L275.306 91.0003C275.325 91.0175 275.343 91.0344 275.362 91.0511L277.345 88.8ZM272.245 84.75L271.23 81.9269C270.177 82.3056 269.422 83.2389 269.272 84.3479C269.122 85.4569 269.602 86.5572 270.517 87.202L272.245 84.75ZM279.295 81.7L280.757 84.3201L279.295 81.7ZM286.245 74.5L288.918 75.8634C289.392 74.9334 289.349 73.8236 288.804 72.9332C288.258 72.0428 287.289 71.5 286.245 71.5V74.5ZM274.495 74.5H271.495C271.495 76.1569 272.838 77.5 274.495 77.5V74.5ZM274.495 65.55V62.55C272.838 62.55 271.495 63.8931 271.495 65.55H274.495ZM320.345 65.55H323.345C323.345 63.8931 322.002 62.55 320.345 62.55V65.55ZM320.345 74.5V77.5C322.002 77.5 323.345 76.1569 323.345 74.5H320.345ZM308.545 74.5V71.5C306.888 71.5 305.545 72.8431 305.545 74.5H308.545ZM308.795 83.2L307.681 85.9854C307.851 86.0535 308.027 86.1058 308.207 86.1417L308.795 83.2ZM310.295 75L311.041 72.0942C310.103 71.8533 309.106 72.0803 308.365 72.7038C307.623 73.3272 307.228 74.2704 307.305 75.2361L310.295 75ZM320.395 76.4H323.395C323.395 74.8248 322.177 73.5179 320.606 73.4074L320.395 76.4ZM277.095 58.4H318.495V52.4H277.095V58.4ZM315.495 55.4V63.7H321.495V55.4H315.495ZM318.495 60.7H277.095V66.7H318.495V60.7ZM280.095 63.7V55.4H274.095V63.7H280.095ZM317.395 78.7C317.395 82.2671 317.345 84.692 317.252 86.0459L323.238 86.4541C323.346 84.8747 323.395 82.2662 323.395 78.7H317.395ZM317.253 86.0412C317.164 87.3055 316.97 88.0537 316.799 88.4418L322.291 90.8582C322.854 89.5797 323.126 88.0612 323.238 86.4588L317.253 86.0412ZM316.807 88.4249C316.496 89.1207 316.226 89.2265 316.12 89.2629L318.071 94.9371C320.098 94.2402 321.462 92.7126 322.284 90.8751L316.807 88.4249ZM316.092 89.2727C315.463 89.496 314.586 89.65 313.395 89.65V95.65C315.071 95.65 316.661 95.4373 318.099 94.9273L316.092 89.2727ZM313.395 89.65H303.595V95.65H313.395V89.65ZM303.595 89.65C301.829 89.65 301.269 89.2793 301.188 89.2078L297.202 93.6922C298.922 95.2207 301.295 95.65 303.595 95.65V89.65ZM301.188 89.2078C301.18 89.2006 300.845 88.9164 300.845 87.6H294.845C294.845 89.817 295.41 92.0994 297.202 93.6922L301.188 89.2078ZM300.845 87.6V74.5H294.845V87.6H300.845ZM297.845 71.5H290.395V77.5H297.845V71.5ZM289.643 77.4042L296.593 79.2042L298.097 73.3958L291.147 71.5958L289.643 77.4042ZM294.541 75.2353C293.314 78.4667 291.506 81.369 289.099 83.9567L293.492 88.0433C296.418 84.8977 298.643 81.3333 300.15 77.3647L294.541 75.2353ZM289.086 83.9705C286.708 86.5588 283.831 88.732 280.425 90.4813L283.166 95.8187C287.159 93.768 290.616 91.1745 293.505 88.0295L289.086 83.9705ZM283.981 91.0953C282.364 89.3747 280.813 87.8565 279.328 86.5489L275.362 91.0511C276.678 92.2102 278.093 93.592 279.609 95.2047L283.981 91.0953ZM279.385 86.5997C277.894 85.2181 276.083 83.7845 273.974 82.298L270.517 87.202C272.475 88.5822 274.063 89.8486 275.306 91.0003L279.385 86.5997ZM273.26 87.5731C276.303 86.4792 278.822 85.3988 280.757 84.3201L277.834 79.0799C276.302 79.9346 274.121 80.8875 271.23 81.9269L273.26 87.5731ZM280.757 84.3201C282.68 83.2476 284.333 82.0369 285.632 80.654L281.259 76.546C280.491 77.3631 279.378 78.2191 277.834 79.0799L280.757 84.3201ZM285.632 80.654C286.895 79.3092 287.982 77.6967 288.918 75.8634L283.573 73.1366C282.842 74.57 282.062 75.6908 281.259 76.546L285.632 80.654ZM286.245 71.5H274.495V77.5H286.245V71.5ZM277.495 74.5V65.55H271.495V74.5H277.495ZM274.495 68.55H320.345V62.55H274.495V68.55ZM317.345 65.55V74.5H323.345V65.55H317.345ZM320.345 71.5H308.545V77.5H320.345V71.5ZM305.545 74.5V82.85H311.545V74.5H305.545ZM305.545 82.85C305.545 83.4537 305.705 84.1599 306.167 84.8062C306.617 85.4365 307.199 85.7925 307.681 85.9854L309.909 80.4146C310.225 80.5408 310.682 80.8052 311.049 81.3188C311.427 81.8484 311.545 82.413 311.545 82.85H305.545ZM308.207 86.1417C308.693 86.2389 309.241 86.25 309.645 86.25V80.25C309.482 80.25 309.374 80.2465 309.309 80.2427C309.278 80.2408 309.267 80.2395 309.273 80.2402C309.277 80.2406 309.318 80.2451 309.384 80.2583L308.207 86.1417ZM309.645 86.25C310.465 86.25 311.62 86.0267 312.533 85.0662C313.418 84.1346 313.595 83.0085 313.595 82.25H307.595C307.595 82.1582 307.614 81.5321 308.183 80.9338C308.779 80.3066 309.459 80.25 309.645 80.25V86.25ZM313.595 82.25C313.595 79.8635 313.492 77.3677 313.286 74.7639L307.305 75.2361C307.499 77.6989 307.595 80.0365 307.595 82.25H313.595ZM309.549 77.9057C312.27 78.6042 315.841 79.0872 320.185 79.3926L320.606 73.4074C316.416 73.1128 313.254 72.6624 311.041 72.0942L309.549 77.9057ZM317.395 76.4V78.7H323.395V76.4H317.395ZM338.745 67.9V64.9C337.088 64.9 335.745 66.2431 335.745 67.9H338.745ZM338.745 71.05H335.745C335.745 71.8828 336.091 72.6781 336.701 73.2456C337.31 73.8131 338.128 74.1017 338.959 74.0424L338.745 71.05ZM340.145 70.95L343.144 71.0516C343.172 70.2017 342.839 69.3794 342.227 68.7894C341.614 68.1993 340.78 67.897 339.932 67.9576L340.145 70.95ZM340.045 79.8L340.389 82.7802C341.903 82.6056 343.045 81.3238 343.045 79.8H340.045ZM338.745 79.95L338.401 76.9698C336.888 77.1444 335.745 78.4262 335.745 79.95H338.745ZM337.995 90.35L335.279 89.0767C335.268 89.1002 335.257 89.1238 335.247 89.1475L337.995 90.35ZM335.345 92.4L335.963 95.3356C335.982 95.3317 336.001 95.3275 336.02 95.3232L335.345 92.4ZM328.095 93L327.983 90.0021C327.973 90.0025 327.963 90.0029 327.953 90.0034L328.095 93ZM327.045 93.05L324.054 93.2837C324.181 94.9001 325.568 96.1237 327.188 96.0466L327.045 93.05ZM326.395 87.85L323.44 88.3671C323.444 88.3909 323.449 88.4147 323.454 88.4383L326.395 87.85ZM324.995 83.65V80.65C323.965 80.65 323.007 81.1783 322.458 82.0495C321.908 82.9206 321.844 84.0127 322.288 84.9422L324.995 83.65ZM327.445 83.5L328.074 86.4334C328.122 86.423 328.17 86.4115 328.218 86.3987L327.445 83.5ZM328.345 82.95L325.588 81.7682L328.345 82.95ZM328.495 80.95H331.495C331.495 80.0967 331.132 79.2837 330.496 78.7146C329.86 78.1455 329.012 77.8741 328.164 77.9683L328.495 80.95ZM325.745 81.2L322.747 81.3016C322.774 82.1065 323.124 82.8667 323.718 83.411C324.311 83.9554 325.099 84.2382 325.903 84.1959L325.745 81.2ZM324.945 71.85L324.819 68.8527C323.956 68.8891 323.151 69.2955 322.609 69.9678C322.067 70.6402 321.842 71.5134 321.99 72.364L324.945 71.85ZM328.495 71.7L328.622 74.6973C330.228 74.6295 331.495 73.3076 331.495 71.7H328.495ZM328.495 67.9H331.495C331.495 66.2431 330.152 64.9 328.495 64.9V67.9ZM325.745 67.9H322.745C322.745 69.5569 324.088 70.9 325.745 70.9V67.9ZM325.745 59.05V56.05C324.088 56.05 322.745 57.3931 322.745 59.05H325.745ZM328.495 59.05V62.05C330.152 62.05 331.495 60.7069 331.495 59.05H328.495ZM328.495 54.95V51.95C326.838 51.95 325.495 53.2931 325.495 54.95H328.495ZM338.745 54.95H341.745C341.745 53.2931 340.402 51.95 338.745 51.95V54.95ZM338.745 59.05H335.745C335.745 60.7069 337.088 62.05 338.745 62.05V59.05ZM340.045 59.05H343.045C343.045 57.3931 341.702 56.05 340.045 56.05V59.05ZM340.045 67H337.045C337.045 67.8138 337.376 68.5927 337.961 69.158C338.547 69.7233 339.337 70.0265 340.15 69.9982L340.045 67ZM348.695 65.65L349.493 68.542C349.515 68.536 349.536 68.5299 349.557 68.5235L348.695 65.65ZM349.195 65.5L350.057 68.3735C351.483 67.9457 352.38 66.5372 352.164 65.0644C351.947 63.5916 350.684 62.5 349.195 62.5V65.5ZM342.395 65.5H339.395C339.395 67.1569 340.738 68.5 342.395 68.5V65.5ZM342.395 62.05H345.395C345.395 60.3931 344.052 59.05 342.395 59.05V62.05ZM340.795 62.05H337.795C337.795 63.7069 339.138 65.05 340.795 65.05V62.05ZM340.795 56.2V53.2C339.138 53.2 337.795 54.5431 337.795 56.2H340.795ZM342.395 56.2V59.2C344.052 59.2 345.395 57.8569 345.395 56.2H342.395ZM342.395 54.75V51.75C340.738 51.75 339.395 53.0931 339.395 54.75H342.395ZM352.195 54.75H355.195C355.195 53.0931 353.852 51.75 352.195 51.75V54.75ZM352.195 56.2H349.195C349.195 57.8569 350.538 59.2 352.195 59.2V56.2ZM360.895 56.2V59.2C362.552 59.2 363.895 57.8569 363.895 56.2H360.895ZM360.895 54.75V51.75C359.238 51.75 357.895 53.0931 357.895 54.75H360.895ZM370.745 54.75H373.745C373.745 53.0931 372.402 51.75 370.745 51.75V54.75ZM370.745 56.2H367.745C367.745 57.8569 369.088 59.2 370.745 59.2V56.2ZM373.645 56.2H376.645C376.645 54.5431 375.302 53.2 373.645 53.2V56.2ZM373.645 62.05V65.05C375.302 65.05 376.645 63.7069 376.645 62.05H373.645ZM370.745 62.05V59.05C369.088 59.05 367.745 60.3931 367.745 62.05H370.745ZM370.745 65.5V68.5C372.402 68.5 373.745 67.1569 373.745 65.5H370.745ZM364.145 65.5V62.5C362.603 62.5 361.312 63.6695 361.16 65.2044C361.008 66.7393 362.045 68.1393 363.557 68.4417L364.145 65.5ZM374.245 66.85L376.85 68.3384C377.358 67.4495 377.378 66.3628 376.902 65.4562C376.426 64.5495 375.521 63.9481 374.501 63.8609L374.245 66.85ZM372.745 70.6L369.87 69.7436C369.866 69.7571 369.862 69.7706 369.858 69.7841L372.745 70.6ZM372.095 74.6L371.461 77.5322C372.348 77.7239 373.273 77.5043 373.979 76.9347C374.685 76.3652 375.095 75.5069 375.095 74.6H372.095ZM370.245 74.2L370.879 71.2678C369.993 71.0761 369.067 71.2957 368.361 71.8653C367.656 72.4348 367.245 73.2931 367.245 74.2H370.245ZM370.245 77.85V80.85C371.902 80.85 373.245 79.5069 373.245 77.85H370.245ZM343.045 77.85H340.045C340.045 79.5069 341.388 80.85 343.045 80.85V77.85ZM343.045 74.6H346.045C346.045 73.69 345.632 72.8293 344.922 72.2599C344.213 71.6905 343.283 71.474 342.395 71.6714L343.045 74.6ZM341.295 74.95H338.295C338.295 75.8449 338.695 76.6931 339.385 77.263C340.075 77.8329 340.983 78.065 341.862 77.896L341.295 74.95ZM340.895 71.2L343.834 70.5972L343.834 70.5972L340.895 71.2ZM339.845 67.9L342.548 66.5986C342.048 65.5602 340.998 64.9 339.845 64.9V67.9ZM360.895 63.25V66.25C362.552 66.25 363.895 64.9069 363.895 63.25H360.895ZM360.895 62.05H363.895C363.895 60.3931 362.552 59.05 360.895 59.05V62.05ZM352.195 62.05V59.05C350.538 59.05 349.195 60.3931 349.195 62.05H352.195ZM352.195 63.25H349.195C349.195 64.9069 350.538 66.25 352.195 66.25V63.25ZM361.595 71.95V74.95C363.064 74.95 364.316 73.8872 364.555 72.4385C364.794 70.9897 363.95 69.5808 362.559 69.1091L361.595 71.95ZM356.245 69.65L357.649 66.9986C356.69 66.4911 355.532 66.5406 354.62 67.1283L356.245 69.65ZM352.095 71.75L351.124 68.9115C351.106 68.9177 351.088 68.9241 351.07 68.9306L352.095 71.75ZM351.545 71.95L350.52 69.1306C349.152 69.6282 348.338 71.0365 348.591 72.4705C348.843 73.9045 350.089 74.95 351.545 74.95V71.95ZM341.095 78.75V75.75C339.438 75.75 338.095 77.0931 338.095 78.75H341.095ZM372.245 78.75H375.245C375.245 77.0931 373.902 75.75 372.245 75.75V78.75ZM372.245 93.05V96.05C373.902 96.05 375.245 94.7069 375.245 93.05H372.245ZM360.995 93.05H357.995C357.995 94.7069 359.338 96.05 360.995 96.05V93.05ZM360.995 92.55H363.995C363.995 90.8931 362.652 89.55 360.995 89.55V92.55ZM352.195 92.55V89.55C350.538 89.55 349.195 90.8931 349.195 92.55H352.195ZM352.195 93.05V96.05C353.852 96.05 355.195 94.7069 355.195 93.05H352.195ZM341.095 93.05H338.095C338.095 94.7069 339.438 96.05 341.095 96.05V93.05ZM352.195 86.25H349.195C349.195 87.9069 350.538 89.25 352.195 89.25V86.25ZM360.995 86.25V89.25C362.652 89.25 363.995 87.9069 363.995 86.25H360.995ZM360.995 84.25H363.995C363.995 82.5931 362.652 81.25 360.995 81.25V84.25ZM352.195 84.25V81.25C350.538 81.25 349.195 82.5931 349.195 84.25H352.195ZM335.745 67.9V71.05H341.745V67.9H335.745ZM338.959 74.0424L340.359 73.9424L339.932 67.9576L338.532 68.0576L338.959 74.0424ZM337.147 70.8484C337.079 72.8677 337.045 75.8591 337.045 79.8H343.045C343.045 75.8742 343.079 72.9656 343.144 71.0516L337.147 70.8484ZM339.701 76.8198L338.401 76.9698L339.089 82.9302L340.389 82.7802L339.701 76.8198ZM335.745 79.95V84.65H341.745V79.95H335.745ZM335.745 84.65C335.745 87.3765 335.469 88.6709 335.279 89.0767L340.712 91.6233C341.521 89.8957 341.745 87.3901 341.745 84.65H335.745ZM335.247 89.1475C335.206 89.2407 335.174 89.2688 335.147 89.2896C335.108 89.3196 334.98 89.4056 334.671 89.4768L336.02 95.3232C338.09 94.8454 339.838 93.6237 340.744 91.5525L335.247 89.1475ZM334.727 89.4644C333.747 89.6707 331.577 89.8677 327.983 90.0021L328.207 95.9979C331.747 95.8656 334.41 95.6626 335.963 95.3356L334.727 89.4644ZM327.953 90.0034L326.903 90.0534L327.188 96.0466L328.238 95.9966L327.953 90.0034ZM330.036 92.8163C329.865 90.6231 329.636 88.7587 329.337 87.2617L323.454 88.4383C323.688 89.608 323.892 91.2103 324.054 93.2837L330.036 92.8163ZM329.35 87.3329C329.062 85.6838 328.497 84.0229 327.703 82.3578L322.288 84.9422C322.893 86.2105 323.262 87.3496 323.44 88.3671L329.35 87.3329ZM324.995 86.65C326.157 86.65 327.263 86.6072 328.074 86.4334L326.817 80.5666C326.819 80.5662 326.778 80.5746 326.681 80.5859C326.588 80.5968 326.462 80.6081 326.299 80.6181C325.972 80.6382 325.541 80.65 324.995 80.65V86.65ZM328.218 86.3987C328.629 86.2893 329.127 86.1172 329.61 85.8223C330.092 85.5278 330.729 85.0028 331.103 84.1318L325.588 81.7682C325.861 81.1306 326.299 80.8139 326.481 80.7027C326.663 80.5912 326.762 80.5774 326.672 80.6013L328.218 86.3987ZM331.103 84.1318C331.469 83.2767 331.495 82.2992 331.495 81.7H325.495C325.495 81.8093 325.493 81.898 325.49 81.9683C325.486 82.0393 325.482 82.0835 325.479 82.1051C325.476 82.1284 325.477 82.1121 325.488 82.066C325.493 82.0418 325.503 82.0045 325.518 81.9566C325.533 81.9092 325.555 81.8448 325.588 81.7682L331.103 84.1318ZM331.495 81.7V80.95H325.495V81.7H331.495ZM328.164 77.9683C326.98 78.0999 326.132 78.1755 325.588 78.2041L325.903 84.1959C326.625 84.1579 327.61 84.0668 328.827 83.9317L328.164 77.9683ZM328.744 81.0984C328.608 77.1067 328.335 73.8332 327.901 71.336L321.99 72.364C322.355 74.4668 322.616 77.4267 322.747 81.3016L328.744 81.0984ZM325.072 74.8473L328.622 74.6973L328.369 68.7027L324.819 68.8527L325.072 74.8473ZM331.495 71.7V67.9H325.495V71.7H331.495ZM328.495 64.9H325.745V70.9H328.495V64.9ZM328.745 67.9V59.05H322.745V67.9H328.745ZM325.745 62.05H328.495V56.05H325.745V62.05ZM331.495 59.05V54.95H325.495V59.05H331.495ZM328.495 57.95H338.745V51.95H328.495V57.95ZM335.745 54.95V59.05H341.745V54.95H335.745ZM338.745 62.05H340.045V56.05H338.745V62.05ZM337.045 59.05V67H343.045V59.05H337.045ZM340.15 69.9982C343.262 69.8896 346.378 69.4013 349.493 68.542L347.898 62.758C345.213 63.4987 342.562 63.9104 339.941 64.0018L340.15 69.9982ZM349.557 68.5235L350.057 68.3735L348.333 62.6265L347.833 62.7765L349.557 68.5235ZM349.195 62.5H342.395V68.5H349.195V62.5ZM345.395 65.5V62.05H339.395V65.5H345.395ZM342.395 59.05H340.795V65.05H342.395V59.05ZM343.795 62.05V56.2H337.795V62.05H343.795ZM340.795 59.2H342.395V53.2H340.795V59.2ZM345.395 56.2V54.75H339.395V56.2H345.395ZM342.395 57.75H352.195V51.75H342.395V57.75ZM349.195 54.75V56.2H355.195V54.75H349.195ZM352.195 59.2H360.895V53.2H352.195V59.2ZM363.895 56.2V54.75H357.895V56.2H363.895ZM360.895 57.75H370.745V51.75H360.895V57.75ZM367.745 54.75V56.2H373.745V54.75H367.745ZM370.745 59.2H373.645V53.2H370.745V59.2ZM370.645 56.2V62.05H376.645V56.2H370.645ZM373.645 59.05H370.745V65.05H373.645V59.05ZM367.745 62.05V65.5H373.745V62.05H367.745ZM370.745 62.5H364.145V68.5H370.745V62.5ZM363.557 68.4417C366.531 69.0365 370.014 69.4993 373.99 69.8391L374.501 63.8609C370.676 63.534 367.426 63.0968 364.734 62.5583L363.557 68.4417ZM371.641 65.3616C370.951 66.5692 370.372 68.058 369.87 69.7436L375.62 71.4564C376.052 70.0087 376.473 68.9975 376.85 68.3384L371.641 65.3616ZM369.858 69.7841C369.378 71.4844 369.095 73.1044 369.095 74.6H375.095C375.095 73.829 375.246 72.7822 375.632 71.4159L369.858 69.7841ZM372.729 71.6678L370.879 71.2678L369.611 77.1322L371.461 77.5322L372.729 71.6678ZM367.245 74.2V77.85H373.245V74.2H367.245ZM370.245 74.85H343.045V80.85H370.245V74.85ZM346.045 77.85V74.6H340.045V77.85H346.045ZM342.395 71.6714C342.143 71.7273 341.601 71.8362 340.729 72.004L341.862 77.896C342.723 77.7304 343.348 77.606 343.696 77.5286L342.395 71.6714ZM344.295 74.95C344.295 73.5275 344.137 72.0749 343.834 70.5972L337.957 71.8028C338.187 72.9251 338.295 73.9725 338.295 74.95H344.295ZM343.834 70.5972C343.533 69.1293 343.117 67.7798 342.548 66.5986L337.142 69.2014C337.44 69.8202 337.724 70.6707 337.957 71.8028L343.834 70.5972ZM339.845 64.9H338.745V70.9H339.845V64.9ZM363.895 63.25V62.05H357.895V63.25H363.895ZM360.895 59.05H352.195V65.05H360.895V59.05ZM349.195 62.05V63.25H355.195V62.05H349.195ZM352.195 66.25H360.895V60.25H352.195V66.25ZM362.559 69.1091C360.84 68.5258 359.204 67.822 357.649 66.9986L354.842 72.3014C356.686 73.278 358.617 74.1075 360.631 74.7909L362.559 69.1091ZM354.62 67.1283C353.261 68.004 352.099 68.578 351.124 68.9115L353.066 74.5885C354.625 74.0554 356.229 73.2294 357.87 72.1717L354.62 67.1283ZM351.07 68.9306L350.52 69.1306L352.571 74.7694L353.121 74.5694L351.07 68.9306ZM351.545 74.95H361.595V68.95H351.545V74.95ZM341.095 81.75H372.245V75.75H341.095V81.75ZM369.245 78.75V93.05H375.245V78.75H369.245ZM372.245 90.05H360.995V96.05H372.245V90.05ZM363.995 93.05V92.55H357.995V93.05H363.995ZM360.995 89.55H352.195V95.55H360.995V89.55ZM349.195 92.55V93.05H355.195V92.55H349.195ZM352.195 90.05H341.095V96.05H352.195V90.05ZM344.095 93.05V78.75H338.095V93.05H344.095ZM352.195 89.25H360.995V83.25H352.195V89.25ZM363.995 86.25V84.25H357.995V86.25H363.995ZM360.995 81.25H352.195V87.25H360.995V81.25ZM349.195 84.25V86.25H355.195V84.25H349.195ZM424.595 56.05H427.595C427.595 54.3931 426.252 53.05 424.595 53.05V56.05ZM424.595 63.05V66.05C426.252 66.05 427.595 64.7069 427.595 63.05H424.595ZM406.645 63.05V60.05C404.988 60.05 403.645 61.3931 403.645 63.05H406.645ZM406.645 64.1H403.645C403.645 65.7569 404.988 67.1 406.645 67.1V64.1ZM423.095 64.1H426.095C426.095 62.4431 424.752 61.1 423.095 61.1V64.1ZM423.095 81.9V84.9C424.752 84.9 426.095 83.5569 426.095 81.9H423.095ZM406.645 81.9V78.9C404.988 78.9 403.645 80.2431 403.645 81.9H406.645ZM406.645 83.05H403.645C403.645 84.7069 404.988 86.05 406.645 86.05V83.05ZM424.595 83.05H427.595C427.595 81.3931 426.252 80.05 424.595 80.05V83.05ZM424.595 90.75V93.75C426.252 93.75 427.595 92.4069 427.595 90.75H424.595ZM406.645 90.75V87.75C404.988 87.75 403.645 89.0931 403.645 90.75H406.645ZM406.645 93.4V96.4C408.302 96.4 409.645 95.0569 409.645 93.4H406.645ZM396.245 93.4H393.245C393.245 95.0569 394.588 96.4 396.245 96.4V93.4ZM396.245 90.75H399.245C399.245 89.0931 397.902 87.75 396.245 87.75V90.75ZM378.295 90.75H375.295C375.295 92.4069 376.638 93.75 378.295 93.75V90.75ZM378.295 83.05V80.05C376.638 80.05 375.295 81.3931 375.295 83.05H378.295ZM396.245 83.05V86.05C397.902 86.05 399.245 84.7069 399.245 83.05H396.245ZM396.245 81.9H399.245C399.245 80.2431 397.902 78.9 396.245 78.9V81.9ZM379.795 81.9H376.795C376.795 83.5569 378.138 84.9 379.795 84.9V81.9ZM379.795 64.1V61.1C378.138 61.1 376.795 62.4431 376.795 64.1H379.795ZM396.245 64.1V67.1C397.902 67.1 399.245 65.7569 399.245 64.1H396.245ZM396.245 63.05H399.245C399.245 61.3931 397.902 60.05 396.245 60.05V63.05ZM378.295 63.05H375.295C375.295 64.7069 376.638 66.05 378.295 66.05V63.05ZM378.295 56.05V53.05C376.638 53.05 375.295 54.3931 375.295 56.05H378.295ZM396.245 56.05V59.05C397.902 59.05 399.245 57.7069 399.245 56.05H396.245ZM396.245 54.5V51.5C394.588 51.5 393.245 52.8431 393.245 54.5H396.245ZM406.645 54.5H409.645C409.645 52.8431 408.302 51.5 406.645 51.5V54.5ZM406.645 56.05H403.645C403.645 57.7069 404.988 59.05 406.645 59.05V56.05ZM396.245 69.15H399.245C399.245 67.4931 397.902 66.15 396.245 66.15V69.15ZM390.795 69.15V66.15C389.138 66.15 387.795 67.4931 387.795 69.15H390.795ZM390.795 70.5H387.795C387.795 72.1569 389.138 73.5 390.795 73.5V70.5ZM396.245 70.5V73.5C397.902 73.5 399.245 72.1569 399.245 70.5H396.245ZM412.095 70.5V73.5C413.752 73.5 415.095 72.1569 415.095 70.5H412.095ZM412.095 69.15H415.095C415.095 67.4931 413.752 66.15 412.095 66.15V69.15ZM406.645 69.15V66.15C404.988 66.15 403.645 67.4931 403.645 69.15H406.645ZM406.645 70.5H403.645C403.645 72.1569 404.988 73.5 406.645 73.5V70.5ZM390.795 75.05V72.05C389.138 72.05 387.795 73.3931 387.795 75.05H390.795ZM390.795 76.35H387.795C387.795 78.0069 389.138 79.35 390.795 79.35V76.35ZM396.245 76.35V79.35C397.902 79.35 399.245 78.0069 399.245 76.35H396.245ZM396.245 75.05H399.245C399.245 73.3931 397.902 72.05 396.245 72.05V75.05ZM406.645 76.35H403.645C403.645 78.0069 404.988 79.35 406.645 79.35V76.35ZM412.095 76.35V79.35C413.752 79.35 415.095 78.0069 415.095 76.35H412.095ZM412.095 75.05H415.095C415.095 73.3931 413.752 72.05 412.095 72.05V75.05ZM406.645 75.05V72.05C404.988 72.05 403.645 73.3931 403.645 75.05H406.645ZM421.595 56.05V63.05H427.595V56.05H421.595ZM424.595 60.05H406.645V66.05H424.595V60.05ZM403.645 63.05V64.1H409.645V63.05H403.645ZM406.645 67.1H423.095V61.1H406.645V67.1ZM420.095 64.1V81.9H426.095V64.1H420.095ZM423.095 78.9H406.645V84.9H423.095V78.9ZM403.645 81.9V83.05H409.645V81.9H403.645ZM406.645 86.05H424.595V80.05H406.645V86.05ZM421.595 83.05V90.75H427.595V83.05H421.595ZM424.595 87.75H406.645V93.75H424.595V87.75ZM403.645 90.75V93.4H409.645V90.75H403.645ZM406.645 90.4H396.245V96.4H406.645V90.4ZM399.245 93.4V90.75H393.245V93.4H399.245ZM396.245 87.75H378.295V93.75H396.245V87.75ZM381.295 90.75V83.05H375.295V90.75H381.295ZM378.295 86.05H396.245V80.05H378.295V86.05ZM399.245 83.05V81.9H393.245V83.05H399.245ZM396.245 78.9H379.795V84.9H396.245V78.9ZM382.795 81.9V64.1H376.795V81.9H382.795ZM379.795 67.1H396.245V61.1H379.795V67.1ZM399.245 64.1V63.05H393.245V64.1H399.245ZM396.245 60.05H378.295V66.05H396.245V60.05ZM381.295 63.05V56.05H375.295V63.05H381.295ZM378.295 59.05H396.245V53.05H378.295V59.05ZM399.245 56.05V54.5H393.245V56.05H399.245ZM396.245 57.5H406.645V51.5H396.245V57.5ZM403.645 54.5V56.05H409.645V54.5H403.645ZM406.645 59.05H424.595V53.05H406.645V59.05ZM396.245 66.15H390.795V72.15H396.245V66.15ZM387.795 69.15V70.5H393.795V69.15H387.795ZM390.795 73.5H396.245V67.5H390.795V73.5ZM399.245 70.5V69.15H393.245V70.5H399.245ZM415.095 70.5V69.15H409.095V70.5H415.095ZM412.095 66.15H406.645V72.15H412.095V66.15ZM403.645 69.15V70.5H409.645V69.15H403.645ZM406.645 73.5H412.095V67.5H406.645V73.5ZM387.795 75.05V76.35H393.795V75.05H387.795ZM390.795 79.35H396.245V73.35H390.795V79.35ZM399.245 76.35V75.05H393.245V76.35H399.245ZM396.245 72.05H390.795V78.05H396.245V72.05ZM406.645 79.35H412.095V73.35H406.645V79.35ZM415.095 76.35V75.05H409.095V76.35H415.095ZM412.095 72.05H406.645V78.05H412.095V72.05ZM403.645 75.05V76.35H409.645V75.05H403.645ZM470.845 81.65L473.756 82.3776C473.964 81.5466 473.806 80.6665 473.323 79.959C472.84 79.2515 472.078 78.7841 471.229 78.6746L470.845 81.65ZM470.445 83.1L467.578 82.2177C467.562 82.2689 467.548 82.3205 467.535 82.3724L470.445 83.1ZM470.195 84.15L467.267 83.4992C467.069 84.3875 467.286 85.3174 467.855 86.0272C468.425 86.737 469.285 87.15 470.195 87.15V84.15ZM476.795 84.15H479.795C479.795 82.4931 478.452 81.15 476.795 81.15V84.15ZM476.795 92.3V95.3C478.452 95.3 479.795 93.9569 479.795 92.3H476.795ZM430.095 92.3H427.095C427.095 93.9569 428.438 95.3 430.095 95.3V92.3ZM430.095 84.15V81.15C428.438 81.15 427.095 82.4931 427.095 84.15H430.095ZM436.495 84.15V87.15C437.405 87.15 438.266 86.737 438.835 86.0272C439.405 85.3174 439.621 84.3875 439.424 83.4992L436.495 84.15ZM436.195 83.1L433.272 83.7746C433.293 83.8671 433.319 83.9586 433.349 84.0487L436.195 83.1ZM435.845 81.65L435.462 78.6746C434.612 78.7841 433.85 79.2515 433.367 79.959C432.885 80.6665 432.727 81.5466 432.935 82.3776L435.845 81.65ZM445.545 80.4L448.515 79.9757C448.283 78.3514 446.789 77.2149 445.162 77.4246L445.545 80.4ZM446.195 84.15L443.254 84.7383C443.534 86.1406 444.765 87.15 446.195 87.15V84.15ZM447.495 84.15V87.15C449.152 87.15 450.495 85.8069 450.495 84.15H447.495ZM447.495 79.9H450.495C450.495 78.2431 449.152 76.9 447.495 76.9V79.9ZM431.745 79.9H428.745C428.745 81.5569 430.088 82.9 431.745 82.9V79.9ZM431.745 72.8V69.8C430.088 69.8 428.745 71.1431 428.745 72.8H431.745ZM447.495 72.8V75.8C449.152 75.8 450.495 74.4569 450.495 72.8H447.495ZM447.495 71.85H450.495C450.495 70.1931 449.152 68.85 447.495 68.85V71.85ZM432.645 71.85H429.645C429.645 73.5069 430.988 74.85 432.645 74.85V71.85ZM432.645 70.2H435.645C435.645 69.3467 435.282 68.5337 434.646 67.9646C434.01 67.3955 433.162 67.1241 432.314 67.2183L432.645 70.2ZM431.595 70.3L431.346 67.3104H431.346L431.595 70.3ZM430.145 70.35L427.146 70.4167C427.182 72.0471 428.514 73.35 430.145 73.35V70.35ZM429.745 65.05L426.759 65.339C426.761 65.3567 426.763 65.3744 426.765 65.392L429.745 65.05ZM429.045 59.85L429.142 56.8516C428.232 56.8222 427.357 57.2081 426.765 57.9004C426.173 58.5927 425.928 59.5165 426.098 60.4113L429.045 59.85ZM430.595 59.9L430.499 62.8984C430.531 62.8995 430.563 62.9 430.595 62.9V59.9ZM436.895 59.5L436.545 56.5205L436.54 56.5212L436.895 59.5ZM442.845 58.25L441.915 55.3978C441.909 55.3998 441.903 55.4019 441.897 55.4039L442.845 58.25ZM446.145 56.7L448.019 59.0426V59.0426L446.145 56.7ZM447.345 54.5V51.5C445.852 51.5 444.587 52.5978 444.375 54.0757L447.345 54.5ZM459.695 54.5L462.572 55.3523C462.841 54.4447 462.665 53.4635 462.099 52.7051C461.533 51.9467 460.642 51.5 459.695 51.5V54.5ZM458.745 56.95L456.062 55.6084C455.676 56.3799 455.641 57.2802 455.966 58.0794C456.291 58.8786 456.944 59.4993 457.759 59.7831L458.745 56.95ZM478.095 59.85L481.032 60.4646C481.219 59.5704 480.988 58.6397 480.406 57.9362C479.823 57.2327 478.951 56.8331 478.038 56.8505L478.095 59.85ZM477.195 65L474.229 64.555C474.226 64.5711 474.224 64.5873 474.222 64.6035L477.195 65ZM476.595 70.35L476.215 73.3258C477.026 73.4294 477.844 73.1975 478.48 72.6837C479.116 72.17 479.515 71.419 479.585 70.6044L476.595 70.35ZM474.245 70.05L474.625 67.0742C473.77 66.965 472.91 67.2288 472.263 67.7984C471.616 68.3679 471.245 69.1881 471.245 70.05H474.245ZM474.245 71.85V74.85C475.902 74.85 477.245 73.5069 477.245 71.85H474.245ZM459.395 71.85V68.85C457.738 68.85 456.395 70.1931 456.395 71.85H459.395ZM459.395 72.8H456.395C456.395 74.4569 457.738 75.8 459.395 75.8V72.8ZM475.145 72.8H478.145C478.145 71.1431 476.802 69.8 475.145 69.8V72.8ZM475.145 79.9V82.9C476.802 82.9 478.145 81.5569 478.145 79.9H475.145ZM459.395 79.9V76.9C457.738 76.9 456.395 78.2431 456.395 79.9H459.395ZM459.395 84.15H456.395C456.395 85.8069 457.738 87.15 459.395 87.15V84.15ZM460.495 84.15V87.15C461.925 87.15 463.157 86.1406 463.437 84.7383L460.495 84.15ZM461.145 80.4L461.529 77.4246C459.901 77.2149 458.408 78.3514 458.175 79.9757L461.145 80.4ZM452.695 62.7L454.17 60.0875C453.167 59.5212 451.928 59.5794 450.982 60.2373L452.695 62.7ZM447.795 65.65L446.413 62.9875C445.186 63.6247 444.553 65.0182 444.881 66.3615C445.209 67.7048 446.413 68.65 447.795 68.65V65.65ZM458.645 65.65V68.65C460.073 68.65 461.303 67.6435 461.586 66.2438C461.869 64.8441 461.126 63.4392 459.809 62.8851L458.645 65.65ZM467.935 80.9224C467.812 81.4143 467.693 81.8449 467.578 82.2177L473.313 83.9823C473.465 83.4884 473.612 82.9524 473.756 82.3776L467.935 80.9224ZM467.535 82.3724C467.431 82.7899 467.341 83.1666 467.267 83.4992L473.124 84.8008C473.183 84.5334 473.26 84.2101 473.356 83.8276L467.535 82.3724ZM470.195 87.15H476.795V81.15H470.195V87.15ZM473.795 84.15V92.3H479.795V84.15H473.795ZM476.795 89.3H430.095V95.3H476.795V89.3ZM433.095 92.3V84.15H427.095V92.3H433.095ZM430.095 87.15H436.495V81.15H430.095V87.15ZM439.424 83.4992C439.328 83.0694 439.196 82.616 439.041 82.1513L433.349 84.0487C433.461 84.384 433.529 84.6306 433.567 84.8008L439.424 83.4992ZM439.118 82.4254C439.014 81.9708 438.893 81.4694 438.756 80.9224L432.935 82.3776C433.065 82.8972 433.177 83.3625 433.272 83.7746L439.118 82.4254ZM436.229 84.6254L445.929 83.3754L445.162 77.4246L435.462 78.6746L436.229 84.6254ZM442.575 80.8243C442.751 82.0534 442.978 83.3586 443.254 84.7383L449.137 83.5616C448.88 82.2747 448.673 81.0799 448.515 79.9757L442.575 80.8243ZM446.195 87.15H447.495V81.15H446.195V87.15ZM450.495 84.15V79.9H444.495V84.15H450.495ZM447.495 76.9H431.745V82.9H447.495V76.9ZM434.745 79.9V72.8H428.745V79.9H434.745ZM431.745 75.8H447.495V69.8H431.745V75.8ZM450.495 72.8V71.85H444.495V72.8H450.495ZM447.495 68.85H432.645V74.85H447.495V68.85ZM435.645 71.85V70.2H429.645V71.85H435.645ZM432.314 67.2183C432.049 67.2478 431.727 67.2786 431.346 67.3104L431.844 73.2896C432.264 73.2547 432.642 73.2188 432.977 73.1816L432.314 67.2183ZM431.346 67.3104C431.055 67.3346 430.66 67.35 430.145 67.35V73.35C430.764 73.35 431.336 73.332 431.844 73.2896L431.346 67.3104ZM433.145 70.2833C433.109 68.6651 432.966 66.8024 432.726 64.708L426.765 65.392C426.991 67.3643 427.115 69.0349 427.146 70.4167L433.145 70.2833ZM432.731 64.761C432.526 62.6402 432.282 60.8093 431.992 59.2887L426.098 60.4113C426.342 61.6907 426.565 63.3265 426.759 65.339L432.731 64.761ZM428.949 62.8484L430.499 62.8984L430.692 56.9016L429.142 56.8516L428.949 62.8484ZM430.595 62.9C432.696 62.9 434.916 62.7576 437.251 62.4788L436.54 56.5212C434.408 56.7757 432.428 56.9 430.595 56.9V62.9ZM437.246 62.4795C439.664 62.195 441.855 61.7423 443.794 61.096L441.897 55.4039C440.435 55.8911 438.66 56.2717 436.545 56.5205L437.246 62.4795ZM443.775 61.1022C445.402 60.5716 446.921 59.9211 448.019 59.0426L444.271 54.3574C444.036 54.5455 443.355 54.9284 441.915 55.3978L443.775 61.1022ZM448.019 59.0426C449.346 57.981 450.086 56.5275 450.315 54.9243L444.375 54.0757C444.353 54.2329 444.319 54.2992 444.312 54.3134C444.306 54.3229 444.301 54.3337 444.271 54.3574L448.019 59.0426ZM447.345 57.5H459.695V51.5H447.345V57.5ZM456.819 53.6477C456.595 54.4029 456.34 55.0528 456.062 55.6084L461.429 58.2916C461.884 57.3805 462.262 56.3971 462.572 55.3523L456.819 53.6477ZM457.759 59.7831C464.062 61.9786 470.869 62.9888 478.153 62.8494L478.038 56.8505C471.388 56.9778 465.295 56.0547 459.732 54.1169L457.759 59.7831ZM475.159 59.2354C474.844 60.7415 474.534 62.5178 474.229 64.555L480.162 65.445C480.457 63.4822 480.747 61.8251 481.032 60.4646L475.159 59.2354ZM474.222 64.6035C473.95 66.6383 473.744 68.4704 473.606 70.0956L479.585 70.6044C479.713 69.0963 479.907 67.3617 480.169 65.3965L474.222 64.6035ZM476.975 67.3742L474.625 67.0742L473.865 73.0258L476.215 73.3258L476.975 67.3742ZM471.245 70.05V71.85H477.245V70.05H471.245ZM474.245 68.85H459.395V74.85H474.245V68.85ZM456.395 71.85V72.8H462.395V71.85H456.395ZM459.395 75.8H475.145V69.8H459.395V75.8ZM472.145 72.8V79.9H478.145V72.8H472.145ZM475.145 76.9H459.395V82.9H475.145V76.9ZM456.395 79.9V84.15H462.395V79.9H456.395ZM459.395 87.15H460.495V81.15H459.395V87.15ZM463.437 84.7383C463.713 83.3586 463.94 82.0534 464.115 80.8243L458.175 79.9757C458.018 81.0799 457.811 82.2747 457.554 83.5616L463.437 84.7383ZM460.762 83.3754L470.462 84.6254L471.229 78.6746L461.529 77.4246L460.762 83.3754ZM450.982 60.2373C449.559 61.2271 448.037 62.1442 446.413 62.9875L449.178 68.3125C451.02 67.3558 452.765 66.3063 454.409 65.1627L450.982 60.2373ZM447.795 68.65H458.645V62.65H447.795V68.65ZM459.809 62.8851C458.03 62.136 456.151 61.2057 454.17 60.0875L451.221 65.3125C453.373 66.5276 455.46 67.564 457.481 68.4149L459.809 62.8851Z" fill="white" mask="url(#path-4-outside-2_286_3287)"/>
</g>
<defs>
<filter id="filter0_d_286_3287" x="76.4043" y="53.25" width="401.691" height="43.25" filterUnits="userSpaceOnUse" color-interpolation-filters="sRGB">
<feFlood flood-opacity="0" result="BackgroundImageFix"/>
<feColorMatrix in="SourceAlpha" type="matrix" values="0 0 0 0 0 0 0 0 0 0 0 0 0 0 0 0 0 0 127 0" result="hardAlpha"/>
<feOffset dy="3"/>
<feComposite in2="hardAlpha" operator="out"/>
<feColorMatrix type="matrix" values="0 0 0 0 0.887874 0 0 0 0 0.318776 0 0 0 0 0.318776 0 0 0 1 0"/>
<feBlend mode="normal" in2="BackgroundImageFix" result="effect1_dropShadow_286_3287"/>
<feBlend mode="normal" in="SourceGraphic" in2="effect1_dropShadow_286_3287" result="shape"/>
</filter>
<radialGradient id="paint0_radial_286_3287" cx="0" cy="0" r="1" gradientUnits="userSpaceOnUse" gradientTransform="translate(277.013 72.9912) scale(199.419 138.197)">
<stop stop-color="white"/>
<stop offset="1" stop-color="#FFF9EC"/>
</radialGradient>
</defs>
</svg>
