<svg viewBox="0 0 554 126" fill="none" xmlns="http://www.w3.org/2000/svg">
<path d="M501 24H53C25.9381 24 4 45.938 4 73C4 100.062 25.9381 122 53 122H501C528.062 122 550 100.062 550 73C550 45.938 528.062 24 501 24Z" fill="url(#paint0_radial_311_2341)" stroke="#FFCC00" stroke-width="8" stroke-miterlimit="10"/>
<mask id="path-2-outside-1_311_2341" maskUnits="userSpaceOnUse" x="177" y="-2" width="201" height="46" fill="black">
<rect fill="white" x="177" y="-2" width="201" height="46"/>
<path d="M225.45 2.4V32.35C225.45 34.75 225.25 36.4167 224.85 37.35C224.483 38.25 223.6 38.8667 222.2 39.2C220.8 39.5333 218.333 39.6833 214.8 39.65C214.733 37.2833 214.55 35.1333 214.25 33.2H211.65V39.45H203.35V33.2H200.65C200.417 34.6 200.05 35.8167 199.55 36.85L198.95 38.15C198.683 38.9167 198.35 39.5167 197.95 39.95C196.417 39.2167 195 38.6167 193.7 38.15C192.433 37.65 191.15 37.3 189.85 37.1V39.7H179.55V2.4H202.05V19.65H189.85V36.4C190.917 35.6333 191.7 34.8 192.2 33.9L192.55 33.2H190.6V27.15H193.25V26.05H190.6V20.45H214.3V26.05H211.65V27.15H214.3V29.7C214.633 29.6667 214.85 29.5333 214.95 29.3C215.083 29.0667 215.15 28.6167 215.15 27.95V19.65H203V2.4H225.45ZM193.75 7.9H189.85V8.9H193.75V7.9ZM211.25 7.9V8.9H215.15V7.9H211.25ZM193.75 13.8V12.75H189.85V13.8H193.75ZM211.25 13.8H215.15V12.75H211.25V13.8ZM203.35 27.15V26.05H201.1L201.05 27.15H203.35ZM239.85 20.55V22.2H264.6V20.55H239.85ZM239.95 12.6H275.05V30.1H239.45C239.417 30.5 239.383 30.8833 239.35 31.25C239.083 33.4833 238.817 35.4167 238.55 37.05L238.15 40.05C236.583 39.3167 234.933 38.75 233.2 38.35C231.467 37.9167 229.5 37.5667 227.3 37.3C228.233 34.5667 228.833 31.8833 229.1 29.25C229.367 26.6167 229.5 23.8667 229.5 21V3.25C245 2.91666 260.567 2.41666 276.2 1.75C275.833 3.18333 275.6 4.45 275.5 5.55C275.433 6.65 275.4 8.56667 275.4 11.3H261.75C252.05 11.3 244.783 11.3333 239.95 11.4V12.6ZM326.25 23.7C326.417 26.5333 326.5 28.3833 326.5 29.25C326.5 30.6167 326.383 32.1667 326.15 33.9C325.617 38.0667 323.817 40.15 320.75 40.15C319.317 40.15 317.7 39.65 315.9 38.65C314.133 37.65 312.433 36.0333 310.8 33.8C307.733 36.5 304.6 38.6833 301.4 40.35C299.567 39.1833 297.883 38.1833 296.35 37.35C294.85 36.5167 293 35.6667 290.8 34.8C293.367 33.7667 295.9 32.6333 298.4 31.4C296.833 32 294.733 32.4333 292.1 32.7C291.833 30.6667 291.483 28.9667 291.05 27.6C290.883 32.4667 290.45 36.7167 289.75 40.35C285.15 38.8167 281.1 37.7667 277.6 37.2C278.333 35.3 278.85 33.3333 279.15 31.3C279.45 29.2333 279.633 26.8167 279.7 24.05C279.8 21.25 279.85 16.9333 279.85 11.1V3.05H302.7V1.5H312.95L312.85 3.1H315.3L317 0.549998C318.667 1.11667 320.433 1.96667 322.3 3.1H325.75L325.6 12.4H319.1C321 12.9 323.15 13.3667 325.55 13.8C324.483 16.3 323 19 321.1 21.9C322.7 22.7 324.417 23.3 326.25 23.7ZM300.2 30.4C302.7 29.0333 304.833 27.5667 306.6 26C305.033 22.0333 303.933 17.5 303.3 12.4H291.15V13.8H303.15V22.9C303.15 24.7667 302.917 26.3 302.45 27.5C301.983 28.7 301.233 29.6667 300.2 30.4ZM313.85 16.5C314.283 15.6667 314.933 14.3 315.8 12.4H313.2C313.333 13.5667 313.55 14.9333 313.85 16.5ZM293.3 23.3C293.367 23.2 293.45 23.0833 293.55 22.95C293.65 22.7833 293.717 22.5667 293.75 22.3C293.783 22 293.8 21.6167 293.8 21.15H291.15C291.15 22.4167 291.133 23.35 291.1 23.95C292.367 23.85 293.1 23.6333 293.3 23.3ZM320.1 28.2C320.167 28.2 320.2 28.05 320.2 27.75C320.2 26.85 320.05 25.5333 319.75 23.8C319.383 24.3333 318.8 25.1 318 26.1C318.867 27.3 319.567 28 320.1 28.2ZM375.75 3.15V29.7C375.75 33 375.45 35.35 374.85 36.75C374.25 38.1167 373.083 39.0333 371.35 39.5C369.617 39.9333 366.683 40.15 362.55 40.15C362.283 37.65 361.983 35.5833 361.65 33.95C361.35 32.2833 360.817 30.65 360.05 29.05L359.45 30.2C356.517 35.5333 351.95 38.9333 345.75 40.4C344.217 38.0667 342.35 36.1167 340.15 34.55C336.45 35.6167 332.6 36.4833 328.6 37.15C328.333 32.2167 327.95 28.3167 327.45 25.45C328.517 25.35 330.083 25.1667 332.15 24.9V14.95H328.5V3.95H345.85V14.95H342.6V23L346.45 22.1C346.25 23.7667 346.15 25.85 346.15 28.35C347.583 27.3833 348.7 26.3 349.5 25.1C350.167 24.0667 350.617 22.6 350.85 20.7C351.117 18.8 351.233 16.3667 351.2 13.4H346.65V3.15H351C350.967 2.78333 350.95 2.25 350.95 1.55H362.8V3.15H375.75ZM364.3 13.4H362.6C362.467 16.8333 362.217 19.8 361.85 22.3C361.483 24.7667 360.933 26.8833 360.2 28.65C361.4 28.7167 362.117 28.75 362.35 28.75C363.217 28.75 363.75 28.6833 363.95 28.55C364.183 28.3833 364.3 28.0833 364.3 27.65V13.4Z"/>
</mask>
<path d="M225.45 2.4V32.35C225.45 34.75 225.25 36.4167 224.85 37.35C224.483 38.25 223.6 38.8667 222.2 39.2C220.8 39.5333 218.333 39.6833 214.8 39.65C214.733 37.2833 214.55 35.1333 214.25 33.2H211.65V39.45H203.35V33.2H200.65C200.417 34.6 200.05 35.8167 199.55 36.85L198.95 38.15C198.683 38.9167 198.35 39.5167 197.95 39.95C196.417 39.2167 195 38.6167 193.7 38.15C192.433 37.65 191.15 37.3 189.85 37.1V39.7H179.55V2.4H202.05V19.65H189.85V36.4C190.917 35.6333 191.7 34.8 192.2 33.9L192.55 33.2H190.6V27.15H193.25V26.05H190.6V20.45H214.3V26.05H211.65V27.15H214.3V29.7C214.633 29.6667 214.85 29.5333 214.95 29.3C215.083 29.0667 215.15 28.6167 215.15 27.95V19.65H203V2.4H225.45ZM193.75 7.9H189.85V8.9H193.75V7.9ZM211.25 7.9V8.9H215.15V7.9H211.25ZM193.75 13.8V12.75H189.85V13.8H193.75ZM211.25 13.8H215.15V12.75H211.25V13.8ZM203.35 27.15V26.05H201.1L201.05 27.15H203.35ZM239.85 20.55V22.2H264.6V20.55H239.85ZM239.95 12.6H275.05V30.1H239.45C239.417 30.5 239.383 30.8833 239.35 31.25C239.083 33.4833 238.817 35.4167 238.55 37.05L238.15 40.05C236.583 39.3167 234.933 38.75 233.2 38.35C231.467 37.9167 229.5 37.5667 227.3 37.3C228.233 34.5667 228.833 31.8833 229.1 29.25C229.367 26.6167 229.5 23.8667 229.5 21V3.25C245 2.91666 260.567 2.41666 276.2 1.75C275.833 3.18333 275.6 4.45 275.5 5.55C275.433 6.65 275.4 8.56667 275.4 11.3H261.75C252.05 11.3 244.783 11.3333 239.95 11.4V12.6ZM326.25 23.7C326.417 26.5333 326.5 28.3833 326.5 29.25C326.5 30.6167 326.383 32.1667 326.15 33.9C325.617 38.0667 323.817 40.15 320.75 40.15C319.317 40.15 317.7 39.65 315.9 38.65C314.133 37.65 312.433 36.0333 310.8 33.8C307.733 36.5 304.6 38.6833 301.4 40.35C299.567 39.1833 297.883 38.1833 296.35 37.35C294.85 36.5167 293 35.6667 290.8 34.8C293.367 33.7667 295.9 32.6333 298.4 31.4C296.833 32 294.733 32.4333 292.1 32.7C291.833 30.6667 291.483 28.9667 291.05 27.6C290.883 32.4667 290.45 36.7167 289.75 40.35C285.15 38.8167 281.1 37.7667 277.6 37.2C278.333 35.3 278.85 33.3333 279.15 31.3C279.45 29.2333 279.633 26.8167 279.7 24.05C279.8 21.25 279.85 16.9333 279.85 11.1V3.05H302.7V1.5H312.95L312.85 3.1H315.3L317 0.549998C318.667 1.11667 320.433 1.96667 322.3 3.1H325.75L325.6 12.4H319.1C321 12.9 323.15 13.3667 325.55 13.8C324.483 16.3 323 19 321.1 21.9C322.7 22.7 324.417 23.3 326.25 23.7ZM300.2 30.4C302.7 29.0333 304.833 27.5667 306.6 26C305.033 22.0333 303.933 17.5 303.3 12.4H291.15V13.8H303.15V22.9C303.15 24.7667 302.917 26.3 302.45 27.5C301.983 28.7 301.233 29.6667 300.2 30.4ZM313.85 16.5C314.283 15.6667 314.933 14.3 315.8 12.4H313.2C313.333 13.5667 313.55 14.9333 313.85 16.5ZM293.3 23.3C293.367 23.2 293.45 23.0833 293.55 22.95C293.65 22.7833 293.717 22.5667 293.75 22.3C293.783 22 293.8 21.6167 293.8 21.15H291.15C291.15 22.4167 291.133 23.35 291.1 23.95C292.367 23.85 293.1 23.6333 293.3 23.3ZM320.1 28.2C320.167 28.2 320.2 28.05 320.2 27.75C320.2 26.85 320.05 25.5333 319.75 23.8C319.383 24.3333 318.8 25.1 318 26.1C318.867 27.3 319.567 28 320.1 28.2ZM375.75 3.15V29.7C375.75 33 375.45 35.35 374.85 36.75C374.25 38.1167 373.083 39.0333 371.35 39.5C369.617 39.9333 366.683 40.15 362.55 40.15C362.283 37.65 361.983 35.5833 361.65 33.95C361.35 32.2833 360.817 30.65 360.05 29.05L359.45 30.2C356.517 35.5333 351.95 38.9333 345.75 40.4C344.217 38.0667 342.35 36.1167 340.15 34.55C336.45 35.6167 332.6 36.4833 328.6 37.15C328.333 32.2167 327.95 28.3167 327.45 25.45C328.517 25.35 330.083 25.1667 332.15 24.9V14.95H328.5V3.95H345.85V14.95H342.6V23L346.45 22.1C346.25 23.7667 346.15 25.85 346.15 28.35C347.583 27.3833 348.7 26.3 349.5 25.1C350.167 24.0667 350.617 22.6 350.85 20.7C351.117 18.8 351.233 16.3667 351.2 13.4H346.65V3.15H351C350.967 2.78333 350.95 2.25 350.95 1.55H362.8V3.15H375.75ZM364.3 13.4H362.6C362.467 16.8333 362.217 19.8 361.85 22.3C361.483 24.7667 360.933 26.8833 360.2 28.65C361.4 28.7167 362.117 28.75 362.35 28.75C363.217 28.75 363.75 28.6833 363.95 28.55C364.183 28.3833 364.3 28.0833 364.3 27.65V13.4Z" fill="#4D4B4B"/>
<path d="M225.45 2.4H227.45V0.399998H225.45V2.4ZM224.85 37.35L223.012 36.5622L223.005 36.5787L222.998 36.5954L224.85 37.35ZM222.2 39.2L221.737 37.2544L222.2 39.2ZM214.8 39.65L212.801 39.7063L212.855 41.6317L214.781 41.6499L214.8 39.65ZM214.25 33.2L216.226 32.8933L215.964 31.2H214.25V33.2ZM211.65 33.2V31.2H209.65V33.2H211.65ZM211.65 39.45V41.45H213.65V39.45H211.65ZM203.35 39.45H201.35V41.45H203.35V39.45ZM203.35 33.2H205.35V31.2H203.35V33.2ZM200.65 33.2V31.2H198.956L198.677 32.8712L200.65 33.2ZM199.55 36.85L197.75 35.9789L197.742 35.9953L197.734 36.0119L199.55 36.85ZM198.95 38.15L197.134 37.3119L197.093 37.4006L197.061 37.493L198.95 38.15ZM197.95 39.95L197.087 41.7543L198.419 42.391L199.42 41.3066L197.95 39.95ZM193.7 38.15L192.966 40.0103L192.995 40.0218L193.024 40.0324L193.7 38.15ZM189.85 37.1L190.154 35.1233L187.85 34.7688V37.1H189.85ZM189.85 39.7V41.7H191.85V39.7H189.85ZM179.55 39.7H177.55V41.7H179.55V39.7ZM179.55 2.4V0.399998H177.55V2.4H179.55ZM202.05 2.4H204.05V0.399998H202.05V2.4ZM202.05 19.65V21.65H204.05V19.65H202.05ZM189.85 19.65V17.65H187.85V19.65H189.85ZM189.85 36.4H187.85V40.3005L191.017 38.024L189.85 36.4ZM192.2 33.9L193.948 34.8713L193.969 34.8333L193.989 34.7944L192.2 33.9ZM192.55 33.2L194.339 34.0944L195.786 31.2H192.55V33.2ZM190.6 33.2H188.6V35.2H190.6V33.2ZM190.6 27.15V25.15H188.6V27.15H190.6ZM193.25 27.15V29.15H195.25V27.15H193.25ZM193.25 26.05H195.25V24.05H193.25V26.05ZM190.6 26.05H188.6V28.05H190.6V26.05ZM190.6 20.45V18.45H188.6V20.45H190.6ZM214.3 20.45H216.3V18.45H214.3V20.45ZM214.3 26.05V28.05H216.3V26.05H214.3ZM211.65 26.05V24.05H209.65V26.05H211.65ZM211.65 27.15H209.65V29.15H211.65V27.15ZM214.3 27.15H216.3V25.15H214.3V27.15ZM214.3 29.7H212.3V31.91L214.499 31.6901L214.3 29.7ZM214.95 29.3L213.214 28.3077L213.157 28.407L213.112 28.5122L214.95 29.3ZM215.15 19.65H217.15V17.65H215.15V19.65ZM203 19.65H201V21.65H203V19.65ZM203 2.4V0.399998H201V2.4H203ZM193.75 7.9H195.75V5.9H193.75V7.9ZM189.85 7.9V5.9H187.85V7.9H189.85ZM189.85 8.9H187.85V10.9H189.85V8.9ZM193.75 8.9V10.9H195.75V8.9H193.75ZM211.25 7.9V5.9H209.25V7.9H211.25ZM211.25 8.9H209.25V10.9H211.25V8.9ZM215.15 8.9V10.9H217.15V8.9H215.15ZM215.15 7.9H217.15V5.9H215.15V7.9ZM193.75 13.8V15.8H195.75V13.8H193.75ZM193.75 12.75H195.75V10.75H193.75V12.75ZM189.85 12.75V10.75H187.85V12.75H189.85ZM189.85 13.8H187.85V15.8H189.85V13.8ZM211.25 13.8H209.25V15.8H211.25V13.8ZM215.15 13.8V15.8H217.15V13.8H215.15ZM215.15 12.75H217.15V10.75H215.15V12.75ZM211.25 12.75V10.75H209.25V12.75H211.25ZM203.35 27.15V29.15H205.35V27.15H203.35ZM203.35 26.05H205.35V24.05H203.35V26.05ZM201.1 26.05V24.05H199.189L199.102 25.9592L201.1 26.05ZM201.05 27.15L199.052 27.0592L198.957 29.15H201.05V27.15ZM223.45 2.4V32.35H227.45V2.4H223.45ZM223.45 32.35C223.45 34.7506 223.234 36.0433 223.012 36.5622L226.688 38.1378C227.266 36.7901 227.45 34.7494 227.45 32.35H223.45ZM222.998 36.5954C222.976 36.6486 222.826 36.995 221.737 37.2544L222.663 41.1456C224.374 40.7383 225.991 39.8514 226.702 38.1046L222.998 36.5954ZM221.737 37.2544C220.601 37.5249 218.357 37.6835 214.819 37.6501L214.781 41.6499C218.31 41.6832 220.999 41.5418 222.663 41.1456L221.737 37.2544ZM216.799 39.5937C216.731 37.1599 216.542 34.9246 216.226 32.8933L212.274 33.5067C212.558 35.3421 212.736 37.4067 212.801 39.7063L216.799 39.5937ZM214.25 31.2H211.65V35.2H214.25V31.2ZM209.65 33.2V39.45H213.65V33.2H209.65ZM211.65 37.45H203.35V41.45H211.65V37.45ZM205.35 39.45V33.2H201.35V39.45H205.35ZM203.35 31.2H200.65V35.2H203.35V31.2ZM198.677 32.8712C198.468 34.1256 198.15 35.1521 197.75 35.9789L201.35 37.7211C201.95 36.4813 202.365 35.0744 202.623 33.5288L198.677 32.8712ZM197.734 36.0119L197.134 37.3119L200.766 38.9881L201.366 37.6881L197.734 36.0119ZM197.061 37.493C196.853 38.0917 196.638 38.4228 196.48 38.5934L199.42 41.3066C200.062 40.6106 200.514 39.7417 200.839 38.807L197.061 37.493ZM198.813 38.1457C197.232 37.3896 195.752 36.7616 194.376 36.2676L193.024 40.0324C194.248 40.4717 195.601 41.0438 197.087 41.7543L198.813 38.1457ZM194.434 36.2897C193.034 35.7369 191.607 35.3467 190.154 35.1233L189.546 39.0767C190.693 39.2533 191.833 39.5631 192.966 40.0103L194.434 36.2897ZM187.85 37.1V39.7H191.85V37.1H187.85ZM189.85 37.7H179.55V41.7H189.85V37.7ZM181.55 39.7V2.4H177.55V39.7H181.55ZM179.55 4.4H202.05V0.399998H179.55V4.4ZM200.05 2.4V19.65H204.05V2.4H200.05ZM202.05 17.65H189.85V21.65H202.05V17.65ZM187.85 19.65V36.4H191.85V19.65H187.85ZM191.017 38.024C192.26 37.1312 193.271 36.0899 193.948 34.8713L190.452 32.9287C190.129 33.5101 189.574 34.1355 188.683 34.776L191.017 38.024ZM193.989 34.7944L194.339 34.0944L190.761 32.3056L190.411 33.0056L193.989 34.7944ZM192.55 31.2H190.6V35.2H192.55V31.2ZM192.6 33.2V27.15H188.6V33.2H192.6ZM190.6 29.15H193.25V25.15H190.6V29.15ZM195.25 27.15V26.05H191.25V27.15H195.25ZM193.25 24.05H190.6V28.05H193.25V24.05ZM192.6 26.05V20.45H188.6V26.05H192.6ZM190.6 22.45H214.3V18.45H190.6V22.45ZM212.3 20.45V26.05H216.3V20.45H212.3ZM214.3 24.05H211.65V28.05H214.3V24.05ZM209.65 26.05V27.15H213.65V26.05H209.65ZM211.65 29.15H214.3V25.15H211.65V29.15ZM212.3 27.15V29.7H216.3V27.15H212.3ZM214.499 31.6901C215.29 31.611 216.309 31.2052 216.788 30.0878L213.112 28.5122C213.225 28.2486 213.422 28.0208 213.664 27.8717C213.882 27.7378 214.058 27.7142 214.101 27.7099L214.499 31.6901ZM216.686 30.2923C216.933 29.8603 217.03 29.4052 217.078 29.0806C217.131 28.7252 217.15 28.3407 217.15 27.95H213.15C213.15 28.2259 213.136 28.3998 213.122 28.4944C213.115 28.5397 213.111 28.5455 213.118 28.5226C213.124 28.5032 213.149 28.4209 213.214 28.3077L216.686 30.2923ZM217.15 27.95V19.65H213.15V27.95H217.15ZM215.15 17.65H203V21.65H215.15V17.65ZM205 19.65V2.4H201V19.65H205ZM203 4.4H225.45V0.399998H203V4.4ZM193.75 5.9H189.85V9.9H193.75V5.9ZM187.85 7.9V8.9H191.85V7.9H187.85ZM189.85 10.9H193.75V6.9H189.85V10.9ZM195.75 8.9V7.9H191.75V8.9H195.75ZM209.25 7.9V8.9H213.25V7.9H209.25ZM211.25 10.9H215.15V6.9H211.25V10.9ZM217.15 8.9V7.9H213.15V8.9H217.15ZM215.15 5.9H211.25V9.9H215.15V5.9ZM195.75 13.8V12.75H191.75V13.8H195.75ZM193.75 10.75H189.85V14.75H193.75V10.75ZM187.85 12.75V13.8H191.85V12.75H187.85ZM189.85 15.8H193.75V11.8H189.85V15.8ZM211.25 15.8H215.15V11.8H211.25V15.8ZM217.15 13.8V12.75H213.15V13.8H217.15ZM215.15 10.75H211.25V14.75H215.15V10.75ZM209.25 12.75V13.8H213.25V12.75H209.25ZM205.35 27.15V26.05H201.35V27.15H205.35ZM203.35 24.05H201.1V28.05H203.35V24.05ZM199.102 25.9592L199.052 27.0592L203.048 27.2408L203.098 26.1408L199.102 25.9592ZM201.05 29.15H203.35V25.15H201.05V29.15ZM239.85 20.55V18.55H237.85V20.55H239.85ZM239.85 22.2H237.85V24.2H239.85V22.2ZM264.6 22.2V24.2H266.6V22.2H264.6ZM264.6 20.55H266.6V18.55H264.6V20.55ZM239.95 12.6H237.95V14.6H239.95V12.6ZM275.05 12.6H277.05V10.6H275.05V12.6ZM275.05 30.1V32.1H277.05V30.1H275.05ZM239.45 30.1V28.1H237.61L237.457 29.9339L239.45 30.1ZM239.35 31.25L241.336 31.4871L241.339 31.4591L241.342 31.4311L239.35 31.25ZM238.55 37.05L236.576 36.7277L236.571 36.7566L236.568 36.7857L238.55 37.05ZM238.15 40.05L237.302 41.8614L239.772 43.0175L240.132 40.3143L238.15 40.05ZM233.2 38.35L232.715 40.2903L232.733 40.2947L232.75 40.2988L233.2 38.35ZM227.3 37.3L225.407 36.6537L224.61 38.9886L227.059 39.2855L227.3 37.3ZM229.5 3.25L229.457 1.25046L227.5 1.29255V3.25H229.5ZM276.2 1.75L278.138 2.24566L278.805 -0.362904L276.115 -0.248186L276.2 1.75ZM275.5 5.55L273.508 5.36893L273.505 5.39893L273.504 5.42901L275.5 5.55ZM275.4 11.3V13.3H277.4V11.3H275.4ZM239.95 11.4L239.922 9.40019L237.95 9.42739V11.4H239.95ZM237.85 20.55V22.2H241.85V20.55H237.85ZM239.85 24.2H264.6V20.2H239.85V24.2ZM266.6 22.2V20.55H262.6V22.2H266.6ZM264.6 18.55H239.85V22.55H264.6V18.55ZM239.95 14.6H275.05V10.6H239.95V14.6ZM273.05 12.6V30.1H277.05V12.6H273.05ZM275.05 28.1H239.45V32.1H275.05V28.1ZM237.457 29.9339C237.424 30.3294 237.391 30.7077 237.358 31.0689L241.342 31.4311C241.376 31.059 241.409 30.6706 241.443 30.2661L237.457 29.9339ZM237.364 31.0129C237.1 33.2271 236.837 35.1307 236.576 36.7277L240.524 37.3723C240.796 35.7027 241.067 33.7396 241.336 31.4871L237.364 31.0129ZM236.568 36.7857L236.168 39.7857L240.132 40.3143L240.532 37.3143L236.568 36.7857ZM238.998 38.2386C237.3 37.4439 235.516 36.832 233.65 36.4012L232.75 40.2988C234.35 40.668 235.867 41.1894 237.302 41.8614L238.998 38.2386ZM233.685 36.4097C231.855 35.9522 229.804 35.5889 227.541 35.3145L227.059 39.2855C229.196 39.5444 231.078 39.8812 232.715 40.2903L233.685 36.4097ZM229.193 37.9463C230.171 35.0818 230.806 32.2494 231.09 29.4515L227.11 29.0485C226.86 31.5173 226.296 34.0515 225.407 36.6537L229.193 37.9463ZM231.09 29.4515C231.364 26.746 231.5 23.9285 231.5 21H227.5C227.5 23.8049 227.37 26.4874 227.11 29.0485L231.09 29.4515ZM231.5 21V3.25H227.5V21H231.5ZM229.543 5.24954C245.057 4.9159 260.638 4.41544 276.285 3.74818L276.115 -0.248186C260.495 0.417886 244.943 0.917432 229.457 1.25046L229.543 5.24954ZM274.262 1.25433C273.878 2.75863 273.62 4.13408 273.508 5.36893L277.492 5.73107C277.58 4.76591 277.789 3.60803 278.138 2.24566L274.262 1.25433ZM273.504 5.42901C273.433 6.59629 273.4 8.56797 273.4 11.3H277.4C277.4 8.56537 277.434 6.70371 277.496 5.67099L273.504 5.42901ZM275.4 9.3H261.75V13.3H275.4V9.3ZM261.75 9.3C252.048 9.3 244.77 9.33333 239.922 9.40019L239.978 13.3998C244.797 13.3333 252.052 13.3 261.75 13.3V9.3ZM237.95 11.4V12.6H241.95V11.4H237.95ZM326.25 23.7L328.247 23.5826L328.158 22.0691L326.676 21.746L326.25 23.7ZM326.15 33.9L324.168 33.6332L324.166 33.6461L326.15 33.9ZM315.9 38.65L314.915 40.3905L314.922 40.3944L314.929 40.3983L315.9 38.65ZM310.8 33.8L312.414 32.6194L311.122 30.852L309.478 32.2989L310.8 33.8ZM301.4 40.35L300.326 42.0373L301.3 42.657L302.324 42.1238L301.4 40.35ZM296.35 37.35L295.379 39.0983L295.387 39.1028L295.395 39.1073L296.35 37.35ZM290.8 34.8L290.053 32.9447L285.395 34.8202L290.067 36.6608L290.8 34.8ZM298.4 31.4L299.285 33.1936L297.685 29.5323L298.4 31.4ZM292.1 32.7L290.117 32.9601L290.369 34.8855L292.302 34.6898L292.1 32.7ZM291.05 27.6L292.956 26.9955L289.051 27.5315L291.05 27.6ZM289.75 40.35L289.118 42.2474L291.282 42.9689L291.714 40.7284L289.75 40.35ZM277.6 37.2L275.734 36.4798L274.846 38.7802L277.28 39.1743L277.6 37.2ZM279.15 31.3L281.129 31.5919L281.129 31.5873L279.15 31.3ZM279.7 24.05L277.701 23.9786L277.701 23.9902L277.701 24.0018L279.7 24.05ZM279.85 3.05V1.05H277.85V3.05H279.85ZM302.7 3.05V5.05H304.7V3.05H302.7ZM302.7 1.5V-0.500002H300.7V1.5H302.7ZM312.95 1.5L314.946 1.62476L315.079 -0.500002H312.95V1.5ZM312.85 3.1L310.854 2.97524L310.721 5.1H312.85V3.1ZM315.3 3.1V5.1H316.37L316.964 4.2094L315.3 3.1ZM317 0.549998L317.644 -1.34355L316.189 -1.83834L315.336 -0.559402L317 0.549998ZM322.3 3.1L321.262 4.80957L321.74 5.1H322.3V3.1ZM325.75 3.1L327.75 3.13225L327.783 1.1H325.75V3.1ZM325.6 12.4V14.4H327.568L327.6 12.4323L325.6 12.4ZM319.1 12.4V10.4L318.591 14.3341L319.1 12.4ZM325.55 13.8L327.39 14.5849L328.374 12.2775L325.905 11.8318L325.55 13.8ZM321.1 21.9L319.427 20.8039L318.195 22.6838L320.206 23.6889L321.1 21.9ZM300.2 30.4L299.043 28.769L301.159 32.1549L300.2 30.4ZM306.6 26L307.927 27.4964L308.974 26.5675L308.46 25.2653L306.6 26ZM303.3 12.4L305.285 12.1535L305.067 10.4H303.3V12.4ZM291.15 12.4V10.4H289.15V12.4H291.15ZM291.15 13.8H289.15V15.8H291.15V13.8ZM303.15 13.8H305.15V11.8H303.15V13.8ZM302.45 27.5L304.314 28.2249V28.2249L302.45 27.5ZM313.85 16.5L311.886 16.8761L312.968 22.5304L315.624 17.4227L313.85 16.5ZM315.8 12.4L317.62 13.23L318.911 10.4H315.8V12.4ZM313.2 12.4V10.4H310.958L311.213 12.6271L313.2 12.4ZM293.3 23.3L291.636 22.1906L291.61 22.2302L291.585 22.271L293.3 23.3ZM293.55 22.95L295.15 24.15L295.212 24.0675L295.265 23.979L293.55 22.95ZM293.75 22.3L295.735 22.5481L295.736 22.5345L295.738 22.5209L293.75 22.3ZM293.8 21.15H295.8V19.15H293.8V21.15ZM291.15 21.15V19.15H289.15V21.15H291.15ZM291.1 23.95L289.103 23.8391L288.976 26.1239L291.257 25.9438L291.1 23.95ZM320.1 28.2L319.398 30.0727L319.737 30.2H320.1V28.2ZM319.75 23.8L321.721 23.4589L320.883 18.6212L318.102 22.6669L319.75 23.8ZM318 26.1L316.438 24.8506L315.488 26.0381L316.379 27.271L318 26.1ZM324.253 23.8174C324.421 26.6644 324.5 28.4531 324.5 29.25H328.5C328.5 28.3135 328.412 26.4023 328.247 23.5826L324.253 23.8174ZM324.5 29.25C324.5 30.5068 324.392 31.9652 324.168 33.6332L328.132 34.1668C328.374 32.3682 328.5 30.7265 328.5 29.25H324.5ZM324.166 33.6461C323.925 35.5305 323.428 36.6538 322.887 37.2799C322.412 37.8287 321.776 38.15 320.75 38.15V42.15C322.79 42.15 324.588 41.4296 325.913 39.8951C327.172 38.4378 327.842 36.4362 328.134 34.1539L324.166 33.6461ZM320.75 38.15C319.773 38.15 318.496 37.8042 316.871 36.9017L314.929 40.3983C316.904 41.4958 318.86 42.15 320.75 42.15V38.15ZM316.885 36.9095C315.438 36.0904 313.937 34.7019 312.414 32.6194L309.186 34.9806C310.929 37.3647 312.829 39.2096 314.915 40.3905L316.885 36.9095ZM309.478 32.2989C306.517 34.9061 303.516 36.9931 300.476 38.5762L302.324 42.1238C305.684 40.3736 308.95 38.0939 312.122 35.3011L309.478 32.2989ZM302.474 38.6627C300.611 37.477 298.887 36.4526 297.305 35.5928L295.395 39.1073C296.88 39.9141 298.523 40.8896 300.326 42.0373L302.474 38.6627ZM297.321 35.6017C295.722 34.7131 293.787 33.827 291.533 32.9392L290.067 36.6608C292.213 37.5064 293.978 38.3202 295.379 39.0983L297.321 35.6017ZM291.547 36.6553C294.161 35.603 296.74 34.4491 299.285 33.1936L297.515 29.6064C295.06 30.8176 292.573 31.9303 290.053 32.9447L291.547 36.6553ZM297.685 29.5323C296.35 30.0436 294.445 30.4523 291.898 30.7102L292.302 34.6898C295.022 34.4143 297.317 33.9564 299.115 33.2677L297.685 29.5323ZM294.083 32.4399C293.807 30.3351 293.437 28.511 292.956 26.9955L289.144 28.2045C289.53 29.4224 289.86 30.9983 290.117 32.9601L294.083 32.4399ZM289.051 27.5315C288.887 32.3246 288.461 36.4667 287.786 39.9716L291.714 40.7284C292.439 36.9667 292.88 32.6087 293.049 27.6685L289.051 27.5315ZM290.382 38.4526C285.715 36.8967 281.556 35.8145 277.92 35.2257L277.28 39.1743C280.644 39.7188 284.585 40.7366 289.118 42.2474L290.382 38.4526ZM279.466 37.9202C280.253 35.8807 280.807 33.7704 281.129 31.5919L277.171 31.0081C276.893 32.8963 276.414 34.7193 275.734 36.4798L279.466 37.9202ZM281.129 31.5873C281.444 29.4207 281.631 26.9209 281.699 24.0982L277.701 24.0018C277.635 26.7125 277.456 29.0459 277.171 31.0127L281.129 31.5873ZM281.699 24.1214C281.8 21.2838 281.85 16.9375 281.85 11.1H277.85C277.85 16.9292 277.8 21.2162 277.701 23.9786L281.699 24.1214ZM281.85 11.1V3.05H277.85V11.1H281.85ZM279.85 5.05H302.7V1.05H279.85V5.05ZM304.7 3.05V1.5H300.7V3.05H304.7ZM302.7 3.5H312.95V-0.500002H302.7V3.5ZM310.954 1.37524L310.854 2.97524L314.846 3.22476L314.946 1.62476L310.954 1.37524ZM312.85 5.1H315.3V1.1H312.85V5.1ZM316.964 4.2094L318.664 1.6594L315.336 -0.559402L313.636 1.9906L316.964 4.2094ZM316.356 2.44354C317.857 2.9538 319.491 3.73449 321.262 4.80957L323.338 1.39042C321.375 0.198845 319.476 -0.720472 317.644 -1.34355L316.356 2.44354ZM322.3 5.1H325.75V1.1H322.3V5.1ZM323.75 3.06774L323.6 12.3677L327.6 12.4323L327.75 3.13225L323.75 3.06774ZM325.6 10.4H319.1V14.4H325.6V10.4ZM318.591 14.3341C320.552 14.8502 322.755 15.3276 325.195 15.7682L325.905 11.8318C323.545 11.4057 321.448 10.9498 319.609 10.4658L318.591 14.3341ZM323.71 13.0151C322.701 15.3819 321.279 17.9771 319.427 20.8039L322.773 22.9961C324.721 20.0229 326.266 17.2181 327.39 14.5849L323.71 13.0151ZM320.206 23.6889C321.961 24.5667 323.836 25.2204 325.824 25.654L326.676 21.746C324.997 21.3796 323.439 20.8333 321.994 20.1111L320.206 23.6889ZM301.159 32.1549C303.765 30.7304 306.028 29.1807 307.927 27.4964L305.273 24.5036C303.639 25.9526 301.635 27.3363 299.241 28.6451L301.159 32.1549ZM308.46 25.2653C306.967 21.4836 305.901 17.1191 305.285 12.1535L301.315 12.6465C301.965 17.8809 303.1 22.583 304.74 26.7347L308.46 25.2653ZM303.3 10.4H291.15V14.4H303.3V10.4ZM289.15 12.4V13.8H293.15V12.4H289.15ZM291.15 15.8H303.15V11.8H291.15V15.8ZM301.15 13.8V22.9H305.15V13.8H301.15ZM301.15 22.9C301.15 24.6207 300.932 25.8853 300.586 26.7751L304.314 28.2249C304.901 26.7147 305.15 24.9127 305.15 22.9H301.15ZM300.586 26.7751C300.259 27.6167 299.751 28.2659 299.043 28.769L301.357 32.031C302.715 31.0674 303.708 29.7833 304.314 28.2249L300.586 26.7751ZM315.624 17.4227C316.083 16.5401 316.752 15.133 317.62 13.23L313.98 11.57C313.115 13.467 312.483 14.7932 312.076 15.5773L315.624 17.4227ZM315.8 10.4H313.2V14.4H315.8V10.4ZM311.213 12.6271C311.354 13.8578 311.579 15.2763 311.886 16.8761L315.814 16.1239C315.521 14.5904 315.313 13.2756 315.187 12.1729L311.213 12.6271ZM294.964 24.4094C295.004 24.3494 295.064 24.2641 295.15 24.15L291.95 21.75C291.836 21.9026 291.729 22.0506 291.636 22.1906L294.964 24.4094ZM295.265 23.979C295.552 23.5008 295.679 22.992 295.735 22.5481L291.765 22.0519C291.761 22.0905 291.757 22.0952 291.763 22.0743C291.77 22.0532 291.79 21.9968 291.835 21.921L295.265 23.979ZM295.738 22.5209C295.782 22.1194 295.8 21.6553 295.8 21.15H291.8C291.8 21.578 291.784 21.8806 291.762 22.0791L295.738 22.5209ZM293.8 19.15H291.15V23.15H293.8V19.15ZM289.15 21.15C289.15 22.4108 289.133 23.2977 289.103 23.8391L293.097 24.0609C293.134 23.4023 293.15 22.4226 293.15 21.15H289.15ZM291.257 25.9438C291.951 25.889 292.608 25.7956 293.167 25.6305C293.612 25.4989 294.502 25.1844 295.015 24.329L291.585 22.271C291.761 21.9778 291.971 21.8426 292.035 21.805C292.104 21.7645 292.118 21.7693 292.033 21.7945C291.859 21.8461 291.515 21.911 290.943 21.9562L291.257 25.9438ZM320.1 30.2C321.009 30.2 321.568 29.6404 321.808 29.2813C322.021 28.9616 322.098 28.6544 322.127 28.5214C322.193 28.2262 322.2 27.9357 322.2 27.75H318.2C318.2 27.8643 318.19 27.7988 318.223 27.6536C318.236 27.5956 318.292 27.3446 318.48 27.0625C318.694 26.7408 319.224 26.2 320.1 26.2V30.2ZM322.2 27.75C322.2 26.6734 322.025 25.2199 321.721 23.4589L317.779 24.1411C318.075 25.8467 318.2 27.0266 318.2 27.75H322.2ZM318.102 22.6669C317.778 23.1386 317.231 23.8594 316.438 24.8506L319.562 27.3494C320.369 26.3406 320.989 25.5281 321.398 24.9331L318.102 22.6669ZM316.379 27.271C316.847 27.9195 317.308 28.4867 317.761 28.9392C318.185 29.3635 318.735 29.8241 319.398 30.0727L320.802 26.3273C320.932 26.3759 320.865 26.3865 320.589 26.1108C320.342 25.8633 320.02 25.4805 319.621 24.929L316.379 27.271ZM375.75 3.15H377.75V1.15H375.75V3.15ZM374.85 36.75L376.681 37.554L376.685 37.5459L376.688 37.5378L374.85 36.75ZM371.35 39.5L371.835 41.4403L371.853 41.4359L371.87 41.4312L371.35 39.5ZM362.55 40.15L360.561 40.3621L360.752 42.15H362.55V40.15ZM361.65 33.95L359.682 34.3043L359.686 34.3272L359.69 34.3499L361.65 33.95ZM360.05 29.05L361.854 28.1858L360.126 24.5804L358.277 28.1249L360.05 29.05ZM359.45 30.2L361.202 31.1638L361.213 31.1446L361.223 31.1251L359.45 30.2ZM345.75 40.4L344.079 41.4984L344.848 42.6687L346.21 42.3463L345.75 40.4ZM340.15 34.55L341.31 32.9209L340.524 32.3608L339.596 32.6283L340.15 34.55ZM328.6 37.15L326.603 37.2579L326.724 39.4903L328.929 39.1228L328.6 37.15ZM327.45 25.45L327.263 23.4587L325.108 23.6608L325.48 25.7936L327.45 25.45ZM332.15 24.9L332.406 26.8836L334.15 26.6585V24.9H332.15ZM332.15 14.95H334.15V12.95H332.15V14.95ZM328.5 14.95H326.5V16.95H328.5V14.95ZM328.5 3.95V1.95H326.5V3.95H328.5ZM345.85 3.95H347.85V1.95H345.85V3.95ZM345.85 14.95V16.95H347.85V14.95H345.85ZM342.6 14.95V12.95H340.6V14.95H342.6ZM342.6 23H340.6V25.5215L343.055 24.9475L342.6 23ZM346.45 22.1L348.436 22.3383L348.776 19.5023L345.995 20.1525L346.45 22.1ZM346.15 28.35H344.15V32.1112L347.268 30.0081L346.15 28.35ZM349.5 25.1L351.164 26.2094L351.172 26.1969L351.181 26.1843L349.5 25.1ZM350.85 20.7L348.869 20.422L348.867 20.4391L348.865 20.4562L350.85 20.7ZM351.2 13.4L353.2 13.3775L353.178 11.4H351.2V13.4ZM346.65 13.4H344.65V15.4H346.65V13.4ZM346.65 3.15V1.15H344.65V3.15H346.65ZM351 3.15V5.15H353.19L352.992 2.96892L351 3.15ZM350.95 1.55V-0.450003H348.95V1.55H350.95ZM362.8 1.55H364.8V-0.450003H362.8V1.55ZM362.8 3.15H360.8V5.15H362.8V3.15ZM364.3 13.4H366.3V11.4H364.3V13.4ZM362.6 13.4V11.4H360.676L360.602 13.3224L362.6 13.4ZM361.85 22.3L363.828 22.5941L363.829 22.5902L361.85 22.3ZM360.2 28.65L358.353 27.8832L357.271 30.4903L360.089 30.6469L360.2 28.65ZM363.95 28.55L365.059 30.2141L365.086 30.1962L365.112 30.1775L363.95 28.55ZM373.75 3.15V29.7H377.75V3.15H373.75ZM373.75 29.7C373.75 32.9722 373.439 34.9651 373.012 35.9622L376.688 37.5378C377.461 35.7349 377.75 33.0278 377.75 29.7H373.75ZM373.019 35.946C372.712 36.6438 372.11 37.2243 370.83 37.5688L371.87 41.4312C374.057 40.8424 375.788 39.5896 376.681 37.554L373.019 35.946ZM370.865 37.5597C369.392 37.9279 366.677 38.15 362.55 38.15V42.15C366.69 42.15 369.841 41.9387 371.835 41.4403L370.865 37.5597ZM364.539 39.9379C364.268 37.403 363.96 35.2682 363.61 33.5501L359.69 34.3499C360.006 35.8985 360.298 37.897 360.561 40.3621L364.539 39.9379ZM363.618 33.5957C363.285 31.7442 362.694 29.9398 361.854 28.1858L358.246 29.9142C358.939 31.3601 359.415 32.8225 359.682 34.3043L363.618 33.5957ZM358.277 28.1249L357.677 29.2749L361.223 31.1251L361.823 29.9751L358.277 28.1249ZM357.698 29.2362C355.051 34.0485 350.969 37.1103 345.29 38.4537L346.21 42.3463C352.931 40.7564 357.983 37.0182 361.202 31.1638L357.698 29.2362ZM347.421 39.3016C345.757 36.7684 343.719 34.6361 341.31 32.9209L338.99 36.1791C340.981 37.5972 342.677 39.365 344.079 41.4984L347.421 39.3016ZM339.596 32.6283C335.974 33.6725 332.199 34.5225 328.271 35.1772L328.929 39.1228C333.001 38.4441 336.926 37.5608 340.704 36.4717L339.596 32.6283ZM330.597 37.042C330.329 32.076 329.94 28.0862 329.42 25.1063L325.48 25.7936C325.96 28.5471 326.338 32.3574 326.603 37.2579L330.597 37.042ZM327.637 27.4413C328.739 27.3379 330.333 27.151 332.406 26.8836L331.894 22.9164C329.833 23.1824 328.294 23.3621 327.263 23.4587L327.637 27.4413ZM334.15 24.9V14.95H330.15V24.9H334.15ZM332.15 12.95H328.5V16.95H332.15V12.95ZM330.5 14.95V3.95H326.5V14.95H330.5ZM328.5 5.95H345.85V1.95H328.5V5.95ZM343.85 3.95V14.95H347.85V3.95H343.85ZM345.85 12.95H342.6V16.95H345.85V12.95ZM340.6 14.95V23H344.6V14.95H340.6ZM343.055 24.9475L346.905 24.0475L345.995 20.1525L342.145 21.0525L343.055 24.9475ZM344.464 21.8617C344.251 23.6356 344.15 25.8048 344.15 28.35H348.15C348.15 25.8952 348.249 23.8978 348.436 22.3383L344.464 21.8617ZM347.268 30.0081C348.876 28.9242 350.194 27.6646 351.164 26.2094L347.836 23.9906C347.206 24.9354 346.291 25.8425 345.032 26.6919L347.268 30.0081ZM351.181 26.1843C352.077 24.7952 352.583 22.9932 352.835 20.9438L348.865 20.4562C348.65 22.2068 348.257 23.3382 347.819 24.0157L351.181 26.1843ZM352.831 20.978C353.117 18.9402 353.234 16.3967 353.2 13.3775L349.2 13.4225C349.233 16.3366 349.117 18.6598 348.869 20.422L352.831 20.978ZM351.2 11.4H346.65V15.4H351.2V11.4ZM348.65 13.4V3.15H344.65V13.4H348.65ZM346.65 5.15H351V1.15H346.65V5.15ZM352.992 2.96892C352.967 2.6941 352.95 2.233 352.95 1.55H348.95C348.95 2.267 348.967 2.87256 349.008 3.33107L352.992 2.96892ZM350.95 3.55H362.8V-0.450003H350.95V3.55ZM360.8 1.55V3.15H364.8V1.55H360.8ZM362.8 5.15H375.75V1.15H362.8V5.15ZM364.3 11.4H362.6V15.4H364.3V11.4ZM360.602 13.3224C360.47 16.708 360.225 19.6001 359.871 22.0098L363.829 22.5902C364.209 19.9999 364.463 16.9587 364.598 13.4776L360.602 13.3224ZM359.872 22.0059C359.522 24.3564 359.008 26.3059 358.353 27.8832L362.047 29.4168C362.859 27.4607 363.444 25.1769 363.828 22.5941L359.872 22.0059ZM360.089 30.6469C361.259 30.7119 362.047 30.75 362.35 30.75V26.75C362.187 26.75 361.541 26.7214 360.311 26.6531L360.089 30.6469ZM362.35 30.75C362.823 30.75 363.265 30.7324 363.648 30.6846C363.932 30.649 364.535 30.5635 365.059 30.2141L362.841 26.8859C362.95 26.8128 363.043 26.7701 363.098 26.7475C363.155 26.7241 363.195 26.7123 363.211 26.708C363.24 26.7002 363.226 26.7061 363.152 26.7154C363.002 26.7342 362.744 26.75 362.35 26.75V30.75ZM365.112 30.1775C366.1 29.4722 366.3 28.385 366.3 27.65H362.3C362.3 27.6993 362.292 27.621 362.348 27.4751C362.413 27.3083 362.55 27.0924 362.788 26.9225L365.112 30.1775ZM366.3 27.65V13.4H362.3V27.65H366.3Z" fill="white" mask="url(#path-2-outside-1_311_2341)"/>
<g filter="url(#filter0_d_311_2341)">
<mask id="path-4-outside-2_311_2341" maskUnits="userSpaceOnUse" x="73.4043" y="50.25" width="408" height="47" fill="black">
<rect fill="white" x="73.4043" y="50.25" width="408" height="47"/>
<path d="M126.354 77.4C125.388 78.9667 124.421 80.7833 123.454 82.85L126.304 82.45C125.538 83.75 125.021 85.1333 124.754 86.6C124.521 88.0667 124.304 90.0167 124.104 92.45C118.104 92.6833 113.071 92.8 109.004 92.8C103.438 92.8 98.9876 92.5333 95.6543 92C92.321 91.4667 89.4043 90.6 86.9043 89.4C85.3043 90.4667 82.9043 91.7667 79.7043 93.3L79.4543 92.3C78.8876 89.8667 78.3876 87.9 77.9543 86.4C77.521 84.8667 77.0043 83.4167 76.4043 82.05C77.2376 81.85 78.021 81.5833 78.7543 81.25C79.4876 80.9167 80.071 80.5833 80.5043 80.25V76.6H77.5043L77.5543 68.35H91.1543V77.1C97.0876 76.1667 100.638 75.4833 101.804 75.05H92.2043V67.7H102.954V66.7H92.2043V60.05L89.8543 67.35C85.4543 66.1167 81.2876 65.1667 77.3543 64.5L80.3043 55.85C84.971 56.9833 89.021 58.1333 92.4543 59.3L92.4043 59.5H99.3043C97.671 58.9333 95.6376 58.35 93.2043 57.75L98.9043 53.25C102.538 54.2167 105.938 55.5 109.104 57.1L106.154 59.5H107.054C108.421 58.7667 109.771 57.8833 111.104 56.85C112.438 55.8167 113.604 54.7167 114.604 53.55L124.454 56.35C123.221 57.6167 121.971 58.6667 120.704 59.5H124.854V66.7H113.854V67.7H124.854V75.05H114.254C116.188 75.5167 118.971 76.0667 122.604 76.7L126.354 77.4ZM91.1543 82.45L93.3543 82.9C92.721 81.1 91.9876 79.55 91.1543 78.25V82.45ZM108.354 83.8C110.454 83.8 112.471 83.75 114.404 83.65C112.704 82.95 110.771 82.0167 108.604 80.85C107.138 81.85 105.238 82.8 102.904 83.7C105.104 83.7667 106.921 83.8 108.354 83.8Z"/>
<path d="M172.754 77.25V86.65H165.954V93H154.004C154.138 91.6 154.238 89.4833 154.304 86.65H130.554V76.55C138.321 70.5833 145.254 63.9667 151.354 56.7H165.954V77.25H172.754ZM154.554 66.6C152.254 68.9667 150.271 70.95 148.604 72.55C146.938 74.1167 145.054 75.6833 142.954 77.25H154.404L154.554 66.6Z"/>
<path d="M199.696 93.5C192.529 93.5 187.246 91.85 183.846 88.55C180.446 85.25 178.746 80.6667 178.746 74.8C178.746 68.9667 180.446 64.4167 183.846 61.15C187.279 57.85 192.562 56.2 199.696 56.2C206.829 56.2 212.096 57.85 215.496 61.15C218.896 64.4167 220.596 68.9667 220.596 74.8C220.596 80.6667 218.896 85.25 215.496 88.55C212.096 91.85 206.829 93.5 199.696 93.5ZM199.746 84.75C202.812 84.75 205.046 83.8167 206.446 81.95C207.846 80.05 208.546 77.6667 208.546 74.8C208.546 71.9667 207.846 69.6167 206.446 67.75C205.046 65.85 202.812 64.9 199.746 64.9C196.579 64.9 194.279 65.85 192.846 67.75C191.446 69.6167 190.746 71.9667 190.746 74.8C190.746 77.6333 191.446 80 192.846 81.9C194.279 83.8 196.579 84.75 199.746 84.75Z"/>
<path d="M247.545 93.5C240.379 93.5 235.095 91.85 231.695 88.55C228.295 85.25 226.595 80.6667 226.595 74.8C226.595 68.9667 228.295 64.4167 231.695 61.15C235.129 57.85 240.412 56.2 247.545 56.2C254.679 56.2 259.945 57.85 263.345 61.15C266.745 64.4167 268.445 68.9667 268.445 74.8C268.445 80.6667 266.745 85.25 263.345 88.55C259.945 91.85 254.679 93.5 247.545 93.5ZM247.595 84.75C250.662 84.75 252.895 83.8167 254.295 81.95C255.695 80.05 256.395 77.6667 256.395 74.8C256.395 71.9667 255.695 69.6167 254.295 67.75C252.895 65.85 250.662 64.9 247.595 64.9C244.429 64.9 242.129 65.85 240.695 67.75C239.295 69.6167 238.595 71.9667 238.595 74.8C238.595 77.6333 239.295 80 240.695 81.9C242.129 83.8 244.429 84.75 247.595 84.75Z"/>
<path d="M277.095 55.4H318.495V63.7H277.095V55.4ZM320.395 78.7C320.395 82.2667 320.345 84.7833 320.245 86.25C320.145 87.6833 319.912 88.8167 319.545 89.65C318.978 90.9167 318.162 91.7333 317.095 92.1C316.062 92.4667 314.828 92.65 313.395 92.65H303.595C301.562 92.65 300.095 92.25 299.195 91.45C298.295 90.65 297.845 89.3667 297.845 87.6V74.5H290.395L297.345 76.3C295.978 79.9 293.962 83.1333 291.295 86C288.662 88.8667 285.495 91.25 281.795 93.15C280.228 91.4833 278.745 90.0333 277.345 88.8C275.978 87.5333 274.278 86.1833 272.245 84.75C275.212 83.6833 277.562 82.6667 279.295 81.7C281.028 80.7333 282.412 79.7 283.445 78.6C284.478 77.5 285.412 76.1333 286.245 74.5H274.495V65.55H320.345V74.5H308.545V82.85C308.545 83.0167 308.628 83.1333 308.795 83.2C308.962 83.2333 309.245 83.25 309.645 83.25C310.278 83.25 310.595 82.9167 310.595 82.25C310.595 79.95 310.495 77.5333 310.295 75C312.762 75.6333 316.128 76.1 320.395 76.4V78.7Z"/>
<path d="M338.745 67.9V71.05L340.145 70.95C340.078 72.9167 340.045 75.8667 340.045 79.8L338.745 79.95V84.65C338.745 87.3833 338.495 89.2833 337.995 90.35C337.528 91.4167 336.645 92.1 335.345 92.4C334.078 92.6667 331.662 92.8667 328.095 93L327.045 93.05C326.878 90.9167 326.662 89.1833 326.395 87.85C326.162 86.5167 325.695 85.1167 324.995 83.65C326.162 83.65 326.978 83.6 327.445 83.5C327.945 83.3667 328.245 83.1833 328.345 82.95C328.445 82.7167 328.495 82.3 328.495 81.7V80.95C327.295 81.0833 326.378 81.1667 325.745 81.2C325.612 77.2667 325.345 74.15 324.945 71.85L328.495 71.7V67.9H325.745V59.05H328.495V54.95H338.745V59.05H340.045V67C342.912 66.9 345.795 66.45 348.695 65.65L349.195 65.5H342.395V62.05H340.795V56.2H342.395V54.75H352.195V56.2H360.895V54.75H370.745V56.2H373.645V62.05H370.745V65.5H364.145C366.978 66.0667 370.345 66.5167 374.245 66.85C373.712 67.7833 373.212 69.0333 372.745 70.6C372.312 72.1333 372.095 73.4667 372.095 74.6L370.245 74.2V77.85H343.045V74.6C342.745 74.6667 342.162 74.7833 341.295 74.95C341.295 73.75 341.162 72.5 340.895 71.2C340.628 69.9 340.278 68.8 339.845 67.9H338.745ZM360.895 63.25V62.05H352.195V63.25H360.895ZM361.595 71.95C359.728 71.3167 357.945 70.55 356.245 69.65C354.745 70.6167 353.362 71.3167 352.095 71.75L351.545 71.95H361.595ZM341.095 78.75H372.245V93.05H360.995V92.55H352.195V93.05H341.095V78.75ZM352.195 86.25H360.995V84.25H352.195V86.25Z"/>
<path d="M424.595 56.05V63.05H406.645V64.1H423.095V81.9H406.645V83.05H424.595V90.75H406.645V93.4H396.245V90.75H378.295V83.05H396.245V81.9H379.795V64.1H396.245V63.05H378.295V56.05H396.245V54.5H406.645V56.05H424.595ZM396.245 69.15H390.795V70.5H396.245V69.15ZM412.095 70.5V69.15H406.645V70.5H412.095ZM390.795 75.05V76.35H396.245V75.05H390.795ZM406.645 76.35H412.095V75.05H406.645V76.35Z"/>
<path d="M470.845 81.65C470.712 82.1833 470.578 82.6667 470.445 83.1C470.345 83.5 470.262 83.85 470.195 84.15H476.795V92.3H430.095V84.15H436.495C436.428 83.85 436.328 83.5 436.195 83.1C436.095 82.6667 435.978 82.1833 435.845 81.65L445.545 80.4C445.712 81.5667 445.928 82.8167 446.195 84.15H447.495V79.9H431.745V72.8H447.495V71.85H432.645V70.2C432.345 70.2333 431.995 70.2667 431.595 70.3C431.195 70.3333 430.712 70.35 430.145 70.35C430.112 68.85 429.978 67.0833 429.745 65.05C429.545 62.9833 429.312 61.25 429.045 59.85L430.595 59.9C432.562 59.9 434.662 59.7667 436.895 59.5C439.162 59.2333 441.145 58.8167 442.845 58.25C444.378 57.75 445.478 57.2333 446.145 56.7C446.812 56.1667 447.212 55.4333 447.345 54.5H459.695C459.428 55.4 459.112 56.2167 458.745 56.95C464.678 59.0167 471.128 59.9833 478.095 59.85C477.795 61.2833 477.495 63 477.195 65C476.928 67 476.728 68.7833 476.595 70.35L474.245 70.05V71.85H459.395V72.8H475.145V79.9H459.395V84.15H460.495C460.762 82.8167 460.978 81.5667 461.145 80.4L470.845 81.65ZM452.695 62.7C451.162 63.7667 449.528 64.75 447.795 65.65H458.645C456.745 64.85 454.762 63.8667 452.695 62.7Z"/>
</mask>
<path d="M126.354 77.4C125.388 78.9667 124.421 80.7833 123.454 82.85L126.304 82.45C125.538 83.75 125.021 85.1333 124.754 86.6C124.521 88.0667 124.304 90.0167 124.104 92.45C118.104 92.6833 113.071 92.8 109.004 92.8C103.438 92.8 98.9876 92.5333 95.6543 92C92.321 91.4667 89.4043 90.6 86.9043 89.4C85.3043 90.4667 82.9043 91.7667 79.7043 93.3L79.4543 92.3C78.8876 89.8667 78.3876 87.9 77.9543 86.4C77.521 84.8667 77.0043 83.4167 76.4043 82.05C77.2376 81.85 78.021 81.5833 78.7543 81.25C79.4876 80.9167 80.071 80.5833 80.5043 80.25V76.6H77.5043L77.5543 68.35H91.1543V77.1C97.0876 76.1667 100.638 75.4833 101.804 75.05H92.2043V67.7H102.954V66.7H92.2043V60.05L89.8543 67.35C85.4543 66.1167 81.2876 65.1667 77.3543 64.5L80.3043 55.85C84.971 56.9833 89.021 58.1333 92.4543 59.3L92.4043 59.5H99.3043C97.671 58.9333 95.6376 58.35 93.2043 57.75L98.9043 53.25C102.538 54.2167 105.938 55.5 109.104 57.1L106.154 59.5H107.054C108.421 58.7667 109.771 57.8833 111.104 56.85C112.438 55.8167 113.604 54.7167 114.604 53.55L124.454 56.35C123.221 57.6167 121.971 58.6667 120.704 59.5H124.854V66.7H113.854V67.7H124.854V75.05H114.254C116.188 75.5167 118.971 76.0667 122.604 76.7L126.354 77.4ZM91.1543 82.45L93.3543 82.9C92.721 81.1 91.9876 79.55 91.1543 78.25V82.45ZM108.354 83.8C110.454 83.8 112.471 83.75 114.404 83.65C112.704 82.95 110.771 82.0167 108.604 80.85C107.138 81.85 105.238 82.8 102.904 83.7C105.104 83.7667 106.921 83.8 108.354 83.8Z" fill="#E6001D"/>
<path d="M172.754 77.25V86.65H165.954V93H154.004C154.138 91.6 154.238 89.4833 154.304 86.65H130.554V76.55C138.321 70.5833 145.254 63.9667 151.354 56.7H165.954V77.25H172.754ZM154.554 66.6C152.254 68.9667 150.271 70.95 148.604 72.55C146.938 74.1167 145.054 75.6833 142.954 77.25H154.404L154.554 66.6Z" fill="#E6001D"/>
<path d="M199.696 93.5C192.529 93.5 187.246 91.85 183.846 88.55C180.446 85.25 178.746 80.6667 178.746 74.8C178.746 68.9667 180.446 64.4167 183.846 61.15C187.279 57.85 192.562 56.2 199.696 56.2C206.829 56.2 212.096 57.85 215.496 61.15C218.896 64.4167 220.596 68.9667 220.596 74.8C220.596 80.6667 218.896 85.25 215.496 88.55C212.096 91.85 206.829 93.5 199.696 93.5ZM199.746 84.75C202.812 84.75 205.046 83.8167 206.446 81.95C207.846 80.05 208.546 77.6667 208.546 74.8C208.546 71.9667 207.846 69.6167 206.446 67.75C205.046 65.85 202.812 64.9 199.746 64.9C196.579 64.9 194.279 65.85 192.846 67.75C191.446 69.6167 190.746 71.9667 190.746 74.8C190.746 77.6333 191.446 80 192.846 81.9C194.279 83.8 196.579 84.75 199.746 84.75Z" fill="#E6001D"/>
<path d="M247.545 93.5C240.379 93.5 235.095 91.85 231.695 88.55C228.295 85.25 226.595 80.6667 226.595 74.8C226.595 68.9667 228.295 64.4167 231.695 61.15C235.129 57.85 240.412 56.2 247.545 56.2C254.679 56.2 259.945 57.85 263.345 61.15C266.745 64.4167 268.445 68.9667 268.445 74.8C268.445 80.6667 266.745 85.25 263.345 88.55C259.945 91.85 254.679 93.5 247.545 93.5ZM247.595 84.75C250.662 84.75 252.895 83.8167 254.295 81.95C255.695 80.05 256.395 77.6667 256.395 74.8C256.395 71.9667 255.695 69.6167 254.295 67.75C252.895 65.85 250.662 64.9 247.595 64.9C244.429 64.9 242.129 65.85 240.695 67.75C239.295 69.6167 238.595 71.9667 238.595 74.8C238.595 77.6333 239.295 80 240.695 81.9C242.129 83.8 244.429 84.75 247.595 84.75Z" fill="#E6001D"/>
<path d="M277.095 55.4H318.495V63.7H277.095V55.4ZM320.395 78.7C320.395 82.2667 320.345 84.7833 320.245 86.25C320.145 87.6833 319.912 88.8167 319.545 89.65C318.978 90.9167 318.162 91.7333 317.095 92.1C316.062 92.4667 314.828 92.65 313.395 92.65H303.595C301.562 92.65 300.095 92.25 299.195 91.45C298.295 90.65 297.845 89.3667 297.845 87.6V74.5H290.395L297.345 76.3C295.978 79.9 293.962 83.1333 291.295 86C288.662 88.8667 285.495 91.25 281.795 93.15C280.228 91.4833 278.745 90.0333 277.345 88.8C275.978 87.5333 274.278 86.1833 272.245 84.75C275.212 83.6833 277.562 82.6667 279.295 81.7C281.028 80.7333 282.412 79.7 283.445 78.6C284.478 77.5 285.412 76.1333 286.245 74.5H274.495V65.55H320.345V74.5H308.545V82.85C308.545 83.0167 308.628 83.1333 308.795 83.2C308.962 83.2333 309.245 83.25 309.645 83.25C310.278 83.25 310.595 82.9167 310.595 82.25C310.595 79.95 310.495 77.5333 310.295 75C312.762 75.6333 316.128 76.1 320.395 76.4V78.7Z" fill="#E6001D"/>
<path d="M338.745 67.9V71.05L340.145 70.95C340.078 72.9167 340.045 75.8667 340.045 79.8L338.745 79.95V84.65C338.745 87.3833 338.495 89.2833 337.995 90.35C337.528 91.4167 336.645 92.1 335.345 92.4C334.078 92.6667 331.662 92.8667 328.095 93L327.045 93.05C326.878 90.9167 326.662 89.1833 326.395 87.85C326.162 86.5167 325.695 85.1167 324.995 83.65C326.162 83.65 326.978 83.6 327.445 83.5C327.945 83.3667 328.245 83.1833 328.345 82.95C328.445 82.7167 328.495 82.3 328.495 81.7V80.95C327.295 81.0833 326.378 81.1667 325.745 81.2C325.612 77.2667 325.345 74.15 324.945 71.85L328.495 71.7V67.9H325.745V59.05H328.495V54.95H338.745V59.05H340.045V67C342.912 66.9 345.795 66.45 348.695 65.65L349.195 65.5H342.395V62.05H340.795V56.2H342.395V54.75H352.195V56.2H360.895V54.75H370.745V56.2H373.645V62.05H370.745V65.5H364.145C366.978 66.0667 370.345 66.5167 374.245 66.85C373.712 67.7833 373.212 69.0333 372.745 70.6C372.312 72.1333 372.095 73.4667 372.095 74.6L370.245 74.2V77.85H343.045V74.6C342.745 74.6667 342.162 74.7833 341.295 74.95C341.295 73.75 341.162 72.5 340.895 71.2C340.628 69.9 340.278 68.8 339.845 67.9H338.745ZM360.895 63.25V62.05H352.195V63.25H360.895ZM361.595 71.95C359.728 71.3167 357.945 70.55 356.245 69.65C354.745 70.6167 353.362 71.3167 352.095 71.75L351.545 71.95H361.595ZM341.095 78.75H372.245V93.05H360.995V92.55H352.195V93.05H341.095V78.75ZM352.195 86.25H360.995V84.25H352.195V86.25Z" fill="#E6001D"/>
<path d="M424.595 56.05V63.05H406.645V64.1H423.095V81.9H406.645V83.05H424.595V90.75H406.645V93.4H396.245V90.75H378.295V83.05H396.245V81.9H379.795V64.1H396.245V63.05H378.295V56.05H396.245V54.5H406.645V56.05H424.595ZM396.245 69.15H390.795V70.5H396.245V69.15ZM412.095 70.5V69.15H406.645V70.5H412.095ZM390.795 75.05V76.35H396.245V75.05H390.795ZM406.645 76.35H412.095V75.05H406.645V76.35Z" fill="#E6001D"/>
<path d="M470.845 81.65C470.712 82.1833 470.578 82.6667 470.445 83.1C470.345 83.5 470.262 83.85 470.195 84.15H476.795V92.3H430.095V84.15H436.495C436.428 83.85 436.328 83.5 436.195 83.1C436.095 82.6667 435.978 82.1833 435.845 81.65L445.545 80.4C445.712 81.5667 445.928 82.8167 446.195 84.15H447.495V79.9H431.745V72.8H447.495V71.85H432.645V70.2C432.345 70.2333 431.995 70.2667 431.595 70.3C431.195 70.3333 430.712 70.35 430.145 70.35C430.112 68.85 429.978 67.0833 429.745 65.05C429.545 62.9833 429.312 61.25 429.045 59.85L430.595 59.9C432.562 59.9 434.662 59.7667 436.895 59.5C439.162 59.2333 441.145 58.8167 442.845 58.25C444.378 57.75 445.478 57.2333 446.145 56.7C446.812 56.1667 447.212 55.4333 447.345 54.5H459.695C459.428 55.4 459.112 56.2167 458.745 56.95C464.678 59.0167 471.128 59.9833 478.095 59.85C477.795 61.2833 477.495 63 477.195 65C476.928 67 476.728 68.7833 476.595 70.35L474.245 70.05V71.85H459.395V72.8H475.145V79.9H459.395V84.15H460.495C460.762 82.8167 460.978 81.5667 461.145 80.4L470.845 81.65ZM452.695 62.7C451.162 63.7667 449.528 64.75 447.795 65.65H458.645C456.745 64.85 454.762 63.8667 452.695 62.7Z" fill="#E6001D"/>
<path d="M126.354 77.4C125.388 78.9667 124.421 80.7833 123.454 82.85L126.304 82.45C125.538 83.75 125.021 85.1333 124.754 86.6C124.521 88.0667 124.304 90.0167 124.104 92.45C118.104 92.6833 113.071 92.8 109.004 92.8C103.438 92.8 98.9876 92.5333 95.6543 92C92.321 91.4667 89.4043 90.6 86.9043 89.4C85.3043 90.4667 82.9043 91.7667 79.7043 93.3L79.4543 92.3C78.8876 89.8667 78.3876 87.9 77.9543 86.4C77.521 84.8667 77.0043 83.4167 76.4043 82.05C77.2376 81.85 78.021 81.5833 78.7543 81.25C79.4876 80.9167 80.071 80.5833 80.5043 80.25V76.6H77.5043L77.5543 68.35H91.1543V77.1C97.0876 76.1667 100.638 75.4833 101.804 75.05H92.2043V67.7H102.954V66.7H92.2043V60.05L89.8543 67.35C85.4543 66.1167 81.2876 65.1667 77.3543 64.5L80.3043 55.85C84.971 56.9833 89.021 58.1333 92.4543 59.3L92.4043 59.5H99.3043C97.671 58.9333 95.6376 58.35 93.2043 57.75L98.9043 53.25C102.538 54.2167 105.938 55.5 109.104 57.1L106.154 59.5H107.054C108.421 58.7667 109.771 57.8833 111.104 56.85C112.438 55.8167 113.604 54.7167 114.604 53.55L124.454 56.35C123.221 57.6167 121.971 58.6667 120.704 59.5H124.854V66.7H113.854V67.7H124.854V75.05H114.254C116.188 75.5167 118.971 76.0667 122.604 76.7L126.354 77.4ZM91.1543 82.45L93.3543 82.9C92.721 81.1 91.9876 79.55 91.1543 78.25V82.45ZM108.354 83.8C110.454 83.8 112.471 83.75 114.404 83.65C112.704 82.95 110.771 82.0167 108.604 80.85C107.138 81.85 105.238 82.8 102.904 83.7C105.104 83.7667 106.921 83.8 108.354 83.8Z" stroke="white" stroke-width="6" stroke-linejoin="round" mask="url(#path-4-outside-2_311_2341)"/>
<path d="M172.754 77.25V86.65H165.954V93H154.004C154.138 91.6 154.238 89.4833 154.304 86.65H130.554V76.55C138.321 70.5833 145.254 63.9667 151.354 56.7H165.954V77.25H172.754ZM154.554 66.6C152.254 68.9667 150.271 70.95 148.604 72.55C146.938 74.1167 145.054 75.6833 142.954 77.25H154.404L154.554 66.6Z" stroke="white" stroke-width="6" stroke-linejoin="round" mask="url(#path-4-outside-2_311_2341)"/>
<path d="M199.696 93.5C192.529 93.5 187.246 91.85 183.846 88.55C180.446 85.25 178.746 80.6667 178.746 74.8C178.746 68.9667 180.446 64.4167 183.846 61.15C187.279 57.85 192.562 56.2 199.696 56.2C206.829 56.2 212.096 57.85 215.496 61.15C218.896 64.4167 220.596 68.9667 220.596 74.8C220.596 80.6667 218.896 85.25 215.496 88.55C212.096 91.85 206.829 93.5 199.696 93.5ZM199.746 84.75C202.812 84.75 205.046 83.8167 206.446 81.95C207.846 80.05 208.546 77.6667 208.546 74.8C208.546 71.9667 207.846 69.6167 206.446 67.75C205.046 65.85 202.812 64.9 199.746 64.9C196.579 64.9 194.279 65.85 192.846 67.75C191.446 69.6167 190.746 71.9667 190.746 74.8C190.746 77.6333 191.446 80 192.846 81.9C194.279 83.8 196.579 84.75 199.746 84.75Z" stroke="white" stroke-width="6" stroke-linejoin="round" mask="url(#path-4-outside-2_311_2341)"/>
<path d="M247.545 93.5C240.379 93.5 235.095 91.85 231.695 88.55C228.295 85.25 226.595 80.6667 226.595 74.8C226.595 68.9667 228.295 64.4167 231.695 61.15C235.129 57.85 240.412 56.2 247.545 56.2C254.679 56.2 259.945 57.85 263.345 61.15C266.745 64.4167 268.445 68.9667 268.445 74.8C268.445 80.6667 266.745 85.25 263.345 88.55C259.945 91.85 254.679 93.5 247.545 93.5ZM247.595 84.75C250.662 84.75 252.895 83.8167 254.295 81.95C255.695 80.05 256.395 77.6667 256.395 74.8C256.395 71.9667 255.695 69.6167 254.295 67.75C252.895 65.85 250.662 64.9 247.595 64.9C244.429 64.9 242.129 65.85 240.695 67.75C239.295 69.6167 238.595 71.9667 238.595 74.8C238.595 77.6333 239.295 80 240.695 81.9C242.129 83.8 244.429 84.75 247.595 84.75Z" stroke="white" stroke-width="6" stroke-linejoin="round" mask="url(#path-4-outside-2_311_2341)"/>
<path d="M277.095 55.4H318.495V63.7H277.095V55.4ZM320.395 78.7C320.395 82.2667 320.345 84.7833 320.245 86.25C320.145 87.6833 319.912 88.8167 319.545 89.65C318.978 90.9167 318.162 91.7333 317.095 92.1C316.062 92.4667 314.828 92.65 313.395 92.65H303.595C301.562 92.65 300.095 92.25 299.195 91.45C298.295 90.65 297.845 89.3667 297.845 87.6V74.5H290.395L297.345 76.3C295.978 79.9 293.962 83.1333 291.295 86C288.662 88.8667 285.495 91.25 281.795 93.15C280.228 91.4833 278.745 90.0333 277.345 88.8C275.978 87.5333 274.278 86.1833 272.245 84.75C275.212 83.6833 277.562 82.6667 279.295 81.7C281.028 80.7333 282.412 79.7 283.445 78.6C284.478 77.5 285.412 76.1333 286.245 74.5H274.495V65.55H320.345V74.5H308.545V82.85C308.545 83.0167 308.628 83.1333 308.795 83.2C308.962 83.2333 309.245 83.25 309.645 83.25C310.278 83.25 310.595 82.9167 310.595 82.25C310.595 79.95 310.495 77.5333 310.295 75C312.762 75.6333 316.128 76.1 320.395 76.4V78.7Z" stroke="white" stroke-width="6" stroke-linejoin="round" mask="url(#path-4-outside-2_311_2341)"/>
<path d="M338.745 67.9V71.05L340.145 70.95C340.078 72.9167 340.045 75.8667 340.045 79.8L338.745 79.95V84.65C338.745 87.3833 338.495 89.2833 337.995 90.35C337.528 91.4167 336.645 92.1 335.345 92.4C334.078 92.6667 331.662 92.8667 328.095 93L327.045 93.05C326.878 90.9167 326.662 89.1833 326.395 87.85C326.162 86.5167 325.695 85.1167 324.995 83.65C326.162 83.65 326.978 83.6 327.445 83.5C327.945 83.3667 328.245 83.1833 328.345 82.95C328.445 82.7167 328.495 82.3 328.495 81.7V80.95C327.295 81.0833 326.378 81.1667 325.745 81.2C325.612 77.2667 325.345 74.15 324.945 71.85L328.495 71.7V67.9H325.745V59.05H328.495V54.95H338.745V59.05H340.045V67C342.912 66.9 345.795 66.45 348.695 65.65L349.195 65.5H342.395V62.05H340.795V56.2H342.395V54.75H352.195V56.2H360.895V54.75H370.745V56.2H373.645V62.05H370.745V65.5H364.145C366.978 66.0667 370.345 66.5167 374.245 66.85C373.712 67.7833 373.212 69.0333 372.745 70.6C372.312 72.1333 372.095 73.4667 372.095 74.6L370.245 74.2V77.85H343.045V74.6C342.745 74.6667 342.162 74.7833 341.295 74.95C341.295 73.75 341.162 72.5 340.895 71.2C340.628 69.9 340.278 68.8 339.845 67.9H338.745ZM360.895 63.25V62.05H352.195V63.25H360.895ZM361.595 71.95C359.728 71.3167 357.945 70.55 356.245 69.65C354.745 70.6167 353.362 71.3167 352.095 71.75L351.545 71.95H361.595ZM341.095 78.75H372.245V93.05H360.995V92.55H352.195V93.05H341.095V78.75ZM352.195 86.25H360.995V84.25H352.195V86.25Z" stroke="white" stroke-width="6" stroke-linejoin="round" mask="url(#path-4-outside-2_311_2341)"/>
<path d="M424.595 56.05V63.05H406.645V64.1H423.095V81.9H406.645V83.05H424.595V90.75H406.645V93.4H396.245V90.75H378.295V83.05H396.245V81.9H379.795V64.1H396.245V63.05H378.295V56.05H396.245V54.5H406.645V56.05H424.595ZM396.245 69.15H390.795V70.5H396.245V69.15ZM412.095 70.5V69.15H406.645V70.5H412.095ZM390.795 75.05V76.35H396.245V75.05H390.795ZM406.645 76.35H412.095V75.05H406.645V76.35Z" stroke="white" stroke-width="6" stroke-linejoin="round" mask="url(#path-4-outside-2_311_2341)"/>
<path d="M470.845 81.65C470.712 82.1833 470.578 82.6667 470.445 83.1C470.345 83.5 470.262 83.85 470.195 84.15H476.795V92.3H430.095V84.15H436.495C436.428 83.85 436.328 83.5 436.195 83.1C436.095 82.6667 435.978 82.1833 435.845 81.65L445.545 80.4C445.712 81.5667 445.928 82.8167 446.195 84.15H447.495V79.9H431.745V72.8H447.495V71.85H432.645V70.2C432.345 70.2333 431.995 70.2667 431.595 70.3C431.195 70.3333 430.712 70.35 430.145 70.35C430.112 68.85 429.978 67.0833 429.745 65.05C429.545 62.9833 429.312 61.25 429.045 59.85L430.595 59.9C432.562 59.9 434.662 59.7667 436.895 59.5C439.162 59.2333 441.145 58.8167 442.845 58.25C444.378 57.75 445.478 57.2333 446.145 56.7C446.812 56.1667 447.212 55.4333 447.345 54.5H459.695C459.428 55.4 459.112 56.2167 458.745 56.95C464.678 59.0167 471.128 59.9833 478.095 59.85C477.795 61.2833 477.495 63 477.195 65C476.928 67 476.728 68.7833 476.595 70.35L474.245 70.05V71.85H459.395V72.8H475.145V79.9H459.395V84.15H460.495C460.762 82.8167 460.978 81.5667 461.145 80.4L470.845 81.65ZM452.695 62.7C451.162 63.7667 449.528 64.75 447.795 65.65H458.645C456.745 64.85 454.762 63.8667 452.695 62.7Z" stroke="white" stroke-width="6" stroke-linejoin="round" mask="url(#path-4-outside-2_311_2341)"/>
</g>
<defs>
<filter id="filter0_d_311_2341" x="73.4043" y="50.25" width="407.69" height="49.25" filterUnits="userSpaceOnUse" color-interpolation-filters="sRGB">
<feFlood flood-opacity="0" result="BackgroundImageFix"/>
<feColorMatrix in="SourceAlpha" type="matrix" values="0 0 0 0 0 0 0 0 0 0 0 0 0 0 0 0 0 0 127 0" result="hardAlpha"/>
<feOffset dy="3"/>
<feComposite in2="hardAlpha" operator="out"/>
<feColorMatrix type="matrix" values="0 0 0 0 0.887874 0 0 0 0 0.318776 0 0 0 0 0.318776 0 0 0 1 0"/>
<feBlend mode="normal" in2="BackgroundImageFix" result="effect1_dropShadow_311_2341"/>
<feBlend mode="normal" in="SourceGraphic" in2="effect1_dropShadow_311_2341" result="shape"/>
</filter>
<radialGradient id="paint0_radial_311_2341" cx="0" cy="0" r="1" gradientUnits="userSpaceOnUse" gradientTransform="translate(277.013 72.9912) scale(199.419 138.197)">
<stop stop-color="white"/>
<stop offset="1" stop-color="#FFF9EC"/>
</radialGradient>
</defs>
</svg>
