<svg viewBox="0 0 349 38" fill="none" xmlns="http://www.w3.org/2000/svg">
<path d="M204.346 4.16602V3.44229C204.346 3.20104 204.552 3 204.799 3C205.047 3 204.799 3 204.841 3C210.612 4.00519 215.312 8.02593 217.168 13.3333C217.168 13.3735 217.168 13.4137 217.168 13.454C217.168 13.6952 216.961 13.8962 216.714 13.8962H206.985C206.985 13.8962 206.985 13.8962 206.943 13.8962C206.82 13.8962 206.696 13.7756 206.613 13.655L205.83 11.8054C204.799 9.11154 204.305 6.53826 204.305 4.16602H204.346ZM195.235 18.9624C195.235 18.9222 195.235 18.8418 195.235 18.8016C195.235 18.5603 195.029 18.3593 194.781 18.3593H186.453C186.206 18.3593 186 18.5603 186 18.8016C186.124 22.7419 187.732 26.2802 190.288 28.9741C190.37 29.0545 190.494 29.0947 190.617 29.0947C190.782 29.0947 190.947 28.9741 191.03 28.8132L195.194 18.9222L195.235 18.9624ZM209.334 31.8288L204.305 19.9274C203.934 19.0428 203.068 18.4397 202.037 18.4397C201.007 18.4397 200.265 19.0026 199.852 19.7665L194.781 31.869C194.781 31.9092 194.781 31.9896 194.781 32.0298C194.781 32.1907 194.864 32.3113 194.987 32.3917C197.131 33.4371 199.522 34 202.079 34C204.635 34 207.026 33.4371 209.128 32.3917C209.252 32.3113 209.376 32.1907 209.376 31.9896C209.376 31.7886 209.376 31.869 209.376 31.8288H209.334ZM218.033 18.8418C218.033 18.6005 217.827 18.3995 217.58 18.3995H209.252C209.005 18.3995 208.798 18.6005 208.798 18.8418C208.798 19.083 208.798 18.9624 208.798 19.0026L212.962 28.8936C213.045 29.0545 213.169 29.1751 213.375 29.1751C213.581 29.1751 213.622 29.1349 213.705 29.0545C216.261 26.3606 217.868 22.8223 217.992 18.882L218.033 18.8418ZM187.36 13.9364H197.09C197.255 13.9364 197.42 13.8158 197.461 13.655L198.244 11.8054C199.316 9.11154 199.77 6.53826 199.77 4.16602V3.44229C199.77 3.20104 199.564 3 199.316 3C199.069 3 199.316 3 199.275 3C193.503 4.00519 188.803 8.02593 186.948 13.3333C186.948 13.3735 186.948 13.4137 186.948 13.454C186.948 13.6952 187.154 13.8962 187.402 13.8962L187.36 13.9364Z" fill="url(#paint0_linear_390_6879)"/>
<path d="M230.361 9.66022H253.165V7.1084H230.361V9.66022Z" fill="#005BAC"/>
<path d="M253.855 27.2394C253.855 26.9964 253.652 26.8344 253.409 26.8344H246.199C245.753 26.8344 245.348 26.4293 245.186 26.0243C245.186 25.9838 245.146 25.8623 245.146 25.7812V14.9258H253.733V12.374H229.794V14.9258H237.369C237.328 15.0069 231.374 26.1053 229.956 28.7786C229.956 28.8191 229.956 28.9001 229.956 28.9406C229.956 29.1837 230.159 29.3862 230.402 29.3862H232.792C232.792 29.3862 240.528 14.9664 240.528 14.9258H242.473V25.7002C242.473 27.7255 244.052 29.3862 245.997 29.3862H251.465C252.68 29.3862 253.733 28.4546 253.936 27.3204C253.936 27.3204 253.936 27.2799 253.936 27.2394H253.855Z" fill="#005BAC"/>
<path d="M286.098 12.6982C286.098 12.4552 285.895 12.2932 285.652 12.2932H274.351V6.41992H271.678V12.2932H261.308V14.8045H270.908C270.827 14.926 262.929 25.8624 260.944 28.6168C260.944 28.6168 260.944 28.6168 260.944 28.6573C260.944 28.6978 260.903 28.7788 260.903 28.8598C260.903 29.1028 261.106 29.3054 261.349 29.3054H263.779L272.326 17.5588C272.812 16.9513 273.5 16.9513 273.986 17.5588L282.533 29.3054H284.963C285.206 29.3054 285.368 29.1028 285.368 28.8598C285.368 28.6168 285.368 28.6978 285.287 28.6168C283.303 25.8624 275.404 14.926 275.323 14.8045C275.485 14.8045 283.667 14.8045 283.667 14.8045C284.923 14.8045 286.017 13.8729 286.179 12.6982C286.179 12.6982 286.179 12.6982 286.179 12.6577L286.098 12.6982Z" fill="#005BAC"/>
<path d="M326.522 10.6323V14.5613H328.993V10.0652L332.234 9.29561V7.39187C332.234 7.14884 332.031 6.98682 331.788 6.98682C331.545 6.98682 331.748 6.98682 331.707 6.98682L322.877 9.05257V10.9563C322.877 11.1994 323.079 11.4019 323.323 11.4019C323.566 11.4019 323.404 11.4019 323.444 11.4019L326.482 10.6728L326.522 10.6323Z" fill="#005BAC"/>
<path d="M346.085 16.3033C345.315 15.5742 344.384 15.5337 344.1 15.5337C343.817 15.5337 343.979 15.5337 343.938 15.5337H324.901V27.2802C324.901 27.2802 324.901 27.2802 324.941 27.2802H327.129L326.359 28.6574C326.359 28.7384 326.319 28.7789 326.319 28.8599C326.319 29.1029 326.521 29.3055 326.724 29.3055H328.789L329.924 27.3207H341.67L342.804 29.3055H344.87C345.113 29.3055 345.275 29.1029 345.275 28.8599C345.275 28.6169 345.275 28.6979 345.234 28.6574L344.424 27.2802C344.87 27.1992 345.478 27.0372 346.004 26.5511C346.936 25.7005 346.895 24.6069 346.895 24.5664V18.207C346.895 18.1665 346.976 17.1134 346.004 16.2223L346.085 16.3033ZM327.412 21.0424H344.424V21.8525H327.412V21.0424ZM344.343 24.9309C344.262 25.0119 344.141 25.0524 344.06 25.0524H327.412V24.2423H344.424V24.6879C344.424 24.6879 344.424 24.8499 344.303 24.9714L344.343 24.9309ZM344.424 18.2475V18.7336H327.412V17.883H344.06C344.1 17.883 344.222 17.883 344.343 17.964C344.465 18.0855 344.465 18.207 344.465 18.2475H344.424Z" fill="#005BAC"/>
<path d="M348.152 12.6575C348.152 12.4145 347.949 12.212 347.706 12.212C345.641 12.212 336.851 12.212 336.81 12.212C336.77 12.212 336.608 12.212 336.527 12.131C336.405 12.0095 336.405 11.8879 336.405 11.8879V10.7133H347.382V8.36399H336.405V6.98682H333.935C333.935 10.9563 333.935 11.6854 333.935 11.8474C333.935 11.8474 333.813 12.9816 334.785 13.8727C335.595 14.6018 336.567 14.6828 336.851 14.6828C337.134 14.6828 336.932 14.6828 336.932 14.6828H345.843C347.018 14.6828 348.03 13.8727 348.233 12.8601C348.233 12.8601 348.233 12.8196 348.233 12.7791L348.152 12.6575Z" fill="#005BAC"/>
<path d="M315.505 7.95905C314.735 7.27046 314.006 7.22996 313.56 7.18945C313.479 7.18945 313.439 7.18945 313.358 7.18945H313.074H307.12V29.3053C307.12 29.3053 307.12 29.3053 307.161 29.3053H309.631V22.2979H313.844V29.3053H316.274V9.90329C316.274 9.86279 316.355 8.80966 315.383 7.91854L315.505 7.95905ZM313.884 19.9891H309.672V15.9791H313.884V19.9891ZM313.884 9.90329V13.6298H309.672V9.53875H313.52C313.56 9.53875 313.682 9.53875 313.803 9.61976C313.925 9.74128 313.925 9.86279 313.925 9.90329H313.884Z" fill="#005BAC"/>
<path d="M305.581 23.3916H304.082V11.1185H305.824V8.80971H304.082V7.27051H301.612V8.80971H296.467V7.27051H293.997V8.80971H292.376V11.1185H293.997V23.3511H292.133V25.6599H294.604L292.943 28.5762C292.903 28.6572 292.862 28.7383 292.862 28.8193C292.862 29.0623 293.065 29.2648 293.308 29.2648H295.374L297.399 25.7409H300.842L302.867 29.2648H304.933C305.176 29.2648 305.378 29.0623 305.378 28.8193C305.378 28.5762 305.378 28.6573 305.338 28.6167L303.677 25.7004C304.892 25.7004 305.865 24.8498 306.067 23.7966C306.067 23.7966 306.067 23.7561 306.067 23.7156C306.067 23.4726 305.865 23.3106 305.662 23.2701L305.581 23.3916ZM301.53 23.3916H296.386V20.9613H301.53V23.3916ZM301.53 18.5715H296.386V16.1411H301.53V18.5715ZM301.53 13.7918H296.386V11.159H301.53V13.7918Z" fill="#005BAC"/>
<g clip-path="url(#clip0_390_6879)">
<path d="M33.8391 0.175293L28.3812 21.1255C27.5661 23.4478 26.5667 25.6747 25.1598 27.6809C20.2016 34.758 11.4107 37.0301 3.33297 37.3611L2.73624 29.6822C7.6799 29.1254 12.6818 26.8634 14.1081 21.5167H2.20257L0 0.175293H33.8391Z" fill="#E6001D"/>
<path d="M52.8082 11.626L53.4147 21.8227L59.0278 11.626H67.3724L55.234 31.3223C52.2163 36.2727 47.4619 38.4696 41.873 36.8094C41.4703 36.689 39.9081 36.1523 39.8984 35.716L42.7851 29.8277C43.309 30.1988 46.3169 31.5681 46.5644 30.6703L44.9052 11.626H52.7985H52.8082Z" fill="#E6001D"/>
<path d="M77.8178 11.2051C93.459 9.63017 91.237 33.013 76.1053 31.8644C63.5448 30.9114 65.6794 12.4239 77.8178 11.2051ZM80.3794 18.583C80.2096 18.4075 79.4867 17.9912 79.2587 17.936C74.6256 16.9279 73.2138 26.2068 78.4679 25.0482C80.753 24.5416 82.0047 20.2583 80.3794 18.583Z" fill="#E6001D"/>
<path d="M101.372 11.626L102.662 15.5482L105.85 11.626H114.422L105.641 21.6221L109.416 31.3975H101.221L100.081 27.3148L96.7435 31.3975H88.1709L96.9521 21.2459L93.328 11.626H101.372Z" fill="#E6001D"/>
<path d="M126.259 11.626L121.102 31.3975H113.209L118.216 11.626H126.259Z" fill="#E6001D"/>
<path d="M124.251 0.0601117C130.34 -0.797559 129.539 7.94466 124.479 8.76722C118.037 9.81549 118.871 0.81747 124.251 0.0601117Z" fill="#E6001D"/>
</g>
<rect x="164.175" y="10.4619" width="2" height="20.692" transform="rotate(45 164.175 10.4619)" fill="#C6C6C6"/>
<rect x="165.183" y="25.6313" width="2" height="20.692" transform="rotate(135 165.183 25.6313)" fill="#C6C6C6"/>
<defs>
<linearGradient id="paint0_linear_390_6879" x1="202.079" y1="3" x2="202.079" y2="33.9598" gradientUnits="userSpaceOnUse">
<stop stop-color="#004098"/>
<stop offset="1" stop-color="#00A0E9"/>
</linearGradient>
<clipPath id="clip0_390_6879">
<rect width="128.55" height="37.3563" fill="white"/>
</clipPath>
</defs>
</svg>
