<?xml version="1.0" encoding="UTF-8"?><svg id="_圖層_1" xmlns="http://www.w3.org/2000/svg" viewBox="0 0 320 320"><g id="Layer_2"><g id="LINE_LOGO"><rect x="0" y="0" width="320" height="320" rx="160" ry="160" fill="#06c755" stroke-width="0"/><path d="m266.66,144.92c0-47.74-47.86-86.58-106.69-86.58s-106.69,38.84-106.69,86.58c0,42.8,38,78.65,89.22,85.42,3.48.75,8.21,2.29,9.4,5.26,1.08,2.7.71,6.93.35,9.65,0,0-1.25,7.53-1.52,9.13-.47,2.7-2.15,10.55,9.24,5.76s61.44-36.18,83.82-61.95h0c15.46-16.95,22.87-34.19,22.87-53.27Z" fill="#fff" stroke-width="0"/><path d="m231.16,172.49h-30c-1.1,0-2-.9-2-2h0v-46.55h0c0-1.1.9-2,2-2h30c1.1,0,2,.9,2,2v7.57c0,1.1-.9,2-2,2h-20.37v7.85h20.37c1.1,0,2,.9,2,2v7.64c0,1.1-.9,2-2,2h-20.37v7.86h20.37c1.1,0,2,.9,2,2v7.56c.04,1.1-.82,2.03-1.93,2.07-.02,0-.05,0-.07,0Z" fill="#06c755" stroke-width="0"/><path d="m120.29,172.49c1.1,0,2-.9,2-2v-7.56c0-1.1-.9-2-2-2h-20.37v-37c0-1.1-.9-2-2-2h-7.6c-1.1,0-2,.9-2,2v46.53h0c0,1.1.9,2,2,2h30l-.03.03Z" fill="#06c755" stroke-width="0"/><rect x="128.73" y="121.85" width="11.64" height="50.64" rx="2.04" ry="2.04" fill="#06c755" stroke-width="0"/><path d="m189.84,121.85h-7.56c-1.1,0-2,.9-2,2v27.66l-21.3-28.77c-.05-.08-.11-.15-.17-.21h0l-.12-.12h0l-.11-.09h-.06l-.11-.08h-.06l-.11-.06h-8.47c-1.1,0-2,.9-2,2v46.56c0,1.1.9,2,2,2h7.57c1.1,0,2-.9,2-2v-27.93l21.33,28.8c.14.2.32.38.52.52h0l.12.08h.06l.1.05h.31c.18.04.36.07.54.07h7.52c1.1,0,2-.9,2-2v-46.44c.02-1.1-.86-2.02-1.96-2.04-.01,0-.03,0-.04,0Z" fill="#06c755" stroke-width="0"/></g></g></svg>