<?xml version="1.0" encoding="UTF-8"?><svg id="_圖層_1" xmlns="http://www.w3.org/2000/svg" viewBox="0 0 744.47 596.08"><path d="m10.37,585.71V10.37h723.73v336.96c0,63.68-24.8,123.54-69.82,168.57s-104.89,69.82-168.57,69.82H10.37Z" fill="none" opacity=".7" stroke="#fff" stroke-miterlimit="10" stroke-width="5"/><path d="m0,0h744.47v356.15c0,132.42-107.51,239.93-239.93,239.93H0V0h0Z" fill="#fff" opacity=".4" stroke-width="0"/><path d="m96.08,222.93c2.03,4.14,6.19,6.56,10.53,6.56,1.58,0,3.2-.32,4.73-1,18.58-8.22,29.79-17.46,36.92-30.85v4.27c0,24.75,22.19,24.75,35.45,24.75,17.34,0,31.15-1.04,38.03-14.24.77-1.5,1.43-3,2-4.6,3.55,4.57,5.96,8.52,8.77,14.22,2.03,4.14,6.19,6.55,10.53,6.55,1.61,0,3.25-.33,4.81-1.04,6.71-3.03,10.13-4.77,14.67-7.5,8.86-5.37,17.13-12.32,24.6-20.67,2.2-2.48,4.23-4.98,6.11-7.56,3.47,4.76,7.39,9.2,11.99,13.67,9.48,9.04,18.64,15.38,31.6,21.86,1.64.82,3.44,1.24,5.24,1.24,1.32,0,2.64-.22,3.91-.67,3-1.06,5.44-3.29,6.76-6.19,3.43-7.53,6.08-11.79,11.32-18.22,2.36-2.9,3.2-6.74,2.26-10.36-.94-3.62-3.55-6.57-7.02-7.94-12.79-5.07-21.6-10.58-29.37-18.35-3.18-3.23-6.05-6.77-8.52-10.48h10.23c7.22,0,11.35.1,16.76.7.43.05.86.07,1.3.07,2.87,0,5.66-1.05,7.82-2.99,2.48-2.22,3.9-5.4,3.9-8.74v-21.66c0-3.31-1.4-6.47-3.86-8.69-2.17-1.96-4.97-3.03-7.87-3.03-.39,0-.78.02-1.17.06-4.42.44-8.81.72-17.02.72h-17.56c.15-8.59.25-9.24.78-12.67.52-3.38-.46-6.82-2.69-9.42s-5.48-4.09-8.9-4.09h-23.6c-3.45,0-6.72,1.52-8.94,4.15-2.23,2.63-3.19,6.11-2.62,9.5.5,3.02.74,5.57.74,11.87v.66h-16.13c-8.52,0-12.87-.28-16.79-.71-.42-.05-.84-.07-1.26-.07-2.88,0-5.67,1.06-7.83,3-2.48,2.22-3.89,5.39-3.89,8.72v.74c-.44-.58-.94-1.13-1.49-1.62-2.16-1.93-4.94-2.98-7.8-2.98-.09,0-.18,0-.27,0v-20.13c0-3.39-1.47-6.61-4.02-8.84-2.15-1.87-4.89-2.89-7.7-2.89-.53,0-1.07.04-1.6.11-2.97.41-6.07.66-12.32.66h-64.35c-6.06,0-9.4-.27-12.55-.68-.5-.06-1-.1-1.5-.1-2.83,0-5.59,1.03-7.74,2.92-2.53,2.23-3.98,5.43-3.98,8.8v20.13c-.13,0-.27,0-.4,0-2.87,0-5.66,1.05-7.82,2.99-2.48,2.22-3.9,5.4-3.9,8.74v20.25c0,3.33,1.41,6.5,3.89,8.72,2.16,1.94,4.95,3,7.83,3,.42,0,.84-.02,1.26-.07,4.69-.51,8.64-.71,14.08-.71h1.54c-.55,4.47-1.45,7.89-2.78,10.72-1.99,4.33-6.1,9.94-20.34,14.99-3.68,1.3-6.46,4.35-7.44,8.13-.97,3.78,0,7.79,2.59,10.71,3.45,3.88,7.23,9.7,10.1,15.56Zm95.75-59.91v-.2h.46c-.15.06-.31.13-.46.2Zm29.52-2.44c2.31-2.08,3.68-4.99,3.85-8.07.46.61.99,1.19,1.57,1.7,2.15,1.9,4.92,2.93,7.76,2.93.48,0,.97-.03,1.46-.09,4.54-.57,7.36-.68,16.73-.68h10.59c-1.83,4.03-4.29,7.66-7.51,11.2-.03.03-.05.06-.08.09-7.18,8.04-15.52,13.47-28.62,18.62.12-1.9.22-3.93.33-6.14.28-5.97-3.98-11.19-9.88-12.12-6.34-1-9.58-2.02-15.76-4.95-.17-.08-.33-.15-.5-.22,4.43.08,7.61.32,11.02.68.41.04.82.06,1.23.06,2.88,0,5.68-1.06,7.84-3.01Z" fill="#fff" stroke-width="0"/><path d="m631.12,240.75c-2.2-2.16-5.15-3.34-8.2-3.34-.5,0-1,.03-1.5.1-3.38.44-6.25.55-13.97.55h-19.6c-7.39,0-10.18-.11-14.95-.59-.39-.04-.78-.06-1.17-.06-.28,0-.55,0-.83.03-2.12-1.84-4.84-2.87-7.68-2.87h-19.21c-1.96,0-3.86.49-5.54,1.39-1.69-.91-3.59-1.39-5.55-1.39h-19.21c-3.39,0-6.6,1.46-8.83,4.01-1.91,2.18-2.92,4.98-2.89,7.85-1.07.44-2.08,1.05-2.99,1.8-1.8,1.49-3.07,3.48-3.73,5.67-.62-2.09-1.81-3.98-3.48-5.45-2.15-1.89-4.91-2.92-7.74-2.92-.5,0-1,.03-1.5.1-3.12.4-6.62.67-13.53.68.31-3.1-.63-6.22-2.63-8.65-2.23-2.69-5.54-4.25-9.03-4.25h-20.5c-3.15,0-6.15,1.27-8.35,3.49l-11.25-2.02c-.69-.12-1.38-.18-2.07-.18-2.42,0-4.79.75-6.79,2.17-2.57,1.82-4.29,4.6-4.79,7.71-.15.95-.48,2.14-.98,3.51-3.83-3.7-7.97-7.43-12.49-11.26-2.19-1.86-4.89-2.78-7.58-2.78-2.84,0-5.67,1.03-7.91,3.07l-14.83,13.54c-.37.34-.71.7-1.03,1.08-.54-.98-1.22-1.89-2.06-2.71l-8.25-8.12c-2.22-2.18-5.18-3.37-8.22-3.37-.82,0-1.64.09-2.46.26-1.19.26-5.53.26-6.96.26h-.61c-1.92-2.26-4.66-3.74-7.68-4.06l-20.5-2.19c-.41-.04-.82-.07-1.23-.07-5.1,0-9.71,3.39-11.25,8.35-.59,1.92-4.62,6.72-10.73,10.68.08-1.05.18-1.95.31-2.93.45-3.35-.57-6.73-2.8-9.27-2.23-2.54-5.44-4-8.82-4h-15.86c-3.37,0-6.58,1.45-8.8,3.98-2.23,2.53-3.25,5.9-2.82,9.24.23,1.81.38,3.45.46,6.25h-5.98c-3.29,0-6.44,1.39-8.66,3.82-.92,1.01-1.64,2.17-2.16,3.41-.97-1.31-2.2-2.43-3.65-3.26l-14.74-8.36c-1.02-1.74-2.48-3.21-4.28-4.24l-15.47-8.9c-1.79-1.03-3.81-1.56-5.84-1.56-1.08,0-2.16.15-3.22.45-1.57.45-3.01,1.21-4.24,2.23-2.09-1.78-4.77-2.82-7.61-2.82-.53,0-1.06.04-1.59.11-2.08.28-3.24.41-9.12.41h-24.24c-5.87,0-7.3-.11-10.39-.53-.53-.07-1.07-.11-1.6-.11-2.81,0-5.55,1.01-7.7,2.89-1.98,1.73-3.31,4.05-3.8,6.59-1.31.43-2.55,1.09-3.67,1.98l-14.06,11.22c-2.84,2.27-4.47,5.72-4.41,9.36s1.8,7.03,4.72,9.21c.88.66,1.69,1.27,2.45,1.86-.52.18-1.05.35-1.59.52-3.49,1.11-6.25,3.79-7.48,7.24-1.23,3.45-.77,7.27,1.22,10.34,3.28,5.03,5.3,9.24,7.19,15.03,1.01,3.1,3.27,5.63,6.23,7,1.16.54,2.39.87,3.64,1.01v7.17c0,3.61-.09,5.26-.3,8.25-.69-.07-1.36-.15-2.11-.26-.53-.07-1.07-.11-1.6-.11-2.81,0-5.55,1.01-7.7,2.89-2.55,2.23-4.02,5.45-4.02,8.84v19.08c0,3.36,1.44,6.56,3.96,8.79,2.15,1.9,4.92,2.93,7.76,2.93.48,0,.97-.03,1.45-.09,3.52-.44,6.14-.55,12.73-.55h90.01c6.62,0,9.35.12,12.68.55.5.06,1,.1,1.5.1,2.83,0,5.59-1.03,7.74-2.92,1.5-1.32,2.61-2.99,3.27-4.83,2.21,2.3,5.26,3.62,8.46,3.62h15.6c4.97,0,9.22-3.1,10.93-7.46,2.15,2.44,5.3,3.98,8.8,3.98h14.44c3.27,0,6.38-1.36,8.6-3.76.68-.74,1.26-1.55,1.73-2.42.52,0,1.69,0,1.69,0-.07.96-.14,1.91-.23,2.88-.28,3.27.82,6.51,3.04,8.93,2.22,2.42,5.35,3.8,8.64,3.8h19.99c3.35,0,6.54-1.43,8.76-3.93,2.22-2.5,3.27-5.83,2.88-9.16-.1-.84-.18-1.68-.25-2.51h1.89c5.11,0,7.84.11,10.83.44.43.05.86.07,1.3.07,2.51,0,4.96-.81,6.99-2.31l3.93,9.78c1.38,3.44,4.31,6.03,7.9,6.97.98.26,1.99.39,2.98.39,2.63,0,5.22-.89,7.32-2.57.48-.39,1.13-.84,1.76-1.28.44-.31.86-.6,1.25-.88,2.16-1.37,4.44-2.96,6.91-4.84,1.64,1.03,3.42,1.96,5.4,2.86,10.13,4.56,19.29,5.29,43.5,5.29,18.25,0,34-.22,46.82-.65,5.73-.19,10.47-4.5,11.23-10.18.06-.45.12-.87.17-1.28,5.02,4.18,6.27,5.58,9.83,10.43,1.99,2.71,5.04,4.43,8.39,4.73.35.03.71.05,1.06.05,2.98,0,5.86-1.13,8.04-3.19,4.82-4.54,8.4-8.27,11.66-12.33,1.75,2.45,3.67,4.87,6.23,7.94,2.13,2.56,5.25,4.1,8.58,4.22.15,0,.3,0,.44,0,3.17,0,6.22-1.29,8.43-3.58.49-.5.94-.97,1.37-1.4.94,1.12,1.88,2.31,2.87,3.64,2.21,2.95,5.69,4.69,9.38,4.69s7.16-1.74,9.38-4.69c.19-.26.39-.52.57-.77,2.03,2.27,4.93,3.74,8.16,3.9,2.87.14,5.07.14,6.39.14,10.63,0,17.37-1.29,22.54-4.3.15-.09.3-.18.45-.28,7.5-4.84,11.3-13.14,11.3-24.68v-84.07c0-7.79.11-11.48.45-14.61.38-3.57-.89-7.12-3.46-9.63Zm-408.35,35.63c.16-.21.23-.33.41-.54.04-.05.07-.1.11-.15,0,.57.01,1.17.02,1.79-.33-.17-.67-.32-1.02-.46.19-.25.34-.46.47-.64Zm.55,61.29c-.25-.27-.52-.53-.8-.78-2.15-1.88-4.9-2.9-7.72-2.9-.52,0-1.03.03-1.55.1-.83.11-1.56.2-2.3.27-.19-2.37-.29-4.39-.29-8.25v-7.51c1.47-.08,2.93-.44,4.3-1.07,3.02-1.4,5.3-4.02,6.28-7.2.75-2.46,1.41-4.46,2.08-6.27v33.61Zm130.76-67.91c.53-.75,1.06-1.52,1.61-2.33.44-.62.77-1.09,1.04-1.5.45-.66.47-.68.61-.83.04-.05.08-.1.12-.15.63,1.15,1.45,2.21,2.46,3.11,4.74,4.24,9.23,8.66,13.31,13.11-.8-.08-1.62-.18-2.6-.32-.54-.07-1.07-.11-1.6-.11-.45,0-.9.04-1.35.09-.12-1.71-.59-3.4-1.45-4.94-1.97-3.5-5.59-5.75-9.6-5.96-.86-.05-1.71-.1-2.54-.16Zm11.32,63.18c-.39.22-.7.4-.98.57-.45-2.44-1.67-4.7-3.51-6.42-.53-.5-1.1-.94-1.7-1.32v-2.16c.85-.84,1.56-1.81,2.11-2.85,2.15,1.87,4.88,2.88,7.7,2.88.5,0,1.01-.03,1.52-.1.1-.01.2-.03.3-.04v6.21c-1.2.77-2.35,1.45-3.89,2.33-.07.04-.14.08-.22.13-.56.33-.99.58-1.33.77Zm137.09-25.49c-1.63.45-3.17,1.24-4.49,2.37-2.63,2.23-4.15,5.5-4.15,8.94v13.57c-.43-.07-.87-.12-1.31-.13,0-.81,0-15.88,0-15.88,0-2.9.02-5.01.05-6.65,1.01-.47,1.95-1.08,2.81-1.83,2.53-2.23,3.98-5.43,3.98-8.8v-14.67c.96.73,2,1.31,3.12,1.71v21.38Z" fill="#fff" stroke-width="0"/><path d="m111.98,149.47c-6.19,0-10.57.26-15.35.77v-20.25c4.64.52,8.77.77,15.35.77h85.75c6.83,0,10.83-.26,15.34-.77v20.25c-4.9-.52-9.16-.77-15.34-.77h-18.05v42.3c0,2.97.9,3.48,6.71,3.48,6.19,0,7.99-1.03,8.77-5.16.52-3.22,1.16-12.12,1.16-18.05,7.35,3.48,11.61,4.77,18.96,5.93-.77,16.76-1.81,22.44-4.38,27.47-3.22,6.19-9.16,7.87-27.6,7.87s-23.73-2.45-23.73-13.02v-50.81h-13.8c-.26,15.09-1.93,25.92-5.54,35.07-5.67,14.44-15.09,23.21-34.04,31.59-3.35-6.83-7.74-13.54-11.86-18.18,14.18-5.03,22.7-11.61,27.08-21.15,3.09-6.58,4.38-14.83,4.51-27.34h-13.93Zm89.11-31.21c-3.74-.39-8-.65-13.41-.65h-65.51c-5.54,0-9.67.26-13.41.65v-20.12c4,.52,7.87.77,14.06.77h64.35c6.45,0,10.19-.26,13.93-.77v20.12Z" fill="#0071bb" stroke-width="0"/><path d="m302.31,143.02c3.48,10.83,10.19,21.66,18.83,30.43,8.9,8.9,19.08,15.35,33.4,21.02-5.67,6.96-8.9,11.99-12.9,20.76-12.12-6.06-20.37-11.86-28.76-19.86-8.77-8.51-14.83-17.02-20.25-28.76-3.74,8.9-8.38,16.25-14.7,23.34-6.58,7.35-14.06,13.67-21.92,18.44-3.87,2.32-6.83,3.87-13.41,6.83-3.74-7.61-6.96-12.64-12.51-19.34,15.34-5.93,25.27-12.38,33.91-22.05,8-8.77,12.38-18.31,14.18-30.82h-25.92c-9.67,0-13.02.13-18.18.77v-21.66c4.77.52,9.67.77,18.05.77h27.72c.13-5.16.13-8.12.13-12.38,0-6.71-.26-9.93-.9-13.8h23.6q-.77,5.03-1.03,21.79v4.38h29.4c8.12,0,13.02-.26,18.18-.77v21.66c-5.8-.64-10.19-.77-18.05-.77h-28.89Z" fill="#0071bb" stroke-width="0"/><path d="m213.85,267.76c-.77.9-.77,1.03-2.45,3.22-2.06,2.71-5.54,6.58-9.16,10.19,5.16,2.58,9.03,4.26,15.35,6.32-3.87,6.96-5.54,10.96-8,18.96-5.42-2.32-7.35-3.22-10.96-5.03-.13,1.93-.13,2.97-.13,5.54v18.7c0,4.64.13,6.96.39,9.93-.77-.13-3.61-.26-8.51-.26h-17.28l14.7,3.48c-.77,1.68-.9,1.93-1.68,3.22-.52.9-1.03,1.8-1.55,2.84-.13.39-.26.52-.52,1.03h17.67c6.45,0,8.77-.13,12.64-.64v19.08c-4-.52-7.22-.65-14.18-.65h-90.01c-6.96,0-10.06.13-14.18.65v-19.08c3.74.52,6.19.64,12.64.64h16.89c-1.03-2.58-1.93-4.38-4-7.61l14.57-2.97h-16.38q-7.09.13-8.38.26c.26-3.61.39-5.54.39-9.93v-18.44c0-2.19,0-3.09-.13-5.03-3.61,1.81-5.29,2.58-10.32,4.64-2.19-6.71-4.64-11.86-8.51-17.8,6.06-1.93,11.61-4.26,18.83-8.12-6.45-6.96-9.67-9.93-16.25-14.83l14.06-11.22c3.74,2.84,5.03,3.87,7.87,6.45v-15.35c3.74.52,5.67.65,11.99.65h24.24c6.06,0,7.87-.13,10.7-.52,1.8,5.42,2.58,6.71,6.71,11.48,4.13-4.51,6.45-7.74,8.38-11.35l15.47,8.9c-.77.9-1.03,1.29-2.58,3.09-2.71,3.61-5.54,6.83-9.29,10.57,1.93,1.55,2.58,1.93,4.77,3.48,4.51-4.38,8.25-8.9,10.7-13.28l15.47,8.77Zm-79.82,20.25c-6.71,5.03-10.57,7.61-15.86,10.7h75.44c-5.03-2.97-9.16-5.67-15.99-10.57v6.32c-2.06-.39-3.35-.39-7.22-.39h-30.17c-2.19,0-4.26.13-6.19.39v-6.45Zm-9.54-25.4c-1.93,0-3.35,0-5.42.26,3.87,3.48,5.29,4.9,8.12,7.87,3.61-2.84,5.29-4.51,8.25-8.12h-10.96Zm6.06,57.38h48.49v-5.93h-48.49v5.93Zm33.53,25.92c1.16-2.32,3.74-8.64,4.26-10.57h-27.47c1.55,2.84,3.35,7.09,4.38,10.57h18.83Zm2.58-66.8c-4.64-4.38-6.58-6.45-11.09-12.25-4.51,5.67-6.32,7.74-11.09,12.25h22.18Z" fill="#024360" stroke-width="0"/><path d="m283.22,344.61c0,3.48.13,8.77.39,12.12h-14.44v-5.29h-19.73v8.77h-15.6c.52-5.8.77-10.45.77-15.09v-66.02c0-5.8-.13-9.54-.52-13.8h14.83c-.26,3.48-.39,5.67-.39,13.8v54.16h3.35v-70.67c0-9.54-.13-12.77-.65-16.76h15.86c-.52,3.87-.64,6.71-.64,16.25v71.18h3.35v-53.9c0-7.35-.13-10.19-.39-14.06h12.25c-.65-.77-1.03-1.16-2.06-2.19,10.06-5.03,18.83-13.67,20.76-20.12l20.5,2.19q-.77,1.16-2.71,4.13h12.25c5.16,0,7.61-.13,9.41-.52l8.25,8.12c-.9,1.03-1.16,1.55-2.45,3.35-4.9,7.22-8.38,11.22-14.83,17.02,7.09,2.06,15.09,3.35,24.76,3.87-3.61,6.71-4.9,10.45-6.83,18.31-14.44-3.61-22.95-6.45-32.75-11.22-8.12,5.03-16.25,8.64-25.4,11.61-2.19-4.64-3.87-7.22-7.35-11.48v56.22Zm0-59.32c7.87-2.19,12.38-3.87,17.8-6.45-2.19-1.68-3.1-2.45-5.54-4.77-1.55,1.16-2.32,1.68-4.9,3.22-2.45-3.87-4-6.06-7.09-10.06-.13,2.06-.26,5.03-.26,10.32v7.74Zm55.84,14.96c6.96,0,8.77-.13,11.48-.39v14.96c-3.22-.39-4.77-.39-11.09-.39h-13.02v3.61h9.8c4.51,0,7.87-.13,10.83-.39v14.31c-3.22-.26-6.71-.39-10.96-.39h-9.67v4h13.41c6.06,0,8.77-.13,12.64-.39v15.86c-3.48-.39-6.58-.52-12.12-.52h-13.93v1.8c0,5.42.13,9.41.64,13.8h-19.99c.39-4.51.64-8.77.64-14.7v-.9h-12.12c-4.38,0-6.96.13-9.67.39v-15.73c2.97.26,5.16.39,10.06.39h11.73v-4h-7.22c-4,0-7.35.13-10.83.39v-14.31c3.35.26,6.71.39,11.09.39h6.96v-3.61h-11.35c-4.9,0-6.58.13-8.9.39v-14.96c2.19.39,3.48.39,9.16.39h11.09c0-2.84-.13-4.77-.39-6.96h19.6c-.39,2.32-.39,3.74-.52,6.96h12.64Zm-31.08-37.27c-.64.64-.9.9-1.55,1.68,2.84,2.71,4.38,3.87,7.48,5.8,3.09-2.58,4.26-3.74,7.48-7.48h-13.41Z" fill="#024360" stroke-width="0"/><path d="m368.59,292c3.74.52,5.67.64,10.7.64h12.51c4.13,0,6.45-.13,9.93-.52-.39,4-.52,6.96-.52,14.57v30.3c2.45,3.74,4,5.03,7.74,6.45,5.03,1.93,11.99,2.71,23.73,2.71,25.27,0,42.81-.77,58.93-2.71-2.84,8.38-3.61,11.61-4.77,20.38-11.48.39-26.56.64-46.42.64-23.6,0-30.95-.77-38.69-4.26-4.25-1.93-6.96-3.87-10.06-7.35-5.03,4.25-9.54,7.74-13.67,10.32-1.03.77-2.45,1.68-3.74,2.71l-8.38-20.89c1.42-.52,2.97-1.16,4-1.81.39-.26,1.16-.64,2.45-1.42,3.61-2.06,5.42-3.22,9.8-6.32v-24.63h-5.42c-2.45,0-5.16.26-8.12.65v-19.47Zm13.54-46.68c9.29,7.87,16.51,14.96,22.57,21.92,5.29-7.22,9.16-15.6,10.06-21.28l18.7,3.35q-.26.77-.9,2.71c-.13.26-1.03,2.97-2.06,5.54h6.58v-2.19c0-5.54-.13-7.87-.64-10.7h20.5c-.52,2.71-.65,5.03-.65,10.7v2.19h12.12c7.09,0,11.22-.26,15.22-.77v18.18c-4.13-.39-7.74-.52-14.44-.52h-12.9v6.58h18.96c5.93,0,9.03-.13,11.99-.52v18.05c-4-.52-7.35-.65-11.99-.65h-60.35c-3.87,0-6.83.13-10.45.39v-17.8c3.35.39,5.16.52,10.83.52-4.25-3.35-7.48-5.29-13.8-8.38l-11.09,10.7c-6.58-8.51-14.57-16.89-23.08-24.5l14.83-13.54Zm38.17,95.55c-5.16,0-7.09,0-10.06.39q.26-3.09.26-22.44v-5.54q-.13-8.51-.39-11.09c3.35.26,7.35.39,14.31.39h43.2c6.19,0,9.54-.13,13.15-.39-.26,3.09-.39,5.29-.39,13.67v13.15c0,7.87,0,9.28.26,12.25-3.61-.39-5.67-.39-11.99-.39h-48.36Zm16.76-59.83v-6.58h-14.18c-1.68,2.84-2.45,4-4.25,6.58h18.44Zm-8.25,44.1h32.62v-6.83h-32.62v6.83Z" fill="#024360" stroke-width="0"/><path d="m588.7,326.82c-2.06,19.99-5.29,29.4-13.8,40.75-3.87-5.16-7.09-8.64-11.61-12.64-4.38,3.22-6.71,5.42-10.45,9.29-6.32-7.61-8.25-10.57-14.31-21.66l11.86-6.83h-24.5l11.74,7.09c-6.71,11.22-10.7,16.25-19.73,24.76-4.64-6.32-6.45-8.12-13.67-14.06,7.87-6.19,11.86-10.45,16.76-17.8h-6.32c-5.29,0-7.09.13-9.54.39v-17.79c2.32.39,3.87.52,8.64.52v-44.62c-3.87,0-5.8.13-7.74.39v-17.8c2.06.39,4,.52,7.74.52v-1.93c0-4.13-.13-6.71-.52-9.54h19.21c-.39,2.97-.52,5.29-.52,9.54v1.93h12.12v-1.93c0-4.26-.13-6.83-.52-9.54h19.21c-.39,2.71-.52,5.29-.52,9.54v1.93c3.48-.13,4.51-.26,6.71-.52v17.8c-2.06-.26-3.09-.26-6.71-.39v44.62c2.45-.13,3.35-.26,5.16-.52v17.79c-2.32-.26-4.51-.39-9.8-.39h-3.61c3.22,5.29,5.29,8.12,9.28,12.38,7.09-10.83,8.77-25.27,8.77-78.15,0-11.35-.13-15.6-.77-21.28,5.16.52,8.38.65,16.12.65h19.6c8.12,0,11.48-.13,15.47-.65-.39,3.61-.52,7.48-.52,15.86v84.08c0,7.48-1.93,12.25-5.93,14.83-3.09,1.81-8.12,2.71-16.63,2.71-1.29,0-3.22,0-5.8-.13-1.03-7.74-2.06-12.12-4.64-19.47,5.42.64,7.48.9,9.41.9,3.87,0,4.64-.39,4.64-2.58v-18.05h-14.31Zm-44.62-47.2v-5.42h-12.12v5.42h12.12Zm0,19.47v-5.67h-12.12v5.67h12.12Zm0,19.73v-5.93h-12.12v5.93h12.12Zm46.29-21.92c-.13,6.32-.13,8.12-.39,12.77h13.02v-12.77h-12.64Zm12.64-29.27h-12.51v11.99h12.51v-11.99Z" fill="#0071bb" stroke-width="0"/><path d="m420.37,206.67h0s0,0,0,0Z" fill="#f6921e" stroke-width="0"/><path d="m630.2,127.8c-.07-.07-.14-.13-.21-.2-.43-.01-.84.19-1.26.2-.21,0-.44.05-.55-.2-.06,0-.12,0-.19-.01-1.03-.05-2.05.24-3.08.32-.72.21-1.28.66-1.37,1.89,0,.06-.17.11-.26.17h0c-.06.18-.11.36-.17.54.15.23.46.3.45.7-.05.1-.1.2-.15.29-.44.53-.38,1.35-.66,1.97,0,.06.01.13.01.2,0,.19-.04.38-.07.56-.41.53-.82,1.07-1.46,1.01-.16-.08-.32-.1-.46-.08-.12.04-.24.07-.35.11-.19.09-.38.22-.58.33-.08.05-.17.08-.26.1-.03,0-.07-.01-.1-.02-.18.15-.35.3-.53.45,0,0,0,0,0,0,.11.2.04.41-.03.62-.22.5-.62.64-.99.85-.66.37-.64.79-.05,1.24.46.59.26,1.35.28,2.04.02.78.06,1.52.56,2.07.26,1.12,1.41.67,1.76,1.64,0,.08,0,.16,0,.24h0c.12.4.05.69-.28.84-.36.91.2,1.07.59,1.36.01-.01.02-.03.04-.04.1-.02.19,0,.28.07.28.23.56.47.84.7.21.19.34.53.64.53.24,0,.46.3.34.45-.58.71-.28,1.71-.56,2.5-.24.19-.5.14-.76.15-.89.03-1.09.5-.72,1.63.07.07.14.14.2.22.16.19.26.44.38.68.09.15.17.29.26.44-.12.11-.24.22-.37.34-.15.21-.3.18-.45.01-.02-.05-.03-.1-.05-.14-.21.29-.42.58.06.86.25.29.54.56.38,1.09-.47.41-.42.77.11.9.48.12.79.35.82,1.02-.05,0-.1.03-.15.06-.59.33-.54.97-.49,1.62-.7.37-.55,1.46-1.03,2.01h0s-.02,0-.02.01c0,.09.01.17,0,.26-.03.18-.11.33-.24.42-.02.02-.05.03-.07.03,0,.03,0,.05-.01.08.17.26-.19.73.16.92.21.18.44.31.68.42.13.27.6.02.53.58-.06.1-.12.19-.18.29-.78.86-1.53,1.74-2.64,1.83-.98.08-1.16,1.07-1.19,2.13-.11.24-.22.48.06.66.05.04.09.09.14.13.07-.01.13-.02.2-.03.37.62.71,1.08-.27,1.45-.8.3-.77,1.49-.05,2.55h0c.14.08.28.16.43.23,0,0,0,0,0,0,.07-.02.15-.04.22-.06.14.15.29.3.43.45.14.36-.12.45-.26.48-.22.04-.32.17-.38.35,0,0,0,0,0,0,.47.12.65.64.88,1.09,0,.04-.01.07-.02.1.13-.13.25-.18.35.05,0,.06.02.12.04.18-.02.09-.02.18-.03.27.04-.08.05-.17.03-.27.17-.02.32,0,.43.2-.29.61-.5,1.21,0,1.81.21.25.16.53.09.81.03.17.05.34.05.53,0,.05-.02.09-.03.14.18.99.29,2.01.79,2.85-.17.38-.17.74.1,1.04.37.41.13,1.01.17,1.52.06.13.15.23.3.28.62.83.59,1.04-.2,1.31-.83.27-1.49,1.92-1.15,2.88.17.49.5.51.85.4.14.02.29,0,.37.21.03.43.14.79.49.94-.06.15-.12.3-.18.46-.06.72.39.96.74,1.28.16.29.49.43.47.88-.11.3-.35.23-.53.33-.55-.08-1.12,0-1.57-.54-.01-.04-.03-.06-.04-.09-.77.58-1.58-.23-2.35.08-2.26.16-4.52.44-6.76.82-.13.03-.24-.02-.32-.15-.01-.04,0-.07-.01-.11-.29.29-.64.29-.98.34-2.46.32-4.92.79-7.39,1.05-2.76.3-5.52.78-8.27,1.21-.92.14-1.84.31-2.76.41-.94.11-1.86.29-2.71.85-.12,0-.24,0-.36,0-.03-.16-.06-.32-.1-.47-.8.04-1.6.08-2.41.12,0,0,0,0,0,0-1.21.18-2.42.36-3.63.55-.07.03-.14.04-.22.07-.33.13-.67.14-1.01.11-.94.14-1.88.28-2.82.41-2.12.3-4.23.76-6.37.77,0,0,0,0,0,0-.25.38-.52.41-.81.11,0,0,0,0,0,0-.54.08-1.09.17-1.63.25-.13.04-.26.08-.39.08-.08,0-.15.01-.23.01-3.95.62-7.89,1.29-11.85,1.71-6.77.72-13.48,2.05-20.24,2.84-5.61.66-11.23,1.37-16.84,2.04-4.33.51-8.68.74-13.01,1.23-2.63.3-5.28.33-7.92.49h0c-.14.24-.34.21-.55.22-2.31.11-4.61.22-6.92.36-3.28.2-6.54.64-9.82.84-1.69.1-3.38.32-5.08.44-2.74.19-5.48.45-8.22.67-.16.01-.32-.08-.47-.13h0c-4.66.55-9.32.91-13.99,1.14-1.8.09-3.6.26-5.39.5-1.06.14-2.12.14-3.19.17-.13.09-.27.14-.42.18-.02.03-.04.06-.07.09-1.03.74-2.16.32-3.23.39-1.13.07-2.25.2-3.37.3-.31.03-.68.16-.91-.2-.05.03-.1.06-.15.08-2.21.49-4.44.56-6.67.57-.7,0-1.4.14-2.09.28-1.26.27-2.53.03-3.79.27-.21.04-.46.05-.61-.17-.09,0-.18,0-.27,0-.07-.03-.15-.03-.22-.04-.47.43-1.06.37-1.58.37-1.96.02-3.91.32-5.87.35-.38-.02-.48-.41-.63-.75-.21-.29-.26-.61-.07-.96.29-.3.35-.67.3-1.07-.13-.01-.25-.03-.37-.08-.2-.08-.34-.25-.47-.46-.04-.36.11-.59.32-.78.18-.18.29-.41.31-.7.03-.36.05-.72.35-.9.02-.11.07-.2.15-.27.02-.02.04-.03.06-.05.03-.8-.54-.38-.85-.5-.04-.14-.08-.28-.12-.42-.12-.08-.24-.16-.36-.25-.13-.44.24-.55.34-.84.06-.01.12-.02.18-.03,0,0,0,0,0,0,.08-.24.19-.47.14-.75,0,0,0,0-.01,0-.16.02-.27-.09-.35-.25,0-.01,0-.02-.01-.04-1.1-.32-2.15-.78-3.19-1.33-.3-.21-.29-.68-.5-.97-.15-.18-.11-.44-.15-.66.11-.77-.56-.88-.72-1.43,0,0-.02,0-.02,0,0,0,0,0-.01,0-.28.24-.58.14-.88-.02,0,0,0,0,0,0-.08-.02-.16-.06-.23-.11-.07-.09-.1-.2-.12-.32,0-.02,0-.03.01-.05-.19-.21-.37-.42-.56-.64-.14.06-.26.09-.31,0-.39-.06-.78-.08-1.14-.33-.02-.06-.04-.12-.06-.19,0,0,0,0,0,0-.27,0-.41-.18-.42-.52.07-.08.13-.17.2-.25.18-.22.36-.43.54-.65.22-.32.06-.64,0-.96.47-.79.71-.68,1.25.54,0,.04,0,.09,0,.13.35-.76.23-1.12-.54-1.24-.48-.08-.92.14-1.38.08-.45-.02-.88-.22-1.31-.36l-.06-.02-.06.02c-.19-.03-.21-.2-.21-.4-.04-.28.6-.76-.06-.81-.65-.05-1.13-.45-1.6-.9-.46-.43-1.05-.35-1.5-.74-.51.1-1.01.12-1.5,0-.18.05-.36.1-.54.12-.25.03-.49.05-.72-.1-.01-.09-.02-.18-.01-.27-.02.02-.05.05-.07.07-.01.18-.08.22-.19.12,0,0,0-.03,0-.03,0,0,0,0,0,0,0,.02,0,.04-.02.06-.12.28-.4.1-.54.33-.18.43-.4.15-.62.08-.47-.67.1-.64.34-.84.12-.2.23-.39.35-.59-.19-.76-.26-1.58-.58-2.28-.13-.07-.26-.14-.4-.21-.13-.36-.07-.7.05-1.03,0,0-.01,0-.02,0-.1-.26-.16-.52-.02-.8.01-.06.02-.12,0-.18.26-.6.24-1.2.03-1.81-.1-.31-.25-.62-.09-.97,0,0,0,0,0,0-.01-.05-.02-.11-.01-.17,0,0,0,0,0,0-.11-.18-.26-.25-.43-.19-.17-.1-.36-.17-.4-.46.74-.29,1.36-.8,1.79-1.65t0,0c0-.16.01-.32.02-.49-.02-.33.07-.55.35-.57.07-.08.14-.17.22-.25.21-.37.7-.57.64-1.08-.07-.51-.49-.26-.77-.29-.08-.29.06-.5.16-.73.6-.24.56-.8.45-1.4-.31.08-.39-.41-.64-.47-.41-.64.17-.67.33-.66.9.06,1.07-.36.65-1.34-.12-.29.03-.58.18-.83,0,0,0,0,0,0,.14-.55.08-1.2.46-1.65h0c.12-.36.24-.71.35-1.07.07,0,.14-.02.2-.03.04-.51.08-1.02.12-1.53.11-.07.21-.13.32-.2.43-1.23.22-2.63.69-3.88.24-.65-.77-1.46-1.49-1.32-.33-1.99.31-3.04,1.91-3.05,0,0,0,0,0,0,.65-.58,1.47-.48,2.17-.89h0c.12-.2.24-.4.36-.6-.07-.44-.47-1.1.3-1.04.8.07,1.22-.5,1.57-1.27,0-.08,0-.17,0-.25.39-.09.75-.22.67-.9-.17-.15-.32-.32-.29-.61.03-.21.2-.24.31-.17.75.51,1.05-.33,1.48-.8,0,0,0,0,0,0,.06-.1.13-.2.19-.3,0,0,0,0,0,0,.24-.32.71-.47.53-1.12h0c-.03-.05-.05-.11-.04-.18,0,0,0,0,0,0-.42-.7-.35-1.12.39-1.2.18-.02.35-.19.52-.29.46-.15,1.03.22,1.37-.51.41-.6-.26-1.2,0-1.8-.75-.19-1.48-.44-1.73-1.56-.43-.47-.37-1.38-.94-1.72,0,0,0,0,0,0,0-.02,0-.04,0-.06-.46.23-.52-.55-.85-.64-.13-.4-.4-.77-.13-1.25.06-.02.12-.03.18-.04,0,0,0,0,0,0,.06-.95-.67-1.26-.94-1.95h0s0,0,0,0c-.02-.18-.33-.24-.12-.51,0,0,.01-.01.01-.02-.08-.17-.07-.33.03-.49h0c.18-1.59-.3-3.1-.37-4.66.16-.21.32-.43.48-.64,0,0,0,0,0,0-.08-.6.04-1.19-.25-1.82-.2-.44.07-1.16.59-1.44.41-.44,1.03-.68.9-1.62.09-.18.22-.2.36-.17,0,0,.01,0,.02.01.13-.91.08-1.78-.34-2.55-.04,0-.08.01-.12,0-.48-.13-.77-.52-.86-1.15,0-.07.01-.14.02-.2-.28-.34-.59-.64-.53-1.25.37-.03.72-.07.68-.76-.02-.32,0-.72.39-.75h0c.3-.2.33-.45.1-.76-.18-.03-.38-.12-.15-.36.32-.33.75-.39,1.14-.39.83,0,.89-.48.53-1.27.1-.29.32-.44.5-.63.16-.1.35-.16.53-.24.31-.35.41-.72-.38-1.19-.12-.07-.08-.29.04-.44.02-.13.05-.26.12-.37.06-.08.12-.15.19-.22.13-.13.18-.28.04-.45-.06-.08-.12-.16-.17-.25-.02-.05-.04-.09-.06-.14-.18-.29-.22-.75-.44-.99-.08.06-.17.1-.27.09-.2.01-.38-.06-.54-.18-.02-.06-.03-.12-.03-.18,0,0,0,0,0,0-.26-.08-.51-.17-.77-.25.21-.7.6-.7,1-.67.18-.07.36-.13.53-.23.08-.05.17-.09.25-.14.07-.05.16-.08.24-.14.02-.14,0-.27-.06-.4-.07-.01-.14-.02-.19-.05-.09-.04-.16-.1-.22-.19-.24-.05-.48-.11-.72-.16.11-.62.49-.29.75-.36,0,0,0,0,0,0,1.15-.49,2.33-.64,3.52-.74.19-.02.27.2.33.4.16-.15.28-.39.51-.33,0,0,0,0,0,0,1.35-.31,2.72-.45,4.09-.35,0,0,0,0,0,0,3.89-.33,7.77-.93,11.68-1h0c1.42-.07,2.83-.77,4.25-.11h0c.72-.36,1.44-.73,2.22-.35,3.76-.63,7.55-.61,11.32-.89,4.51-.34,9.02-.56,13.53-.87,1.27-.09,2.54-.31,3.81-.45.32-.04.66-.27.96.07,4.94-.37,9.89-.67,14.84-.68.19,0,.38.09.58.14,0,0,0,0,0,0,.76-.05,1.52-.34,2.28-.15.05,0,.1,0,.15.04.59-.11,1.19-.22,1.78-.02,0,0,0,0,0,0,2.22-.16,4.44-.31,6.66-.47,1.95-.3,3.9-.42,5.87-.38,1.55.03,3.04-.64,4.56-.91h0s0,0,0,0c.13-.11.24-.29.42-.12,0,0,0,0,0,0h0c3.98-.47,7.94-1.11,11.91-1.67,4.79-.68,9.58-1.3,14.36-2.15,3.49-.62,7-1.07,10.51-1.49,1.3-.16,2.61-.26,3.91-.39,0,0,0,0,0,0,.97-.59,2.03-.59,3.04-.65,3.75-.22,7.46-1.05,11.19-1.52,1.13-.14,2.27-.32,3.41-.28,1.77-.69,3.62-.73,5.43-1.01,3.12-.48,6.25-.82,9.37-1.22.11-.09.22-.15.31-.13.95-.35,1.95-.2,2.92-.39,2-.39,4.01-.62,6.02-.91,6.52-.98,13.04-1.96,19.56-2.94.6-.09,1.2.17,1.8-.06.11-.04.35.02.36.1.22,1.06.97.65,1.48.9h0c.39.05.82-.01,1.17.17.41.21.13.41-.11.52.1,1.01.72,1.45,1.31,1.85.71.48,1.5.6,2.32.47.35-.06.72-.25,1.06.08.88-.23,1.75-.01,2.62.11.22.01.45-.05.64.15,0,0,0,.02,0,.03.22-.04.43-.07.61.16h0c.53.29,1.05.95,1.61.04,0,.31.16.5.31.69.09,0,.18,0,.26,0,.76-.04,1.51-.08,2.27.01.69.09.66.49.5,1.11-.04.06-.08.1-.12.14.05.28.2.41.44.37.12.62-.24.55-.5.62,0,.02,0,.03,0,.05,0,.11-.02.22-.04.32.02.1.04.2.08.3.09.05.18.11.27.16.23.11.17.47.34.63.08.26.36.49.07.81-.37.1-.73.21-1.1.31-.1.13-.22.25-.4.34-.23.23-.35.51-.21.88,0,.02.01.04.02.06.13.06.21.21.24.43-.06.29-.11.57-.17.86h0s0,0,0,0c.03.63-.26.94-.68,1.1h0s0,0,0,0c-.74.46-.02,1.26-.26,1.84,0,0,0,0,0,0,0,0,0,0,0,0-.16.53,0,.95.18,1.37.06.05.11.1.18.14.08.04.15.08.23.13.2.12.26.42.43.58.36.15.55.75,1,.69.25.11.25.39.28.66-.05.46-.04.94-.33,1.29-.05.04-.09.08-.14.13.01.88.31,1.74.11,2.64-.15.31-.06.47.2.52.18.06.3.23.43.38.16.25.32.5.47.76t0,0c-.05.63.81.72.53,1.49.02.07.02.14.02.21,0,0,0,0,0,0,.78.28.7,1.76,1.57,1.91.17.41.34.82.51,1.23,0,0,0,0,0,0h0s0,0,0,0c.13,0,.25,0,.38-.01.22.23.44.46.66.69.04.24.07.49.11.73h0c.11.41.49.37.66.68h0s0,0,0,0c0,0,0,0,0,0,.16.1.29.29.24.49-.16.73-.05,1.25.48,1.67.25.2.39.61-.05.86Zm-133.46-18.38s0,0,0,0c0,0,0,0,0,0,0,0,0,0,0,0Zm116.27-12.01s0,.07-.01.1c.01-.03.03-.06.04-.1,0,0-.02,0-.03,0Zm-110.66,13.06c.05-.02.1-.03.16-.04.08-.01.08-.15.04-.34-.04.09-.11.21-.2.39Zm116.75,52.84c-.1.12-.15.26-.17.41,0,0,0-.02.01-.03.01-.03.02-.07.04-.1.03-.09.07-.18.12-.28Zm-182.8,46.99s-.02.1-.02.15c.02-.05.03-.1.02-.15Zm60.16-98.38s0-.02,0-.03c0,0,0,.02,0,.03Zm-4.12,85.28s-.01-.06-.01-.08c-.01.02-.02.05-.03.07.01,0,.03,0,.05.01Zm-40.94,4.44s0,0,0,0c0,0,0,0,0,0,0,0,0,0,0,0Zm58.18-13.7c-.08-.14-.1-.23-.15-.27-.02-.01-.03-.02-.05-.03.08.12.14.23.16.32.01,0,.02-.02.04-.03Zm-36.02,14.25s-.08-.07-.11-.1c0,.03.02.07.03.1.03,0,.06,0,.09,0Zm-55.38-50.05s0,0,0,0c0,0,0,0,0,0,0,0,0,0,0,0Zm120.88,33.07s-.01,0-.02,0c0,.01.02.02.02.04,0-.01,0-.02,0-.03Zm-15.91,2.55c-.07.15-.12.29-.15.42.03-.03.05-.06.08-.09.09-.09.1-.21.07-.33Zm-83.89-54.86s0,.01,0,.02c0,0,0-.01.01-.02,0,0,0,0-.01,0Zm63.93-.37c.02.1.04.2.06.28.04-.1.03-.21-.06-.28Zm-48.05,66.83c.11.04.21.17.21.44.02-.21-.04-.39-.11-.57-.03.04-.06.08-.11.13Zm14.6-63.56s-.01.02-.02.03c.01,0,.02.01.04.02,0-.02-.01-.03-.02-.05Zm91.24-22.57s0,.03,0,.04c0-.01,0-.03.01-.04,0,0-.01,0-.02,0Zm48.04,51.68c.02.08.06.15.12.2-.03-.08-.07-.14-.12-.2Zm-142.94-27.39s0-.04-.01-.06c0,0-.02,0-.02,0,.01.02.02.03.04.05Zm82.73,33.21s-.03,0-.05,0c0,.02.02.03.02.05,0-.02.02-.04.02-.06Zm-10.76-39.98c.06.07.19.02.28-.08-.07.03-.14.04-.22.06-.01,0-.02,0-.03,0-.01,0-.02,0-.03,0Zm-113.58,31.18s0,.02-.01.03c0,0,.02-.01.03-.02,0,0-.01,0-.02,0Zm48.4,13.07s0,0,0,0c0,0,0,0,0,0,0,0,0,0,0,0,0,0,0,0,0,0,0,0,0,0,0,.01,0,0,0,0,.01,0Zm35.44-6.39s.05.04.07.06c-.02-.02-.05-.04-.07-.06,0,0,0,0,0,0Zm-25.01-2.29s0,0,0,0c0,0,0,.01,0,.02,0,0,0-.01,0-.02Zm-59.18,2.28c.04-.14.07-.28.1-.41-.04.03-.08.05-.13.07-.09.04,0,.19.03.34Zm32.37-5.44s.05-.03.08-.04c-.02-.03-.04-.07-.07-.11,0,0-.01,0-.02,0,0,.05,0,.09,0,.14Zm-2.85-13.96s0,0,0,0c0,.02,0,.04.01.06,0-.02,0-.04,0-.06Zm-26.96,22.12s.01.02.02.02c0-.01,0-.02,0-.04,0,0-.01,0-.02.01Zm5.43-2.14c.07,0,.15-.01.22-.02-.04-.07-.09-.13-.13-.21-.03.08-.06.16-.09.23Zm41.74.16s-.03,0-.04,0c.01.02.02.03.03.05,0-.02,0-.04,0-.06Zm26.28-10.64s-.02.04-.03.06c0,0,.01,0,.02,0,0-.02,0-.04,0-.06Zm-9.25-5.47c-.05-.11-.12-.18-.21-.17.07.06.14.11.21.17Zm-5.4,10.13s-.01-.04-.02-.06c0,.02,0,.04,0,.06,0,0,0,0,.01,0Zm1.49-11.71c-.07-.04-.14-.07-.21-.11-.02,0-.03,0-.05,0,.08.03.16.07.25.11Zm-54.26,26.23s0,0,0-.01c0,0,0,0,0,.01Zm13.96-6.28c.06-.04.11-.09.18-.14-.06-.04-.1-.07-.15-.09,0,.08-.01.16-.03.23Zm28.08,1.79s0,0,0,0c0,0,0,0,0,0,0,0,0,0,0,0Zm7.66,2s.02-.01.02-.03c-.01,0-.02,0-.03,0,0,0,0,.01,0,.02Zm.03-.03s0,0,0,0c0,0,0,0,0,0,0,0,0,0,0,0Zm26.93-13.23c.07.05.15.1.22.15-.02-.07-.11-.12-.22-.15Zm4.47.12c-.07.03-.14.05-.2.07.07-.02.13-.04.2-.07Zm9.31-11.74s0,0,0,0c0,0,0,0,0,0,0,0,0,0,0,0Zm-5.76,11.1s-.02.03-.03.04c.01,0,.02-.02.03-.03,0,0,0,0,0-.01Zm17.94-13.48s0,0,.01,0c0,0,0,0-.01,0,0,0,0,0,0,0Zm-8.58-2.21s-.05-.05-.07-.07c.02.02.05.05.07.07,0,0,0,0,0,0Zm-3.59,4.58s0,0,0,0c0,0,0,0,0,0,0,0,0,0,0,0Zm-82.81-4.59c-.08.03-.15.08-.2.14.07-.05.13-.1.2-.14Zm-11.31,28.96s0,0,0,0c0,0,0,0,0,0,0,0,0,0,0,0Zm-.45,3.44s.1-.02.15-.06c0,0,0,0,0-.01-.06.02-.11.04-.16.07Zm4.43.42s.02,0,.03,0c0-.02,0-.04-.01-.07,0,.02-.02.04-.02.06Zm46.62-2.93s0,.01,0,.02c0,0,0-.01,0-.02,0,0,0,0,0,0Zm24.36-11.86s0,0,0,0c0,0,0,0,0,0,0,0,0,0,0,0Zm34.22-27.02s0,0,0,.01c0,0,0-.01,0-.02,0,0,0,0,0,0,0,0,0,0,0,0,0,0,0,0-.01,0Zm-40.6,21.17s0,0,0,0c0,0,0,0,0,0,0,0,0,0,0,0Zm-1.02-2.74c-.06-.01-.1.07-.03,0,.01-.01.02,0,.03,0Zm-27.32,5.76s0-.02,0-.03c0,.01,0,.02,0,.03,0,0,.01,0,.02,0Zm-15.87-22.96s0,0,0,0c0,0,0,0,0,0,0,0,0,0,0,0Zm-9.38,8.19s.02,0,.03,0c0,0-.01-.01-.02-.02,0,0,0,.01-.01.02Zm-20.3,16.9s0,.08,0,.11c.02,0,.04,0,.07,0-.02-.04-.04-.07-.06-.11Zm22.18,18.23s.05-.04.07-.08c-.02.03-.05.06-.07.08Zm7.09-1.34s.01,0,.02,0c0,.01,0,.03,0,.04.05.03.09.05.13.08-.04-.04-.08-.08-.14-.12,0,0,0-.01-.01-.02,0,0,0,.01,0,.02Zm67.02-38.34s-.02-.04-.02-.06c0,.02-.02.05-.02.07.01,0,.03-.01.04-.02Zm-.13-1.02s.01,0,.02.01c0-.01,0-.02,0-.03,0,0-.01.01-.02.02Zm-7.27,12.39s0,0,0,0c0,0,0,0,0,0,0,0,0,0,0,0,0,0,0,0,0,0,0,0,0,0,0,0,0,0,0,0,0,0Zm-84.18-9.43s-.01,0-.02,0c0,.01.01.03.02.04,0-.02,0-.03,0-.05Zm4.87,40.72s0,0-.01,0c0,0,0,0,0,.01,0,0,.01,0,.02,0Zm28.53-7.11c.06.07.12.14.18.22.01-.13-.06-.19-.18-.22Zm16.04.88c.02.09.04.19.05.31.05-.09.1-.18.14-.27-.06,0-.12-.02-.19-.04Zm-5.56-33.81l.02.04h0s-.01-.03-.02-.04Zm-40.36-6.73s0,0,0,0c0,0,0,0,0,0,0,0,0,0,0,0Zm-9.25,22.42s0,.01,0,.02c0,0,0,0,0,0,0,0,0,0,0,0Zm47.73,22.09h0s0,0,0,0h0s0,0,0,0c0,0,0,0,0,0,0,0,0,0,0,0Zm120.17-16.28s0,0,0,0c0,0,0,0,0,0,0,0,0,0,0,0Zm-10.36-38.58s.02-.04.03-.05c-.04-.04-.09-.07-.13-.11.04.06.07.11.1.16Zm21.44,6.02c.1.09.18.11.21-.08-.07.02-.14.05-.21.08Zm-21.39,40.16h0s.02,0,.03,0c0-.01-.02-.02-.03-.04,0,.01,0,.03,0,.04,0,0,0,0,0,0,0,0,0,0,0,0Zm-19.72-29.26s0,0,0,0c0,0,0,0-.01,0,0,0,0,0,.01,0Zm33.34-11.14s-.01.02-.02.02c0,0,.01,0,.02,0,0,0,0-.01,0-.02Zm.35,25.67s0,0,0,0c0,0,0,0,0,0,0,0,0,0,0,0Zm-9.25-.23s.02-.05.02-.08c-.02.01-.03.02-.05.03.01.02.02.04.03.05Zm5.81-6.91s.03,0,.04,0c-.01,0-.02-.01-.03-.02,0,0,0,.02,0,.03Zm-2.91-10.27s0,0,0,0c0,0,0,0,0,0,0,0,0,0,0,0Zm-.73-2.47s-.06-.02-.09-.03c.05.07.09.19.15.24-.02-.07-.04-.14-.06-.21Zm-27.14,8.83s.01,0,.02,0c0,0,0,0,0-.01,0,0-.01,0-.02,0,0,0,0-.02,0-.02,0,0,0,.01-.01.02,0,0,0,0,.01,0h0Zm5.26-2.45c-.06.09-.08.21-.07.34.02-.11.04-.22.07-.34Zm-1.85,18.72s0,0,0,0c0,0,0,0,0,0,.01-.03.03-.05.05-.08-.01,0-.02,0-.03,0,0,.03,0,.05-.01.08Zm28.61-2.54s0,0,0,0c0,0,0,0,0,0,0,0,0,0,0,0,0,0,0,0,0,0,0,0,0,0,0,.01,0,0,0,0,0-.01Zm-31.5-17.22s0,0,0,0c0,0,0,0,0,0,0,0,0,0,0,0Zm40-5.31s.06.04.08.06c.02-.07.05-.14.08-.22-.05.06-.11.11-.16.15Zm-4.63-3.77s.01-.02.02-.03c-.01,0-.02.02-.04.02,0,0,.01,0,.02,0Zm5.19,5.89s0,0,0,0c0-.04.01-.08.01-.12,0,.04-.01.08-.02.11Zm-21.63-14.04s-.03,0-.04,0c-.02-.04-.04-.08-.06-.11,0,.01,0,.02,0,.03-.01,0-.02,0-.03,0,0,.06.01.12.01.17.04-.02.08-.05.12-.07Zm-8.52-1.42s0,0,0,0c0,0,0,0-.01,0,0,0,.01,0,.02.01,0,0,0,0,0-.01Zm-8.63,2.78s-.03,0-.05-.01c.07.22.16.39.28.53-.05-.18-.13-.36-.23-.52Zm2.07,39.77s0-.06,0-.08c-.01,0-.02.01-.03.02.01.02.02.04.03.07Zm37.41-1.61s0,0,0,0c0,0,0,0,0,0,0,0,0,0,0,0Zm-67.79-33.94s.04.06.07.08c-.02-.03-.04-.05-.07-.08Zm-10.27,5.68c-.09-.06-.17-.08-.21.01.07,0,.14,0,.21-.01Zm-4.02-7.01s.01,0,.02,0c0,0,0-.01,0-.02,0,.01,0,.02-.02.03Zm-27.21,16.5s-.04.02-.05.02c0,.02,0,.03.01.05.01-.03.03-.05.04-.07Zm-19.94-7.92c.2.14.41.23.64.03-.21-.03-.43-.1-.64-.03Zm-16.49-6.38s-.07.01-.11.02c-.01.04-.01.08-.02.11.04-.05.08-.09.13-.13Zm-12.31,9.22s-.02,0-.02.01c0,0,.01,0,.02,0,0,0,0-.01,0-.02Zm-20.97,13.6c-.16.04-.35.06-.52.07.18.13.36.22.52-.07Zm-.1,3.8s0,0,0,0c0,0,0,0,0,0,0,0,0,0,0,0Zm68.62,9.97s-.02,0-.03.01c0,0,0,.02,0,.02,0-.01.02-.02.03-.03Zm53.18,9.71s0,0,0,0c0-.01,0-.03-.01-.04,0,.02,0,.03,0,.05Zm28.92-23.63c.05.04.1.07.15.1,0-.05,0-.1,0-.15-.05.01-.1.03-.15.04Zm-27.6-15.27s-.02-.06-.02-.09c-.03.03-.06.06-.1.1.04,0,.08,0,.12,0Zm-11.89-6.72s.02,0,.03,0c0-.02,0-.03,0-.05,0,.02-.02.04-.03.06Zm-70.92-3.63s0,.03-.01.04c0,0,0,0,0,0,0,0,0-.01,0-.02,0,0,0-.02,0-.02Zm-2.37.94s0,0,.01,0c0,0,0,0-.01-.01,0,0,0,0,0,.01Zm-40.41,11.17s-.01,0-.02,0c0,0,0,0,.01.02,0,0,0-.01,0-.02Zm-1.39,48.49s0,0,0,0c0,0,0,0,0,0,0,0,0,0,0,0Zm92.87-11.54s.08,0,.13,0c-.04-.02-.08-.02-.13,0Zm77.52-8.23s0,0,0,0h0s0,0,0,0Zm17.06-30.95s-.02,0-.03,0c0,.01,0,.02,0,.03,0-.01.02-.03.03-.04Zm2.63-.4s-.02,0-.03,0c0,.01.01.02.02.03,0,0,0-.02,0-.03Zm-106.98-.17s0,0,0,0c0,0,0,0,0,0,0,0,0,0,0,0Zm-11.36-.84s.03,0,.05,0c.08-.08.16-.15.23-.21-.06-.01-.11-.03-.16-.06-.03.08-.08.18-.12.27Zm-20.84-3.15s0,0,0,0h0s0,0,0,0Zm-47.54,18.82s.02,0,.02.01c0,0,0,0,0-.02-.01,0-.02,0-.03,0Zm-3.37,36.47s0,0,0,0c0,0,0,0,0,0,0,0,0,0,0,0Zm11.48-2.35s.02-.02.03-.03c-.03-.04-.06-.08-.09-.11,0,.05.02.1.06.14Zm76.92-14.62s.03.02.05.02c0-.01,0-.02,0-.04-.02,0-.03,0-.05.01Zm5.94,12.58s.03-.05.05-.07c-.04,0-.06.02-.1.02.02.02.03.04.05.05Zm68.17-69.36c-.01-.05-.04-.1-.07-.15.02.05.05.09.07.15Zm-24.11,6.91s-.01,0-.02,0c0,.01,0,.03,0,.04,0-.02.02-.03.03-.05Zm-25.5,5.74s0,0,.01,0c0,0,0,0,0,0,0,0,0,0,0,.01Zm-18.86,4.72s0,0,0,0c0,0,0,0,0,0,0,0,0,0,0,0Zm-22.67,2.67s-.02-.02-.03-.03c0,.01,0,.03,0,.05.01,0,.02-.01.03-.01Zm-75.75,33.12s0,0,0,0c0,0,0,0,0,0,0,0,0,0,0,0,0,0,0,0,0,0,0,0,0,0,0,0Zm-.01.02s0,0,0,0c0,0,0,0,0,0,0,0,0,0,0,0Zm33.5,19.25s0,0,0,0c0,0,0,0,0,0,0,0,.01-.01.02-.02,0,0,0,0,0,0,0,0-.01.02-.02.02Zm26.54-3.32c.08.05.15.09.22.12-.07-.1-.15-.14-.22-.12Zm8.63,3.71s0,0,0,0c0,0-.01.02-.02.03,0,.01.02.02.02.03,0-.02,0-.04,0-.06Zm33.1-8.99s.02.05.03.08c-.01-.03-.02-.05-.03-.08Zm1.88,2.92c.05.08.1.17.15.26-.03-.1-.07-.19-.15-.26Zm4.9,3.4s0,.05,0,.08c0-.03.02-.05.03-.08,0,0-.02,0-.03,0Zm3.48,9.71s0,0,.01,0c0,0,0,0,0-.01,0,0,0,0,0,.01Zm16.3-11.73c.08.04.16.08.25.13-.05-.09-.14-.13-.25-.13Zm25.4-63.69h0s0,0,0,0h0Zm0,0s0,0,0,0c0,0,0,0,0,0,0,0,0,0,0,0Zm-17.12,3.94s0,.01.01.02c0-.01,0-.02,0-.03.02,0,.04,0,.05-.01,0-.05-.02-.1-.02-.14-.01.05-.02.1-.03.16,0,0,0,0,0,.01Zm-72.29,6.32s0,0,0-.01c0,0,0,.01,0,.02,0,0,0,0,.01,0Zm-61.3,4.92s.02,0,.02,0c0,0-.01,0-.02,0,0,0,0,0,0,0Zm1.47,60.66s.03,0,.04,0c0-.01,0-.02-.01-.03-.01.01-.02.02-.03.03Zm1.55,1.96c-.06.04-.1.1-.1.19.03-.01.07-.02.1-.03,0-.05,0-.11,0-.16Zm19.26-1.2s0-.01-.01-.02c0,0,0,.02,0,.02,0,0,0,0,.01,0,0,0,0,0,0,0Zm115.63-77s0,0,0,0c0,0,0,0,0,0,0,0,0,0,0,0Zm-12.97-2.21s0,0,0,0c0,0,0,0,0-.01,0,0,0,.01,0,.02Zm-20.57,7.74s-.05.09-.07.14c.03-.01.05-.01.08-.02,0-.04,0-.08-.01-.11Zm-111.55,51.5s0,0,0,0c0,0,0,0,0,0,0,0,0,0,0-.01Zm111.81,10.68s.04.07.06.1c0-.04.01-.07.02-.11-.03,0-.05,0-.08.01Zm90.11-74.57s.02,0,.04,0c0-.04,0-.07,0-.11-.01.03-.02.07-.03.11Zm0,0s-.03.01-.05.01c0,.02.01.04.02.06.01-.02.02-.05.03-.07Zm-83.02,6.08s.06.02.1.04c-.01-.04-.03-.08-.04-.12-.02.03-.04.06-.06.08Zm-22.21,14.16c-.1-.02-.19-.03-.28-.03.08.07.17.12.3.09,0-.02-.01-.04-.02-.06Zm-6.49-13.58s.05-.03.08-.05c0,0,0-.02,0-.03-.03.01-.05.04-.07.07Zm-18.46,75.72s0,0,0,0c0,0,0,0,0,0,0,0,0,0,0,0Zm23.5,1.9s0,0,0,0c0,0,0,0,0,0,0,0,0,0,0,0Zm61.95-12.37s-.01-.01-.02-.02c0,.02,0,.04,0,.05,0-.01.01-.02.02-.03Zm21.64-83.11s0,.03-.01.04c.01,0,.02,0,.03-.01,0,0-.02-.02-.02-.03Zm-76.33,19.34s.05-.02.07-.03c-.04-.05-.07-.08-.11-.13.01.05.03.1.04.16Zm-4-1.13s-.02.03-.03.05c.01,0,.02,0,.03,0,0-.01,0-.03,0-.04Zm-8.87-3.01s-.03.02-.04.03c.02,0,.04.02.06.02,0-.02-.01-.04-.02-.05Zm-88.63,69.14s.05.02.07.03c-.08-.2-.17-.36-.27-.49.03.15.11.31.2.47Zm18.41,14.64c-.05.01-.11.03-.16.04.05.03.09.06.13.09,0-.05.02-.09.03-.13Zm21.64-.7s.02,0,.04-.01c0-.01-.01-.02-.02-.03,0,.01-.01.03-.02.04Zm73.08-3.54c.03.11.09.19.15.25-.04-.07-.09-.16-.15-.25Zm74.92-14.86s0-.03,0-.04c0,.01-.01.02-.02.04,0,0,0,0,.01,0Zm12.71-5.67s0,.02,0,.03c0-.01,0-.02,0-.03,0,0,0,0-.01,0Zm3.95,3.64s-.03.02-.05.02c-.03,0-.06,0-.08,0,.04.1.08.19.11.31,0-.12,0-.22.02-.33Zm-3.91-8.14c.02-.12.03-.24.03-.37-.04.1-.05.22-.03.37Zm4.95-23.03s0,0,0,0c0,0,0,0,0,0,0,0,0,0,0,0,0,0,0,0,0-.01,0,0,0,0,0,.02,0,0,0,0,.01,0Zm-84.36-37.74s0,0,0,0c0,0,0,0,0,0,0,0,0,0,0,0Zm-7.8,4.24s0,0,0,0c0,0,0,0,.01,0,0,0,0,0,0,0Zm-39.76,8.12s-.06-.06-.1-.09c0,.02,0,.04,0,.06.03,0,.07.02.1.03Zm-39.68-1.9s-.09-.04-.14-.06c.04.08.08.15.12.22,0-.06,0-.12.02-.17Zm-40.87,46.14s0,0,0,0c0,0,0,0,0,0,0,0,0,0,0,0Zm42.16,36.32s.04-.03.06-.05c-.02-.07-.03-.14-.05-.22-.01.08-.02.17-.01.26Zm5.59-1.01s.02,0,.03,0c0,0-.01-.02-.02-.03,0,.01,0,.02-.01.03Zm1.48,4.27s.05-.05.08-.07c-.01-.02-.03-.04-.04-.06-.01.04-.02.09-.04.13Zm116.67-21.58c-.06.06-.13.12-.19.21h0s0,0,0,0c0,0,0,0,0,0,.05-.07.13-.14.19-.21Zm29.78,1.93s0,0,.01,0c0,0,0-.01,0-.02,0,0,0,.01,0,.02Zm6.7-4.7s-.01.01-.02.02c.01.01.03.03.04.04,0-.02-.02-.04-.02-.06Zm5.01-13.89s-.06,0-.1.01c.04.02.06.06.09.09,0-.03,0-.07,0-.1Zm-.22-5.05s-.04-.02-.06-.03c0,0,0,0,0,0,.01.03.02.04.03.07,0-.01.01-.03.02-.05Zm7.47-50.13s0-.07,0-.11c-.02.04-.03.08-.05.12.02,0,.04,0,.06,0Zm-21.38-16.94s0,0,0,0c0,0,0,0,0,0,0,0,0,0,0,0Zm-27.78,7.37s.08,0,.12-.01c-.03-.02-.06-.05-.09-.07,0,.03-.02.06-.03.09Zm-17.56,10.85s0,0,.01,0c0,0,0,0-.01-.01,0,0,0,.01,0,.02Zm-6.75-.98s.03-.06.04-.1c-.02.03-.03.07-.04.1Zm-7.67-6.53c-.11-.16-.25-.21-.39-.2.12.07.24.14.37.2,0,0,.02,0,.02,0Zm-81.95,7.82s.02,0,.02-.01c0,0-.02-.02-.03-.03,0,.01,0,.03,0,.04Zm-42.14,46.47s-.06-.08-.09-.12c0,.06.03.1.09.12Zm4.01,41.65c.06-.02.12-.03.19-.05-.08-.02-.14,0-.19.05Zm125.51-5.3s.03,0,.05,0c-.02,0-.03,0-.05,0Zm17.72-4.18s.09,0,.13,0c0-.02,0-.04,0-.07-.04.03-.09.05-.14.07Zm5.35-1.61s0,0,0,0c0,0,0,0,0,0,0,0,0,0,0,0Zm13.45-1.04c.07-.01.14-.05.19-.1-.07.03-.13.06-.19.1Zm35.86-23.03s-.02,0-.02,0h0s0,0,0,0c0,0,0,0,0,0,0,0,.01,0,.02.01,0,0,0-.01,0-.02Zm-2.04-4.68s0,0,.01,0c0,0,0,0,0,0,0,0,0,0-.01,0Zm2.33-8.75s0,0,0,0c0,0-.02,0-.03.01,0,0,.02,0,.02,0Zm.18-26.28s0,0,0,0c0,0,0,0,0,0,0,0,0,0,0,0Zm.4-.06s.01,0,.02-.01c0-.03,0-.06,0-.09,0,.03,0,.06,0,.1Zm-1.49-26.38s0,0,0,0c0,.02-.02.03-.03.05.02,0,.04.01.06.02,0-.03-.02-.05-.03-.08Zm-187.11,14.92s-.08-.05-.11-.07c.03.05.05.11.06.17.02-.03.04-.06.05-.1Zm-24.55,60.35s-.09.03-.14.04c.06.01.11,0,.14-.04Zm15.22,28.29c-.01-.06-.03-.12-.04-.18-.01,0-.02.01-.03.02.03.05.05.11.08.16Zm1.53-.4s0,0,0,0c0,0,0,0,0,0,0,0,0,0,0,0,0,0,.02,0,.03,0,0,0-.01-.01-.02-.02,0,0,0,.01-.01.02Zm18.83,1.62s0-.03,0-.04c.12-.12,0-.09,0-.08-.02.05-.04.08-.06.12.02,0,.04,0,.06,0Zm81.64-8.61s0,0,0-.01c0,0-.02,0-.02,0,0,0,0,0,0,0,0,0,0,0,.01,0Zm2.91,3.55s0-.02,0-.04c0,0,0,0,0,0,0,.01,0,.03,0,.04Zm19.26-2.99s0-.02,0-.02c0,0,0,.01,0,.02h0s0,0,0,0c0,0,.01,0,.02,0Zm46.87-6.07c.01.05.03.1.04.16.02-.06.03-.1.04-.16-.03,0-.05,0-.08,0Zm-20.21-93.3s0,0,0,.01c0,0,0,0,.01,0,0,0,0,0,0-.01Zm-43.6,7.47s-.05,0-.07,0c.01.04.02.07.03.11.01-.04.03-.07.04-.12Zm-22.46,5.71s.02.06.03.08c0-.04,0-.08.01-.12-.01.01-.03.03-.04.04Zm-82.62,4.12s-.02,0-.04,0c.01.01.03.03.04.04,0-.02,0-.03,0-.05Zm-6.83,37.21s.02,0,.04,0c0-.02,0-.05-.01-.07,0,.02-.02.05-.03.07Zm54.59,47.55s0,0,0,0c0,0,0,0,0,0,0,0,0,0,0,0Zm86.97-5.43s.04.06.07.09c0,0,.01,0,.02-.02-.02-.02-.04-.05-.07-.07,0,0-.01,0-.02,0Zm67.22-97.68s0,0,0,0c0,0,0,0,0,0,0,0,0,0,0,0Zm-1.77.53s-.01,0-.02-.01c0,0-.02.01-.03.02.01,0,.03,0,.04,0Zm-137.95,9.82s.02.03.03.04c0-.02.01-.04.02-.06-.02,0-.03.01-.05.02Zm-68.82,4.48h0s0,0,0,0Zm-5.03,14.85c.01.08.03.17.05.25,0-.09-.02-.18-.03-.26,0,0,0,0,0,0,0,0,0,0,0,0Zm.34,5.71s.06-.05.07-.09c-.02.03-.05.06-.07.09Zm-.76,8.63s0,.02,0,.03c.01,0,.02,0,.03,0-.01-.01-.02-.02-.04-.03Zm4.14,8.31s.01,0,.02.01c0-.01,0-.02,0-.03,0,0,0,.01-.01.02Zm117.02,52.8c.11,0,.22,0,.34-.01-.01-.02-.02-.03-.04-.05-.03-.05-.2-.02-.27.04-.01,0-.02.02-.03.02Zm32.17-105.04s0,0,0,0c0,0,0,0,0,0,0,0,0,0,0,0Zm-32.19,5.19c.13.03.26,0,.38-.05-.13.02-.25.03-.38.05Zm-37.4,4.42s0,.01,0,.02c0,0,0-.01.01-.02,0,0,0,0-.01,0Zm-82.6,38.1s.02.01.03.02c0,0,0-.01,0-.02,0,0-.01,0-.02,0Zm-2.3,11.11h0s0,0,0,0c0,0,0,0,0,0,0,0,0,0,0,0t0,0Zm13.85,55.62s-.03-.04-.04-.07c0,.02,0,.05,0,.08.01,0,.03,0,.04,0Zm9.89-.5s.03,0,.04,0c0,0,0-.01,0-.02,0,0-.02.02-.03.02Zm21.58-1.7s0,0,0-.02c0,0,0,.02,0,.03,0,0,.01,0,.02-.01Zm16.1-1.31c-.17-.03-.34-.07-.5-.11.15.2.31.26.5.11Zm120.97-13.38s.05,0,.07-.01c-.01-.02-.03-.04-.05-.06,0,.02-.01.05-.02.07Zm8.09-1.23h0s0-.01,0-.01c0,0,0,0,0,.01Zm22.41-49.08s0,0,0,0c0,0,0,0,0,0,0,0,0,0,0,0Z" fill="#f6921e" stroke-width="0"/><path d="m617.06,150.06h0s0,0,0,0Z" fill="#f6921e" stroke-width="0"/><polygon points="0 48.88 0 0 48.88 0 0 48.88" fill="#0071bb" stroke-width="0"/><path d="m421.72,175.4c-.69-7.65,2.16-11.85,6.99-12.29,4.83-.44,8.4,3.22,9.09,10.84.69,7.65-2.15,12.05-6.98,12.49-4.83.44-8.41-3.39-9.11-11.04Zm11.16-1.01c-.55-6.13-2.05-7.42-3.8-7.26-1.75.16-2.99,1.69-2.44,7.82s2.07,7.61,3.82,7.46c1.75-.16,2.97-1.89,2.42-8.02Z" fill="#fff" stroke-width="0"/><path d="m440.43,174.33c-.76-8.4,3.26-12.58,7.98-13.01,2.97-.27,5.26.79,6.82,2.11l-2.47,3.36c-.84-.8-2.32-1.42-3.63-1.3-2.62.24-4.49,2.42-3.95,8.41.5,5.58,2.41,7.08,4.3,6.91,1.54-.14,2.73-1.34,2.5-3.88-.21-2.38-1.55-3.16-3.25-3.01-1.17.11-2.42.88-3.28,2.74l-.54-3.38c1.01-1.81,3.01-2.99,4.49-3.13,3.85-.35,6.89,1.58,7.32,6.34.42,4.68-2.72,7.84-6.79,8.21-4.36.39-8.8-2.48-9.51-10.37Z" fill="#fff" stroke-width="0"/><path d="m463.78,157.69l3.4-.31-4.34,31.44-3.39.31,4.34-31.44Z" fill="#fff" stroke-width="0"/><path d="m470.57,170.98c-.69-7.65,2.16-11.85,6.99-12.29,4.83-.44,8.4,3.22,9.09,10.84.69,7.65-2.15,12.05-6.98,12.49s-8.41-3.39-9.11-11.04Zm11.16-1.01c-.55-6.13-2.05-7.42-3.8-7.26-1.75.16-2.99,1.69-2.43,7.82.55,6.13,2.07,7.61,3.82,7.46s2.97-1.89,2.42-8.02Z" fill="#fff" stroke-width="0"/><path d="m490.89,176.34l4.91-.44-1.18-13-4.21.38-.29-3.23c2.37-.68,3.91-1.43,5.39-2.55l3.84-.35,1.65,18.28,4.21-.38.38,4.2-14.33,1.3-.38-4.2Z" fill="#fff" stroke-width="0"/><path d="m514.19,166.76l14.04-1.27.32,3.5-14.04,1.27-.32-3.5Z" fill="#fff" stroke-width="0"/><path d="m535.62,170.73c-.25-2.71,1.32-4.54,3.34-5.87v-.14c-1.87-1.14-3.3-2.66-3.51-5.01-.35-3.83,2.45-6.48,6.63-6.86,4.11-.37,7.05,1.81,7.39,5.55.19,2.14-1.05,4.01-2.49,5.18v.14c2.26.98,4.15,2.54,4.42,5.53.32,3.55-2.62,6.51-7.39,6.94-4.49.41-8.06-1.81-8.4-5.46Zm9.66-11.6c-.16-1.75-1.27-2.81-2.99-2.65-1.38.12-2.42,1.09-2.27,2.82.16,1.82,1.81,2.56,4.18,3.27.79-1.12,1.19-2.25,1.08-3.43Zm1.27,10.38c-.18-1.99-2.17-2.56-5.1-3.49-.91.98-1.53,2.33-1.4,3.72.18,1.97,1.86,3,3.75,2.82,1.71-.15,2.91-1.18,2.75-3.06Z" fill="#fff" stroke-width="0"/><path d="m558.48,149.12l3.4-.31-4.34,31.44-3.39.31,4.34-31.44Z" fill="#fff" stroke-width="0"/><path d="m565.52,171.04l2.1-3.5c1.49,1.19,3.25,2,5.13,1.83,2.19-.2,3.57-1.29,3.41-3.02-.18-1.97-1.44-3.08-6.33-2.64l-.33-3.69c4.04-.37,5.2-1.71,5.04-3.49-.14-1.58-1.23-2.39-3-2.23-1.6.14-2.74.98-4.02,2.35l-2.92-2.93c1.91-1.97,4.07-3.27,6.81-3.52,4.67-.42,7.95,1.51,8.31,5.47.21,2.32-.97,4.09-3.29,5.33v.14c2.68.51,4.73,2.17,4.99,5.07.38,4.19-3.24,6.89-7.77,7.3-3.64.33-6.3-.73-8.12-2.48Z" fill="#fff" stroke-width="0"/><path d="m585.59,167.77l4.91-.44-1.18-13-4.21.38-.29-3.23c2.37-.68,3.91-1.43,5.39-2.55l3.84-.35,1.65,18.28,4.21-.38.38,4.2-14.33,1.3-.38-4.2Z" fill="#fff" stroke-width="0"/><path d="m483.99,144.94c3.75-4.25,6.4-7.27,6.19-9.58-.14-1.56-1.08-2.34-2.5-2.21-1.15.1-1.99.98-2.72,1.9l-2.21-1.83c1.43-1.84,2.86-2.83,5.17-3.04,3.18-.29,5.53,1.54,5.81,4.65.25,2.71-2.03,5.84-4.42,8.81.82-.17,1.94-.36,2.68-.43l3.25-.29.28,3.14-11.34,1.03-.19-2.14Z" fill="#fff" stroke-width="0"/><path d="m498.88,137.55c-.5-5.49,1.55-8.5,5.02-8.82,3.47-.31,6.03,2.31,6.52,7.77.5,5.49-1.54,8.65-5.01,8.96-3.46.31-6.04-2.43-6.53-7.92Zm8.01-.72c-.4-4.4-1.47-5.32-2.73-5.21-1.26.11-2.14,1.21-1.75,5.61.4,4.4,1.48,5.46,2.74,5.35,1.26-.11,2.13-1.35,1.73-5.75Z" fill="#fff" stroke-width="0"/><path d="m514.87,142.15c3.75-4.25,6.4-7.27,6.19-9.58-.14-1.56-1.09-2.34-2.5-2.21-1.15.1-1.99.98-2.72,1.9l-2.21-1.83c1.43-1.84,2.86-2.83,5.17-3.04,3.18-.29,5.53,1.55,5.81,4.65.25,2.71-2.03,5.84-4.42,8.81.82-.17,1.94-.36,2.68-.43l3.25-.29.28,3.14-11.34,1.03-.19-2.14Z" fill="#fff" stroke-width="0"/><path d="m536.18,132.97c-.09-1.03-.14-2.6-.18-3.63h-.1c-.32.96-.7,1.89-1.07,2.85l-1.8,3.71,8.74-.79.26,2.84-12.32,1.11-.23-2.58,5.01-10.23,4.57-.41,1.46,16.13-3.48.31-.84-9.33Z" fill="#fff" stroke-width="0"/><circle cx="168.1" cy="454.73" r="54.72" fill="#f6921e" stroke-width="0"/><circle cx="168.1" cy="454.73" r="54.72" fill="none" stroke="#f6921e" stroke-miterlimit="10" stroke-width="5"/><circle cx="259.17" cy="454.73" r="54.72" fill="#f6921e" stroke-width="0"/><circle cx="259.17" cy="454.73" r="54.72" fill="none" stroke="#f6921e" stroke-miterlimit="10" stroke-width="5"/><circle cx="350.25" cy="454.73" r="54.72" fill="#f6921e" stroke-width="0"/><circle cx="350.25" cy="454.73" r="54.72" fill="none" stroke="#f6921e" stroke-miterlimit="10" stroke-width="5"/><circle cx="441.32" cy="454.73" r="54.72" fill="#f6921e" stroke-width="0"/><circle cx="441.32" cy="454.73" r="54.72" fill="none" stroke="#f6921e" stroke-miterlimit="10" stroke-width="5"/><circle cx="532.4" cy="454.73" r="54.72" fill="#f6921e" stroke-width="0"/><circle cx="532.4" cy="454.73" r="54.72" fill="none" stroke="#f6921e" stroke-miterlimit="10" stroke-width="5"/><path d="m171.71,427.85c-.3,9.67-2.53,14.72-8.77,19.93,1.04.07,1.49.07,2.45.07h19.56c2.6,0,4.31-.07,5.58-.3l4.68,5.65q-.74,1.34-1.79,3.57c-2.75,5.58-5.73,10.19-9.07,14.05,4.83,2.6,9.52,4.39,15.84,5.87-2.08,2.83-3.72,5.87-4.83,9.37-7.73-2.83-13.16-5.43-17.92-8.62-5.21,3.94-7.96,5.43-16.73,9.07-1.26-3.12-2.38-5.13-4.16-7.58-.22,2.38-.74,3.57-1.86,4.76-1.41,1.34-3.2,1.79-7.66,1.79-.82,0-2.01-.07-3.94-.15-.3-3.5-.89-6.02-2.3-9.37,1.86.37,4.09.59,4.98.59,2.01,0,2.45-.37,2.45-1.78v-12.57h-6.47c-.97,12.49-2.16,17.77-5.8,24.54-2.53-3.57-4.24-5.35-7.51-8.03,2.23-4.02,3.2-7.14,3.94-12.57,1.19-8.62,1.56-16.95,1.56-36.29,0-4.98-.15-8.18-.52-11.08,2.45.3,4.24.37,7.66.37h9.59c3.35,0,4.68-.07,6.17-.3-.15,1.64-.22,3.35-.22,6.47v14.87c4.83-3.87,6.32-7.66,6.32-16.58,0-2.01-.15-3.42-.37-4.68,2.01.22,3.57.3,6.25.3h12.86c2.6,0,4.16-.08,6.17-.3-.15,1.49-.22,3.27-.22,5.87v10.19c0,.82.37,1.12,1.41,1.12,1.41,0,1.93-.3,2.16-1.12.37-1.34.59-4.24.67-7.73,3.35,1.86,4.39,2.3,7.44,3.2-.67,6.62-.89,7.88-1.64,9.89-1.19,3.12-3.35,4.09-9.15,4.09-8.25,0-9.89-.89-9.89-5.43v-11.15h-6.92Zm-29.45,17.03l-.15,8.77h6.1v-8.77h-5.95Zm5.95-16.88h-5.8v8.33h5.8v-8.33Zm10.56,19.48c1.26.15,2.16.22,3.87.3-2.53-2.97-3.79-4.24-6.02-6.02v35.54c5.13-1.41,9.29-3.35,13.31-6.02-2.9-2.83-3.79-3.94-9.37-11.3l7.73-3.5h-2.45c-2.75,0-5.06.15-7.06.37v-9.37Zm10.26,9c2.23,3.87,3.94,5.87,7.66,9.15,2.83-2.9,4.46-5.21,6.62-9.15h-14.28Z" fill="#fff" stroke-width="0"/><path d="m227.26,423.61c0-2.53-.07-4.24-.37-5.95h9.29c-.22,1.86-.3,3.35-.3,5.95v1.19h9.29v-1.19c0-2.68-.07-4.31-.3-5.95h9.37c-.3,1.71-.37,3.27-.37,5.95v1.19c2.45-.07,3.27-.15,4.46-.37v8.85c-1.19-.15-2.3-.22-4.46-.22v27.29c1.93-.07,2.53-.15,3.72-.3v8.77c-1.56-.15-2.97-.22-5.95-.22h-19.33l7.06,4.31c-3.57,6.02-6.02,9-11.38,13.83-2.08-2.6-3.42-4.01-6.77-6.92,5.13-3.87,7.06-5.87,10.48-11.23h-4.61c-3.05,0-4.24.07-5.65.3v-8.85c1.41.22,2.6.3,5.43.3h.37v-27.29c-2.83,0-3.87.07-5.13.3v-8.92c1.19.3,2.38.37,5.13.37v-1.19Zm17.92,13.31v-3.87h-9.29v3.87h9.29Zm0,11.67v-4.24h-9.29v4.24h9.29Zm0,11.75v-4.24h-9.29v4.24h9.29Zm23.35,2.9c-1.26,11.9-3.05,17.03-8.1,23.65-1.93-2.6-4.02-4.98-5.87-6.77-2.45,1.86-3.5,2.75-5.21,4.68-3.79-4.46-4.16-4.91-8.1-12.12l7.21-4.09c2.38,4.09,3.72,5.95,6.47,8.7,4.61-6.47,5.58-14.87,5.58-47.22,0-5.5-.07-7.44-.37-10.41,2.75.3,4.54.37,8.7.37h11.08c4.39,0,6.17-.07,8.4-.37-.22,1.93-.3,4.24-.3,8.63v48.93c0,3.94-1.04,6.39-3.27,7.58-1.64.89-4.24,1.26-8.55,1.26-.74,0-1.93,0-3.87-.07-.52-3.72-1.04-5.87-2.3-9.59,3.27.45,4.46.59,6.02.59,2.3,0,2.75-.3,2.75-1.56v-12.19h-10.26Zm.89-17.4c-.07,3.64-.15,5.28-.3,9h9.67v-9h-9.37Zm9.37-16.95h-9.29v8.48h9.29v-8.48Z" fill="#fff" stroke-width="0"/><path d="m372.78,425.47c4.09,0,7.14-.15,9.29-.45v10.11c-2.68-.3-5.5-.45-9.29-.45h-29.89c-3.27,6.39-5.58,10.11-9.67,15.24v27.14c0,4.24.07,6.84.37,9h-10.48c.3-2.53.45-4.91.45-9v-16.88c-2.23,2.01-2.83,2.6-5.06,4.39-1.64-3.72-3.05-5.95-5.87-9.29,4.39-3.12,7.73-5.95,10.93-9.29q-.15-3.12-.3-4.31h4.02c1.78-2.38,3.2-4.46,4.61-6.99h-7.88c-3.72,0-6.69.15-9.22.45v-10.11c2.16.3,5.21.45,9.22.45h12.27c1.49-3.87,2.3-6.84,2.68-9.37l11,1.78c-.52.89-.59,1.26-1.49,3.87-.52,1.41-.89,2.31-1.41,3.72h25.73Zm-2.23,24.02c3.87,0,6.02-.15,8.25-.45v9.74c-2.23-.22-4.76-.37-8.33-.37h-8.18v16.13h10.48c4.09,0,6.32-.07,8.62-.45v9.89c-2.9-.3-5.13-.45-8.7-.45h-28.7c-3.72,0-6.02.15-8.7.45v-9.89c2.45.3,4.76.45,8.62.45h8.55v-16.13h-6.77c-3.57,0-6.1.15-8.33.37v-9.74c2.23.3,4.39.45,8.25.45h6.84v-4.02c0-3.72-.07-5.58-.37-7.66h10.56c-.3,1.71-.37,3.57-.37,7.88v3.79h8.25Z" fill="#fff" stroke-width="0"/><path d="m415.46,447.7c-3.49,0-6.02.15-8.55.45v-10.19c2.75.3,5.06.45,8.55.45h49.67c3.64,0,5.95-.15,8.55-.45v10.19c-2.53-.3-5.06-.45-8.55-.45h-11.6v25.8c0,1.86.67,2.16,4.91,2.16,4.46,0,5.65-.52,6.17-2.83.37-1.49.74-6.25.89-10.34,3.57,1.64,5.8,2.38,9.37,2.97-.67,9.89-1.19,12.64-2.68,15.24-1.79,3.2-5.21,4.09-15.32,4.09-6.77,0-10.04-.67-11.67-2.31-1.04-1.04-1.41-2.38-1.41-4.83v-29.97h-9.52c-.07,9-1.26,16.14-3.72,21.71-2.23,5.06-5.58,9.15-10.11,12.42-2.23,1.64-4.16,2.68-8.4,4.76-1.78-3.42-4.09-6.69-6.25-8.92,8.18-3.2,12.86-6.99,15.62-12.49,2.08-4.16,2.97-9.29,3.05-17.47h-9Zm51.31-17.62c-2.01-.22-4.54-.37-7.66-.37h-37.4c-3.35,0-5.5.15-7.66.37v-10.26c2.08.3,4.39.45,7.96.45h36.88c3.64,0,5.87-.15,7.88-.45v10.26Z" fill="#fff" stroke-width="0"/><path d="m537.71,443.91c1.93,6.69,5.65,13.01,10.93,18.66,5.43,5.87,11.08,9.59,19.78,13.09-2.9,3.42-4.31,5.65-6.47,10.19-8.33-4.24-13.83-8.4-19.18-14.5-4.24-4.76-7.21-9.52-9.67-15.32-2.23,6.39-5.5,11.6-10.41,16.73-5.65,5.87-11,9.52-19.04,13.09-1.64-3.57-3.35-6.17-6.17-9.44,5.65-2.23,8.77-3.87,12.64-6.69,9.29-6.69,14.05-14.65,15.62-25.8h-16.28c-5.06,0-7.21.07-9.89.45v-10.78c2.6.3,5.28.45,9.89.45h17.18c.07-3.2.15-5.21.15-7.73,0-3.64-.15-5.87-.52-7.96h11.6c-.45,2.75-.45,3.35-.52,10.56,0,2.01-.08,2.6-.15,5.13h18.44c4.39,0,7.14-.15,9.89-.45v10.78c-3.2-.37-5.5-.45-9.82-.45h-17.99Z" fill="#fff" stroke-width="0"/></svg>