<?xml version="1.0" encoding="UTF-8"?><svg xmlns="http://www.w3.org/2000/svg" viewBox="0 0 28.57 28.57"><g id="_圖層_1" focusable="false"><rect width="28.57" height="28.57" fill="none" stroke-width="0"/><path d="m27.97,7.41c-.33-1.23-1.3-2.2-2.53-2.53-2.23-.6-11.16-.6-11.16-.6,0,0-8.93,0-11.16.6-1.23.33-2.2,1.3-2.53,2.53C0,9.64,0,14.29,0,14.29,0,14.29,0,18.93.6,21.16c.33,1.23,1.3,2.2,2.53,2.53,2.23.6,11.16.6,11.16.6,0,0,8.93,0,11.16-.6,1.23-.33,2.2-1.3,2.53-2.53.6-2.23.6-6.88.6-6.88,0,0,0-4.65-.6-6.88Z" fill="red" stroke-width="0"/><path d="m11.43,18.57l7.42-4.29-7.42-4.29v8.57Z" fill="#fff" stroke-width="0"/></g></svg>